{
    "accessors" : [
        {
            "bufferView" : 0,
            "componentType" : 5123,
            "count" : 84,
            "max" : [
                47
            ],
            "min" : [
                0
            ],
            "type" : "SCALAR"
        },
        {
            "bufferView" : 1,
            "componentType" : 5126,
            "count" : 48,
            "max" : [
                0.9999998807907104,
                1.0870660543441772,
                1.0
            ],
            "min" : [
                -1.0,
                -1.0870658159255981,
                -1.0
            ],
            "type" : "VEC3"
        },
        {
            "bufferView" : 2,
            "componentType" : 5126,
            "count" : 48,
            "max" : [
                0.9238795638084412,
                0.9999999403953552,
                0.9238796234130859
            ],
            "min" : [
                -0.9238795638084412,
                -0.9999999403953552,
                -0.9238795042037964
            ],
            "type" : "VEC3"
        },
        {
            "bufferView" : 3,
            "componentType" : 5126,
            "count" : 48,
            "max" : [
                1.0,
                1.0
            ],
            "min" : [
                0.0,
                0.0
            ],
            "type" : "VEC2"
        },
        {
            "bufferView" : 4,
            "componentType" : 5123,
            "count" : 6,
            "max" : [
                3
            ],
            "min" : [
                0
            ],
            "type" : "SCALAR"
        },
        {
            "bufferView" : 5,
            "componentType" : 5126,
            "count" : 4,
            "max" : [
                1.0,
                0.0,
                1.0
            ],
            "min" : [
                -1.0,
                0.0,
                -1.0
            ],
            "type" : "VEC3"
        },
        {
            "bufferView" : 6,
            "componentType" : 5126,
            "count" : 4,
            "max" : [
                0.0,
                1.0,
                -0.0
            ],
            "min" : [
                0.0,
                1.0,
                -0.0
            ],
            "type" : "VEC3"
        },
        {
            "bufferView" : 7,
            "componentType" : 5126,
            "count" : 4,
            "max" : [
                1.0,
                0.0,
                -0.0,
                1.0
            ],
            "min" : [
                1.0,
                0.0,
                -0.0,
                1.0
            ],
            "type" : "VEC4"
        },
        {
            "bufferView" : 8,
            "componentType" : 5126,
            "count" : 4,
            "max" : [
                1.0,
                1.0
            ],
            "min" : [
                0.0,
                0.0
            ],
            "type" : "VEC2"
        }
    ],
    "asset" : {
        "generator" : "Khronos Blender glTF 2.0 exporter",
        "version" : "2.0"
    },
    "bufferViews" : [
        {
            "buffer" : 0,
            "byteLength" : 168,
            "byteOffset" : 0,
            "target" : 34963
        },
        {
            "buffer" : 0,
            "byteLength" : 576,
            "byteOffset" : 168,
            "target" : 34962
        },
        {
            "buffer" : 0,
            "byteLength" : 576,
            "byteOffset" : 744,
            "target" : 34962
        },
        {
            "buffer" : 0,
            "byteLength" : 384,
            "byteOffset" : 1320,
            "target" : 34962
        },
        {
            "buffer" : 0,
            "byteLength" : 12,
            "byteOffset" : 1704,
            "target" : 34963
        },
        {
            "buffer" : 0,
            "byteLength" : 48,
            "byteOffset" : 1716,
            "target" : 34962
        },
        {
            "buffer" : 0,
            "byteLength" : 48,
            "byteOffset" : 1764,
            "target" : 34962
        },
        {
            "buffer" : 0,
            "byteLength" : 64,
            "byteOffset" : 1812,
            "target" : 34962
        },
        {
            "buffer" : 0,
            "byteLength" : 32,
            "byteOffset" : 1876,
            "target" : 34962
        }
    ],
    "buffers" : [
        {
            "byteLength" : 1908,
            "uri" : "poteau.bin"
        }
    ],
    "meshes" : [
        {
            "name" : "Cylinder",
            "primitives" : [
                {
                    "attributes" : {
                        "NORMAL" : 2,
                        "POSITION" : 1,
                        "TEXCOORD_0" : 3
                    },
                    "indices" : 0
                }
            ]
        },
        {
            "name" : "Plane",
            "primitives" : [
                {
                    "attributes" : {
                        "NORMAL" : 6,
                        "POSITION" : 5,
                        "TANGENT" : 7,
                        "TEXCOORD_0" : 8
                    },
                    "indices" : 4
                }
            ]
        }
    ],
    "nodes" : [
        {
            "name" : "Camera",
            "rotation" : [
                0.27059805393218994,
                0.6532815098762512,
                -0.27059808373451233,
                0.6532814502716064
            ],
            "scale" : [
                1.0,
                0.9999999403953552,
                0.9999999403953552
            ],
            "translation" : [
                10.0,
                10.0,
                -0.0
            ]
        },
        {
            "mesh" : 1,
            "name" : "Plane",
            "scale" : [
                4.0,
                4.0,
                4.0
            ]
        },
        {
            "mesh" : 0,
            "name" : "Poteau",
            "rotation" : [
                0.0,
                0.1950903683900833,
                -0.0,
                0.9807853698730469
            ],
            "scale" : [
                0.5,
                0.9199073910713196,
                0.5
            ],
            "translation" : [
                0.0,
                1.0,
                3.0
            ]
        },
        {
            "mesh" : 0,
            "name" : "Poteau.001",
            "rotation" : [
                0.0,
                0.1950903683900833,
                -0.0,
                0.9807853698730469
            ],
            "scale" : [
                0.5,
                0.9199073910713196,
                0.5
            ],
            "translation" : [
                0.0,
                1.0,
                -3.0
            ]
        },
        {
            "mesh" : 0,
            "name" : "Poteau.002",
            "rotation" : [
                0.0,
                0.1950903683900833,
                -0.0,
                0.9807853698730469
            ],
            "scale" : [
                0.5,
                0.9199073910713196,
                0.5
            ],
            "translation" : [
                -3.0,
                1.0,
                -0.0
            ]
        },
        {
            "name" : "Sun",
            "rotation" : [
                0.19133473932743073,
                -0.038095325231552124,
                -0.1915181279182434,
                0.9619046449661255
            ],
            "translation" : [
                0.0,
                10.0,
                -0.0
            ]
        }
    ],
    "scene" : 0,
    "scenes" : [
        {
            "name" : "Scene",
            "nodes" : [
                4,
                5,
                1,
                3,
                2,
                0
            ]
        }
    ]
}
