{"buffers":[{"uri":"cubeOpti.bin","byteLength":360}],"asset":{"version":"2.0","generator":"gltfpack 0.13"},"extensionsUsed":["KHR_mesh_quantization","KHR_lights_punctual"],"extensionsRequired":["KHR_mesh_quantization"],"bufferViews":[{"buffer":0,"byteOffset":0,"byteLength":192,"byteStride":8,"target":34962},{"buffer":0,"byteOffset":192,"byteLength":96,"byteStride":4,"target":34962},{"buffer":0,"byteOffset":288,"byteLength":72,"target":34963}],"accessors":[{"bufferView":0,"byteOffset":0,"componentType":5123,"count":24,"type":"VEC3","min":[0,0,0],"max":[16383,16383,16383]},{"bufferView":1,"byteOffset":0,"componentType":5120,"count":24,"type":"VEC3","normalized":true},{"bufferView":2,"byteOffset":0,"componentType":5123,"count":36,"type":"SCALAR"}],"materials":[{"name":"Material","pbrMetallicRoughness":{"baseColorFactor":[0.800000012,0.800000012,0.800000012,1],"metallicFactor":0,"roughnessFactor":0.400000006},"doubleSided":true}],"meshes":[{"primitives":[{"attributes":{"POSITION":0,"NORMAL":1},"mode":4,"indices":2,"material":0}]}],"nodes":[{"mesh":0,"translation":[-1,-1,-1],"scale":[0.000122077763,0.000122077763,0.000122077763]},{"name":"Light","translation":[4.07624531,1.00545394,5.903862],"rotation":[0.169075757,0.272171378,0.755880356,0.570947528],"extensions":{"KHR_lights_punctual":{"light":0}}},{"name":"Camera","translation":[7.35889149,-6.92579079,4.95830917],"rotation":[0.483536035,0.208703607,0.336871594,0.780482709],"camera":0}],"scenes":[{"nodes":[0,1,2]}],"cameras":[{"type":"perspective","perspective":{"yfov":0.399596512,"znear":0.100000001,"zfar":100}}],"extensions":{"KHR_lights_punctual":{"lights":[{"type":"directional","intensity":10}]}},"scene":0}