<?xml version="1.0" encoding="UTF-8" standalone="no"?>
<!DOCTYPE svg PUBLIC "-//W3C//DTD SVG 1.1//EN"
 "http://www.w3.org/Graphics/SVG/1.1/DTD/svg11.dtd">
<!-- Generated by graphviz version 2.44.1 (0)
 -->
<!-- Pages: 1 -->
<svg width="1863pt" height="773pt"
 viewBox="0.00 0.00 1862.50 773.00" xmlns="http://www.w3.org/2000/svg" xmlns:xlink="http://www.w3.org/1999/xlink">
<g id="graph0" class="graph" transform="scale(1 1) rotate(0) translate(4 769)">
<polygon fill="white" stroke="transparent" points="-4,4 -4,-769 1858.5,-769 1858.5,4 -4,4"/>
<!-- Blob.Collision.CollisionDetector -->
<g id="node1" class="node">
<title>Blob.Collision.CollisionDetector</title>
<polygon fill="none" stroke="black" points="0,-529.5 0,-764.5 1158,-764.5 1158,-529.5 0,-529.5"/>
<text text-anchor="middle" x="579" y="-749.3" font-family="Times,serif" font-size="14.00">CollisionDetector</text>
<polyline fill="none" stroke="black" points="0,-741.5 1158,-741.5 "/>
<text text-anchor="middle" x="579" y="-726.3" font-family="Times,serif" font-size="14.00">&#45;timeStoped : bool</text>
<polyline fill="none" stroke="black" points="0,-718.5 1158,-718.5 "/>
<text text-anchor="middle" x="579" y="-702.8" font-family="Times,serif" font-size="14.00">&#45;hashCoor(Maths::Vec2f) : uint64_t</text>
<text text-anchor="middle" x="579" y="-687.8" font-family="Times,serif" font-size="14.00">&#45;unhashCoor(uint64_t) : Maths::Vec2i</text>
<text text-anchor="middle" x="579" y="-672.8" font-family="Times,serif" font-size="14.00">&#45;hashCoor(Maths::Vec2i) : uint64_t</text>
<text text-anchor="middle" x="579" y="-657.8" font-family="Times,serif" font-size="14.00">&#45;addToSpacialHash(std::list&lt;Maths::Vec2i&gt;, Blob::Collision::Object *)</text>
<text text-anchor="middle" x="579" y="-642.8" font-family="Times,serif" font-size="14.00">&#45;removeFromSpacialHash(std::list&lt;Maths::Vec2i&gt;, Blob::Collision::Object *)</text>
<text text-anchor="middle" x="579" y="-627.8" font-family="Times,serif" font-size="14.00">&#45;targetOverlap(Blob::Collision::RectDynamic &amp;, Maths::Rectangle &amp;, const std::unordered_set&lt;Object *&gt; &amp;, std::unordered_map&lt;Object *, Reaction&gt; &amp;) : bool</text>
<text text-anchor="middle" x="579" y="-612.8" font-family="Times,serif" font-size="14.00">&#45;computeLocalCollision(Blob::Collision::RectDynamic &amp;, const std::unordered_set&lt;Object *&gt; &amp;, Maths::Vec2f)</text>
<text text-anchor="middle" x="579" y="-597.8" font-family="Times,serif" font-size="14.00">&#45;getPath(Maths::Vec2i, Maths::Vec2i) : std::list&lt;int64_t&gt;</text>
<text text-anchor="middle" x="579" y="-582.8" font-family="Times,serif" font-size="14.00">+checkCollision(Blob::Collision::RectDynamic &amp;)</text>
<text text-anchor="middle" x="579" y="-567.8" font-family="Times,serif" font-size="14.00">+update()</text>
<text text-anchor="middle" x="579" y="-552.8" font-family="Times,serif" font-size="14.00">+pause()</text>
<text text-anchor="middle" x="579" y="-537.8" font-family="Times,serif" font-size="14.00">+unpause()</text>
</g>
<!-- Blob.Collision.Object -->
<g id="node2" class="node">
<title>Blob.Collision.Object</title>
<polygon fill="none" stroke="black" points="1176,-563 1176,-731 1570,-731 1570,-563 1176,-563"/>
<text text-anchor="middle" x="1373" y="-715.8" font-family="Times,serif" font-size="14.00">Blob::Maths::Form</text>
<polyline fill="none" stroke="black" points="1176,-708 1570,-708 "/>
<text text-anchor="middle" x="1373" y="-692.8" font-family="Times,serif" font-size="14.00">Object</text>
<polyline fill="none" stroke="black" points="1176,-685 1570,-685 "/>
<text text-anchor="middle" x="1373" y="-669.8" font-family="Times,serif" font-size="14.00">&#45;objectType : int</text>
<text text-anchor="middle" x="1373" y="-654.8" font-family="Times,serif" font-size="14.00">#enable : bool</text>
<polyline fill="none" stroke="black" points="1176,-647 1570,-647 "/>
<text text-anchor="middle" x="1373" y="-631.3" font-family="Times,serif" font-size="14.00">#setObjectType(int)</text>
<text text-anchor="middle" x="1373" y="-616.3" font-family="Times,serif" font-size="14.00">#Object(int)</text>
<text text-anchor="middle" x="1373" y="-601.3" font-family="Times,serif" font-size="14.00">#hit(int, Blob::Collision::Object &amp;)</text>
<text text-anchor="middle" x="1373" y="-586.3" font-family="Times,serif" font-size="14.00">#getImtemsHere(Maths::Vec2f) : std::list&lt;Object *&gt;</text>
<text text-anchor="middle" x="1373" y="-571.3" font-family="Times,serif" font-size="14.00">+getObjectType() : int</text>
</g>
<!-- Blob.Collision.DynamicObject -->
<g id="node3" class="node">
<title>Blob.Collision.DynamicObject</title>
<polygon fill="none" stroke="black" points="900.5,-348.5 900.5,-493.5 1085.5,-493.5 1085.5,-348.5 900.5,-348.5"/>
<text text-anchor="middle" x="993" y="-478.3" font-family="Times,serif" font-size="14.00">DynamicObject</text>
<polyline fill="none" stroke="black" points="900.5,-470.5 1085.5,-470.5 "/>
<text text-anchor="middle" x="993" y="-455.3" font-family="Times,serif" font-size="14.00">&#45;reaction : Reaction</text>
<text text-anchor="middle" x="993" y="-440.3" font-family="Times,serif" font-size="14.00">#speed : Maths::Vec2f</text>
<polyline fill="none" stroke="black" points="900.5,-432.5 1085.5,-432.5 "/>
<text text-anchor="middle" x="993" y="-416.8" font-family="Times,serif" font-size="14.00">#DynamicObject(int)</text>
<text text-anchor="middle" x="993" y="-401.8" font-family="Times,serif" font-size="14.00">#setReaction(Reaction)</text>
<text text-anchor="middle" x="993" y="-386.8" font-family="Times,serif" font-size="14.00">#keepMoving() : bool</text>
<text text-anchor="middle" x="993" y="-371.8" font-family="Times,serif" font-size="14.00">#preCollisionUpdate()</text>
<text text-anchor="middle" x="993" y="-356.8" font-family="Times,serif" font-size="14.00">#postCollisionUpdate()</text>
</g>
<!-- Blob.Collision.Object&#45;&gt;Blob.Collision.DynamicObject -->
<g id="edge1" class="edge">
<title>Blob.Collision.Object&#45;&gt;Blob.Collision.DynamicObject</title>
<path fill="none" stroke="black" d="M1220.7,-558.59C1202.7,-548.63 1184.5,-538.74 1167,-529.5 1135,-512.59 1125.1,-512.01 1094,-493.5 1091.2,-491.85 1088.4,-490.15 1085.6,-488.41"/>
<polygon fill="none" stroke="black" points="1219.06,-561.68 1229.5,-563.48 1222.46,-555.56 1219.06,-561.68"/>
</g>
<!-- Blob.Collision.CircleStatic -->
<g id="node4" class="node">
<title>Blob.Collision.CircleStatic</title>
<polygon fill="none" stroke="black" points="1103.5,-356 1103.5,-486 1444.5,-486 1444.5,-356 1103.5,-356"/>
<text text-anchor="middle" x="1274" y="-470.8" font-family="Times,serif" font-size="14.00">CircleStatic</text>
<polyline fill="none" stroke="black" points="1103.5,-463 1444.5,-463 "/>
<text text-anchor="middle" x="1274" y="-447.8" font-family="Times,serif" font-size="14.00">&#45;elementIt : std::list&lt;CircleStatic *&gt;::iterator</text>
<text text-anchor="middle" x="1274" y="-432.8" font-family="Times,serif" font-size="14.00">#mainCircle : Maths::Circle</text>
<polyline fill="none" stroke="black" points="1103.5,-425 1444.5,-425 "/>
<text text-anchor="middle" x="1274" y="-409.3" font-family="Times,serif" font-size="14.00">#enableCollision()</text>
<text text-anchor="middle" x="1274" y="-394.3" font-family="Times,serif" font-size="14.00">#disableCollision()</text>
<text text-anchor="middle" x="1274" y="-379.3" font-family="Times,serif" font-size="14.00">#CircleStatic(const int)</text>
<text text-anchor="middle" x="1274" y="-364.3" font-family="Times,serif" font-size="14.00">#~CircleStatic()</text>
</g>
<!-- Blob.Collision.Object&#45;&gt;Blob.Collision.CircleStatic -->
<g id="edge2" class="edge">
<title>Blob.Collision.Object&#45;&gt;Blob.Collision.CircleStatic</title>
<path fill="none" stroke="black" d="M1332.3,-553.81C1322.1,-530.86 1311.5,-506.75 1302.1,-485.53"/>
<polygon fill="none" stroke="black" points="1329.2,-555.46 1336.4,-563.23 1335.62,-552.66 1329.2,-555.46"/>
</g>
<!-- Blob.Collision.RectStatic -->
<g id="node5" class="node">
<title>Blob.Collision.RectStatic</title>
<polygon fill="none" stroke="black" points="1284,-174.5 1284,-312.5 1662,-312.5 1662,-174.5 1284,-174.5"/>
<text text-anchor="middle" x="1473" y="-297.3" font-family="Times,serif" font-size="14.00">Blob::Maths::Rectangle</text>
<polyline fill="none" stroke="black" points="1284,-289.5 1662,-289.5 "/>
<text text-anchor="middle" x="1473" y="-274.3" font-family="Times,serif" font-size="14.00">RectStatic</text>
<polyline fill="none" stroke="black" points="1284,-266.5 1662,-266.5 "/>
<text text-anchor="middle" x="1473" y="-251.3" font-family="Times,serif" font-size="14.00">&#45;elementIt : std::list&lt;RectStatic *&gt;::iterator</text>
<polyline fill="none" stroke="black" points="1284,-243.5 1662,-243.5 "/>
<text text-anchor="middle" x="1473" y="-227.8" font-family="Times,serif" font-size="14.00">#enableCollision()</text>
<text text-anchor="middle" x="1473" y="-212.8" font-family="Times,serif" font-size="14.00">#disableCollision()</text>
<text text-anchor="middle" x="1473" y="-197.8" font-family="Times,serif" font-size="14.00">+RectStatic(Maths::Vec2f, Maths::Vec2f, const int)</text>
<text text-anchor="middle" x="1473" y="-182.8" font-family="Times,serif" font-size="14.00">+~RectStatic()</text>
</g>
<!-- Blob.Collision.Object&#45;&gt;Blob.Collision.RectStatic -->
<g id="edge3" class="edge">
<title>Blob.Collision.Object&#45;&gt;Blob.Collision.RectStatic</title>
<path fill="none" stroke="black" d="M1428.6,-554.31C1438.3,-534.83 1447.1,-513.95 1453,-493.5 1470.3,-433.82 1474.5,-362.97 1474.8,-312.13"/>
<polygon fill="none" stroke="black" points="1425.37,-552.94 1424,-563.45 1431.62,-556.09 1425.37,-552.94"/>
</g>
<!-- Blob.Collision.LineStatic -->
<g id="node6" class="node">
<title>Blob.Collision.LineStatic</title>
<polygon fill="none" stroke="black" points="1525.5,-4.5 1525.5,-134.5 1854.5,-134.5 1854.5,-4.5 1525.5,-4.5"/>
<text text-anchor="middle" x="1690" y="-119.3" font-family="Times,serif" font-size="14.00">LineStatic</text>
<polyline fill="none" stroke="black" points="1525.5,-111.5 1854.5,-111.5 "/>
<text text-anchor="middle" x="1690" y="-96.3" font-family="Times,serif" font-size="14.00">&#45;elementIt : std::list&lt;LineStatic *&gt;::iterator</text>
<text text-anchor="middle" x="1690" y="-81.3" font-family="Times,serif" font-size="14.00">#lines : std::deque&lt;Maths::Point2f&gt;</text>
<polyline fill="none" stroke="black" points="1525.5,-73.5 1854.5,-73.5 "/>
<text text-anchor="middle" x="1690" y="-57.8" font-family="Times,serif" font-size="14.00">#enableCollision()</text>
<text text-anchor="middle" x="1690" y="-42.8" font-family="Times,serif" font-size="14.00">#disableCollision()</text>
<text text-anchor="middle" x="1690" y="-27.8" font-family="Times,serif" font-size="14.00">#LineStatic(const int)</text>
<text text-anchor="middle" x="1690" y="-12.8" font-family="Times,serif" font-size="14.00">#~LineStatic()</text>
</g>
<!-- Blob.Collision.Object&#45;&gt;Blob.Collision.LineStatic -->
<g id="edge4" class="edge">
<title>Blob.Collision.Object&#45;&gt;Blob.Collision.LineStatic</title>
<path fill="none" stroke="black" d="M1483.6,-556.27C1550.3,-495.17 1630.1,-408.24 1671,-312.5 1695.3,-255.63 1698,-184.44 1695.8,-134.03"/>
<polygon fill="none" stroke="black" points="1480.98,-553.92 1475.9,-563.22 1485.67,-559.12 1480.98,-553.92"/>
</g>
<!-- Blob.Collision.CircleDynamic -->
<g id="node7" class="node">
<title>Blob.Collision.CircleDynamic</title>
<polygon fill="none" stroke="black" points="708.5,-178.5 708.5,-308.5 1069.5,-308.5 1069.5,-178.5 708.5,-178.5"/>
<text text-anchor="middle" x="889" y="-293.3" font-family="Times,serif" font-size="14.00">CircleDynamic</text>
<polyline fill="none" stroke="black" points="708.5,-285.5 1069.5,-285.5 "/>
<text text-anchor="middle" x="889" y="-270.3" font-family="Times,serif" font-size="14.00">&#45;elementIt : std::list&lt;CircleDynamic *&gt;::iterator</text>
<text text-anchor="middle" x="889" y="-255.3" font-family="Times,serif" font-size="14.00">#mainCircle : Maths::Circle</text>
<polyline fill="none" stroke="black" points="708.5,-247.5 1069.5,-247.5 "/>
<text text-anchor="middle" x="889" y="-231.8" font-family="Times,serif" font-size="14.00">#enableCollision()</text>
<text text-anchor="middle" x="889" y="-216.8" font-family="Times,serif" font-size="14.00">#disableCollision()</text>
<text text-anchor="middle" x="889" y="-201.8" font-family="Times,serif" font-size="14.00">#CircleDynamic(const int)</text>
<text text-anchor="middle" x="889" y="-186.8" font-family="Times,serif" font-size="14.00">#~CircleDynamic()</text>
</g>
<!-- Blob.Collision.DynamicObject&#45;&gt;Blob.Collision.CircleDynamic -->
<g id="edge5" class="edge">
<title>Blob.Collision.DynamicObject&#45;&gt;Blob.Collision.CircleDynamic</title>
<path fill="none" stroke="black" d="M945.56,-339.95C939.24,-329.28 932.82,-318.45 926.69,-308.1"/>
<polygon fill="none" stroke="black" points="942.74,-342.05 950.85,-348.87 948.76,-338.48 942.74,-342.05"/>
</g>
<!-- Blob.Collision.RectDynamic -->
<g id="node8" class="node">
<title>Blob.Collision.RectDynamic</title>
<polygon fill="none" stroke="black" points="898,-0.5 898,-138.5 1296,-138.5 1296,-0.5 898,-0.5"/>
<text text-anchor="middle" x="1097" y="-123.3" font-family="Times,serif" font-size="14.00">Blob::Maths::Rectangle</text>
<polyline fill="none" stroke="black" points="898,-115.5 1296,-115.5 "/>
<text text-anchor="middle" x="1097" y="-100.3" font-family="Times,serif" font-size="14.00">RectDynamic</text>
<polyline fill="none" stroke="black" points="898,-92.5 1296,-92.5 "/>
<text text-anchor="middle" x="1097" y="-77.3" font-family="Times,serif" font-size="14.00">&#45;elementIt : std::list&lt;RectDynamic *&gt;::iterator</text>
<polyline fill="none" stroke="black" points="898,-69.5 1296,-69.5 "/>
<text text-anchor="middle" x="1097" y="-53.8" font-family="Times,serif" font-size="14.00">#enableCollision()</text>
<text text-anchor="middle" x="1097" y="-38.8" font-family="Times,serif" font-size="14.00">#disableCollision()</text>
<text text-anchor="middle" x="1097" y="-23.8" font-family="Times,serif" font-size="14.00">+RectDynamic(Maths::Vec2f, Maths::Vec2f, const int)</text>
<text text-anchor="middle" x="1097" y="-8.8" font-family="Times,serif" font-size="14.00">+~RectDynamic()</text>
</g>
<!-- Blob.Collision.DynamicObject&#45;&gt;Blob.Collision.RectDynamic -->
<g id="edge6" class="edge">
<title>Blob.Collision.DynamicObject&#45;&gt;Blob.Collision.RectDynamic</title>
<path fill="none" stroke="black" d="M1063.9,-340.25C1069.4,-331.3 1074.3,-321.98 1078,-312.5 1099.9,-256.59 1103.3,-187.94 1102,-138.06"/>
<polygon fill="none" stroke="black" points="1060.94,-338.39 1058.5,-348.7 1066.83,-342.16 1060.94,-338.39"/>
</g>
</g>
</svg>
