<?xml version="1.0" encoding="UTF-8" standalone="no"?>
<!DOCTYPE svg PUBLIC "-//W3C//DTD SVG 1.1//EN"
 "http://www.w3.org/Graphics/SVG/1.1/DTD/svg11.dtd">
<!-- Generated by graphviz version 2.44.1 (0)
 -->
<!-- Pages: 1 -->
<svg width="5185pt" height="745pt"
 viewBox="0.00 0.00 5185.00 745.00" xmlns="http://www.w3.org/2000/svg" xmlns:xlink="http://www.w3.org/1999/xlink">
<g id="graph0" class="graph" transform="scale(1 1) rotate(0) translate(4 741)">
<polygon fill="white" stroke="transparent" points="-4,4 -4,-741 5181,-741 5181,4 -4,4"/>
<!-- Blob.glTF2.Accessor -->
<g id="node1" class="node">
<title>Blob.glTF2.Accessor</title>
<polygon fill="none" stroke="black" points="0,-118.5 0,-323.5 272,-323.5 272,-118.5 0,-118.5"/>
<text text-anchor="middle" x="136" y="-308.3" font-family="Times,serif" font-size="14.00">Accessor</text>
<polyline fill="none" stroke="black" points="0,-300.5 272,-300.5 "/>
<text text-anchor="middle" x="136" y="-285.3" font-family="Times,serif" font-size="14.00">+bufferView : int</text>
<text text-anchor="middle" x="136" y="-270.3" font-family="Times,serif" font-size="14.00">+byteOffset : unsigned int</text>
<text text-anchor="middle" x="136" y="-255.3" font-family="Times,serif" font-size="14.00">+componentType : uint32_t</text>
<text text-anchor="middle" x="136" y="-240.3" font-family="Times,serif" font-size="14.00">+normalized : bool</text>
<text text-anchor="middle" x="136" y="-225.3" font-family="Times,serif" font-size="14.00">+count : int</text>
<text text-anchor="middle" x="136" y="-210.3" font-family="Times,serif" font-size="14.00">+type : Blob::glTF2::Accessor::Type</text>
<text text-anchor="middle" x="136" y="-195.3" font-family="Times,serif" font-size="14.00">+max : std::vector&lt;float&gt;</text>
<text text-anchor="middle" x="136" y="-180.3" font-family="Times,serif" font-size="14.00">+min : std::vector&lt;float&gt;</text>
<text text-anchor="middle" x="136" y="-165.3" font-family="Times,serif" font-size="14.00">+name : std::string</text>
<polyline fill="none" stroke="black" points="0,-157.5 272,-157.5 "/>
<text text-anchor="middle" x="136" y="-141.8" font-family="Times,serif" font-size="14.00">+Accessor(const nlohmann::json &amp;)</text>
<text text-anchor="middle" x="136" y="-126.8" font-family="Times,serif" font-size="14.00">+getSize() : uint32_t</text>
</g>
<!-- Blob.glTF2.SceneManager -->
<g id="node2" class="node">
<title>Blob.glTF2.SceneManager</title>
<polygon fill="none" stroke="black" points="1621,-0.5 1621,-62.5 1901,-62.5 1901,-0.5 1621,-0.5"/>
<text text-anchor="middle" x="1761" y="-47.3" font-family="Times,serif" font-size="14.00">SceneManager</text>
<polyline fill="none" stroke="black" points="1621,-39.5 1901,-39.5 "/>
<text text-anchor="middle" x="1761" y="-23.8" font-family="Times,serif" font-size="14.00">+SceneManager(const std::string &amp;)</text>
<text text-anchor="middle" x="1761" y="-8.8" font-family="Times,serif" font-size="14.00">+createVBO(std::string)</text>
</g>
<!-- Blob.glTF2.Accessor&#45;&gt;Blob.glTF2.SceneManager -->
<g id="edge1" class="edge">
<title>Blob.glTF2.Accessor&#45;&gt;Blob.glTF2.SceneManager</title>
<path fill="none" stroke="black" d="M251.83,-113.19C261.29,-107.69 271.05,-102.86 281,-99 402.26,-51.95 1255.9,-37.73 1608.84,-33.84"/>
<polygon fill="black" stroke="black" points="249.96,-110.23 243.23,-118.42 253.59,-116.21 249.96,-110.23"/>
<polygon fill="none" stroke="black" points="1608.93,-33.84 1614.88,-29.77 1620.93,-33.71 1614.97,-37.77 1608.93,-33.84"/>
</g>
<!-- Blob.glTF2.Asset -->
<g id="node3" class="node">
<title>Blob.glTF2.Asset</title>
<polygon fill="none" stroke="black" points="290.5,-197.5 290.5,-244.5 451.5,-244.5 451.5,-197.5 290.5,-197.5"/>
<text text-anchor="middle" x="371" y="-229.3" font-family="Times,serif" font-size="14.00">Asset</text>
<polyline fill="none" stroke="black" points="290.5,-221.5 451.5,-221.5 "/>
<text text-anchor="middle" x="371" y="-205.8" font-family="Times,serif" font-size="14.00">&#45;version : std::string</text>
</g>
<!-- Blob.glTF2.Asset&#45;&gt;Blob.glTF2.SceneManager -->
<g id="edge2" class="edge">
<title>Blob.glTF2.Asset&#45;&gt;Blob.glTF2.SceneManager</title>
<path fill="none" stroke="black" d="M384.64,-188.04C398.86,-159.17 424.1,-118.32 460,-99 558.83,-45.8 1286.67,-35.12 1608.59,-33.01"/>
<polygon fill="black" stroke="black" points="381.36,-186.79 380.25,-197.33 387.69,-189.79 381.36,-186.79"/>
<polygon fill="none" stroke="black" points="1608.8,-33 1614.77,-28.97 1620.8,-32.93 1614.83,-36.97 1608.8,-33"/>
</g>
<!-- Blob.glTF2.Buffer -->
<g id="node4" class="node">
<title>Blob.glTF2.Buffer</title>
<polygon fill="none" stroke="black" points="469.5,-152 469.5,-290 864.5,-290 864.5,-152 469.5,-152"/>
<text text-anchor="middle" x="667" y="-274.8" font-family="Times,serif" font-size="14.00">Blob::Core::Buffer</text>
<polyline fill="none" stroke="black" points="469.5,-267 864.5,-267 "/>
<text text-anchor="middle" x="667" y="-251.8" font-family="Times,serif" font-size="14.00">Buffer</text>
<polyline fill="none" stroke="black" points="469.5,-244 864.5,-244 "/>
<text text-anchor="middle" x="667" y="-228.8" font-family="Times,serif" font-size="14.00">+uri : std::string</text>
<text text-anchor="middle" x="667" y="-213.8" font-family="Times,serif" font-size="14.00">+byteLength : size_t</text>
<text text-anchor="middle" x="667" y="-198.8" font-family="Times,serif" font-size="14.00">+name : std::string</text>
<polyline fill="none" stroke="black" points="469.5,-191 864.5,-191 "/>
<text text-anchor="middle" x="667" y="-175.3" font-family="Times,serif" font-size="14.00">+Buffer(const nlohmann::json &amp;, const std::string &amp;)</text>
<text text-anchor="middle" x="667" y="-160.3" font-family="Times,serif" font-size="14.00">+getData(size_t, size_t) : std::vector&lt;uint8_t&gt;</text>
</g>
<!-- Blob.glTF2.Buffer&#45;&gt;Blob.glTF2.SceneManager -->
<g id="edge3" class="edge">
<title>Blob.glTF2.Buffer&#45;&gt;Blob.glTF2.SceneManager</title>
<path fill="none" stroke="black" d="M771.54,-146.56C803.1,-127.86 838.76,-109.97 874,-99 1006.86,-57.63 1392.24,-41.55 1608.76,-35.66"/>
<polygon fill="black" stroke="black" points="769.51,-143.69 762.75,-151.85 773.12,-149.69 769.51,-143.69"/>
<polygon fill="none" stroke="black" points="1608.86,-35.65 1614.75,-31.49 1620.86,-35.33 1614.97,-39.49 1608.86,-35.65"/>
</g>
<!-- Blob.glTF2.BufferView -->
<g id="node5" class="node">
<title>Blob.glTF2.BufferView</title>
<polygon fill="none" stroke="black" points="883,-160 883,-282 1195,-282 1195,-160 883,-160"/>
<text text-anchor="middle" x="1039" y="-266.8" font-family="Times,serif" font-size="14.00">BufferView</text>
<polyline fill="none" stroke="black" points="883,-259 1195,-259 "/>
<text text-anchor="middle" x="1039" y="-243.3" font-family="Times,serif" font-size="14.00">+buffer : size_t</text>
<text text-anchor="middle" x="1039" y="-228.3" font-family="Times,serif" font-size="14.00">+byteOffset : size_t</text>
<text text-anchor="middle" x="1039" y="-213.3" font-family="Times,serif" font-size="14.00">+byteLength : size_t</text>
<text text-anchor="middle" x="1039" y="-198.3" font-family="Times,serif" font-size="14.00">+byteStride : size_t</text>
<text text-anchor="middle" x="1039" y="-183.3" font-family="Times,serif" font-size="14.00">+name : std::string</text>
<text text-anchor="middle" x="1039" y="-168.3" font-family="Times,serif" font-size="14.00">+target : Blob::glTF2::BufferView::Target</text>
</g>
<!-- Blob.glTF2.BufferView&#45;&gt;Blob.glTF2.SceneManager -->
<g id="edge4" class="edge">
<title>Blob.glTF2.BufferView&#45;&gt;Blob.glTF2.SceneManager</title>
<path fill="none" stroke="black" d="M1112.7,-153.43C1139.63,-132.64 1171.51,-111.82 1204,-99 1275.36,-70.85 1469.81,-52.16 1608.85,-41.95"/>
<polygon fill="black" stroke="black" points="1110.2,-150.94 1104.5,-159.87 1114.53,-156.44 1110.2,-150.94"/>
<polygon fill="none" stroke="black" points="1608.89,-41.95 1614.59,-37.52 1620.86,-41.08 1615.16,-45.5 1608.89,-41.95"/>
</g>
<!-- Blob.glTF2.Image -->
<g id="node6" class="node">
<title>Blob.glTF2.Image</title>
<polygon fill="none" stroke="black" points="1213.5,-163.5 1213.5,-278.5 1608.5,-278.5 1608.5,-163.5 1213.5,-163.5"/>
<text text-anchor="middle" x="1411" y="-263.3" font-family="Times,serif" font-size="14.00">Image</text>
<polyline fill="none" stroke="black" points="1213.5,-255.5 1608.5,-255.5 "/>
<text text-anchor="middle" x="1411" y="-240.3" font-family="Times,serif" font-size="14.00">+uri : std::string</text>
<text text-anchor="middle" x="1411" y="-225.3" font-family="Times,serif" font-size="14.00">+mimeType : std::string</text>
<text text-anchor="middle" x="1411" y="-210.3" font-family="Times,serif" font-size="14.00">+bufferView : int</text>
<text text-anchor="middle" x="1411" y="-195.3" font-family="Times,serif" font-size="14.00">+name : std::string</text>
<polyline fill="none" stroke="black" points="1213.5,-187.5 1608.5,-187.5 "/>
<text text-anchor="middle" x="1411" y="-171.8" font-family="Times,serif" font-size="14.00">+Image(const nlohmann::json &amp;, const std::string &amp;)</text>
</g>
<!-- Blob.glTF2.Image&#45;&gt;Blob.glTF2.SceneManager -->
<g id="edge5" class="edge">
<title>Blob.glTF2.Image&#45;&gt;Blob.glTF2.SceneManager</title>
<path fill="none" stroke="black" d="M1512.3,-158.24C1545.6,-138.63 1583.04,-117.29 1618,-99 1638.46,-88.29 1660.96,-77.42 1681.94,-67.66"/>
<polygon fill="black" stroke="black" points="1510.3,-155.36 1503.47,-163.46 1513.86,-161.38 1510.3,-155.36"/>
<polygon fill="none" stroke="black" points="1682.18,-67.54 1685.95,-61.4 1693.08,-62.51 1689.31,-68.66 1682.18,-67.54"/>
</g>
<!-- Blob.glTF2.Sampler -->
<g id="node7" class="node">
<title>Blob.glTF2.Sampler</title>
<polygon fill="none" stroke="black" points="1627,-156 1627,-286 1895,-286 1895,-156 1627,-156"/>
<text text-anchor="middle" x="1761" y="-270.8" font-family="Times,serif" font-size="14.00">Sampler</text>
<polyline fill="none" stroke="black" points="1627,-263 1895,-263 "/>
<text text-anchor="middle" x="1761" y="-247.8" font-family="Times,serif" font-size="14.00">+magFilter : int</text>
<text text-anchor="middle" x="1761" y="-232.8" font-family="Times,serif" font-size="14.00">+minFilter : int</text>
<text text-anchor="middle" x="1761" y="-217.8" font-family="Times,serif" font-size="14.00">+wrapS : int</text>
<text text-anchor="middle" x="1761" y="-202.8" font-family="Times,serif" font-size="14.00">+wrapT : int</text>
<text text-anchor="middle" x="1761" y="-187.8" font-family="Times,serif" font-size="14.00">+name : std::string</text>
<polyline fill="none" stroke="black" points="1627,-180 1895,-180 "/>
<text text-anchor="middle" x="1761" y="-164.3" font-family="Times,serif" font-size="14.00">+Sampler(const nlohmann::json &amp;)</text>
</g>
<!-- Blob.glTF2.Sampler&#45;&gt;Blob.glTF2.SceneManager -->
<g id="edge6" class="edge">
<title>Blob.glTF2.Sampler&#45;&gt;Blob.glTF2.SceneManager</title>
<path fill="none" stroke="black" d="M1761,-145.85C1761,-121.66 1761,-95.66 1761,-74.67"/>
<polygon fill="black" stroke="black" points="1757.5,-146 1761,-156 1764.5,-146 1757.5,-146"/>
<polygon fill="none" stroke="black" points="1761,-74.62 1757,-68.62 1761,-62.62 1765,-68.62 1761,-74.62"/>
</g>
<!-- Blob.glTF2.Texture -->
<g id="node8" class="node">
<title>Blob.glTF2.Texture</title>
<polygon fill="none" stroke="black" points="1913,-159.5 1913,-282.5 2533,-282.5 2533,-159.5 1913,-159.5"/>
<text text-anchor="middle" x="2223" y="-267.3" font-family="Times,serif" font-size="14.00">Blob::Core::Texture</text>
<polyline fill="none" stroke="black" points="1913,-259.5 2533,-259.5 "/>
<text text-anchor="middle" x="2223" y="-244.3" font-family="Times,serif" font-size="14.00">Texture</text>
<polyline fill="none" stroke="black" points="1913,-236.5 2533,-236.5 "/>
<text text-anchor="middle" x="2223" y="-221.3" font-family="Times,serif" font-size="14.00">+sampler : int</text>
<text text-anchor="middle" x="2223" y="-206.3" font-family="Times,serif" font-size="14.00">+source : int</text>
<text text-anchor="middle" x="2223" y="-191.3" font-family="Times,serif" font-size="14.00">+name : std::string</text>
<polyline fill="none" stroke="black" points="1913,-183.5 2533,-183.5 "/>
<text text-anchor="middle" x="2223" y="-167.8" font-family="Times,serif" font-size="14.00">+Texture(const nlohmann::json &amp;, std::vector&lt;Image&gt; &amp;, std::vector&lt;Sampler&gt; &amp;)</text>
</g>
<!-- Blob.glTF2.Texture&#45;&gt;Blob.glTF2.SceneManager -->
<g id="edge7" class="edge">
<title>Blob.glTF2.Texture&#45;&gt;Blob.glTF2.SceneManager</title>
<path fill="none" stroke="black" d="M2064.23,-155.56C1991.25,-125.94 1907.57,-91.98 1846.63,-67.25"/>
<polygon fill="black" stroke="black" points="2063.06,-158.87 2073.64,-159.38 2065.69,-152.38 2063.06,-158.87"/>
<polygon fill="none" stroke="black" points="1846.26,-67.1 1839.2,-68.55 1835.14,-62.59 1842.2,-61.14 1846.26,-67.1"/>
</g>
<!-- Blob.glTF2.Material.PbrMetallicRoughness -->
<g id="node9" class="node">
<title>Blob.glTF2.Material.PbrMetallicRoughness</title>
<polygon fill="none" stroke="black" points="1907.5,-398.5 1907.5,-528.5 2458.5,-528.5 2458.5,-398.5 1907.5,-398.5"/>
<text text-anchor="middle" x="2183" y="-513.3" font-family="Times,serif" font-size="14.00">PbrMetallicRoughness</text>
<polyline fill="none" stroke="black" points="1907.5,-505.5 2458.5,-505.5 "/>
<text text-anchor="middle" x="2183" y="-490.3" font-family="Times,serif" font-size="14.00">+set : bool</text>
<text text-anchor="middle" x="2183" y="-475.3" font-family="Times,serif" font-size="14.00">+baseColorFactor : std::array&lt;float, 4&gt;</text>
<text text-anchor="middle" x="2183" y="-460.3" font-family="Times,serif" font-size="14.00">+metallicFactor : float</text>
<text text-anchor="middle" x="2183" y="-445.3" font-family="Times,serif" font-size="14.00">+roughnessFactor : float</text>
<polyline fill="none" stroke="black" points="1907.5,-437.5 2458.5,-437.5 "/>
<text text-anchor="middle" x="2183" y="-421.8" font-family="Times,serif" font-size="14.00">+PbrMetallicRoughness()</text>
<text text-anchor="middle" x="2183" y="-406.8" font-family="Times,serif" font-size="14.00">+PbrMetallicRoughness(const nlohmann::json &amp;, std::vector&lt;Texture&gt; &amp;)</text>
</g>
<!-- Blob.glTF2.Material -->
<g id="node10" class="node">
<title>Blob.glTF2.Material</title>
<polygon fill="none" stroke="black" points="2551,-144.5 2551,-297.5 3001,-297.5 3001,-144.5 2551,-144.5"/>
<text text-anchor="middle" x="2776" y="-282.3" font-family="Times,serif" font-size="14.00">Blob::Material::SingleColorMaterial</text>
<polyline fill="none" stroke="black" points="2551,-274.5 3001,-274.5 "/>
<text text-anchor="middle" x="2776" y="-259.3" font-family="Times,serif" font-size="14.00">Material</text>
<polyline fill="none" stroke="black" points="2551,-251.5 3001,-251.5 "/>
<text text-anchor="middle" x="2776" y="-236.3" font-family="Times,serif" font-size="14.00">+name : std::string</text>
<text text-anchor="middle" x="2776" y="-221.3" font-family="Times,serif" font-size="14.00">+emissiveFactor : std::array&lt;float, 3&gt;</text>
<text text-anchor="middle" x="2776" y="-206.3" font-family="Times,serif" font-size="14.00">+alphaMode : std::string</text>
<text text-anchor="middle" x="2776" y="-191.3" font-family="Times,serif" font-size="14.00">+alphaCutoff : float</text>
<text text-anchor="middle" x="2776" y="-176.3" font-family="Times,serif" font-size="14.00">+doubleSided : bool</text>
<polyline fill="none" stroke="black" points="2551,-168.5 3001,-168.5 "/>
<text text-anchor="middle" x="2776" y="-152.8" font-family="Times,serif" font-size="14.00">+Material(const nlohmann::json &amp;, std::vector&lt;Texture&gt; &amp;)</text>
</g>
<!-- Blob.glTF2.Material.PbrMetallicRoughness&#45;&gt;Blob.glTF2.Material -->
<g id="edge8" class="edge">
<title>Blob.glTF2.Material.PbrMetallicRoughness&#45;&gt;Blob.glTF2.Material</title>
<path fill="none" stroke="black" d="M2403.4,-395.17C2449.68,-379.36 2497.84,-361.63 2542,-343 2570.09,-331.15 2599.41,-317.27 2627.42,-303.21"/>
<polygon fill="black" stroke="black" points="2402.2,-391.88 2393.86,-398.41 2404.45,-398.51 2402.2,-391.88"/>
<polygon fill="none" stroke="black" points="2627.79,-303.03 2631.34,-296.75 2638.5,-297.61 2634.95,-303.89 2627.79,-303.03"/>
</g>
<!-- Blob.glTF2.Material&#45;&gt;Blob.glTF2.SceneManager -->
<g id="edge9" class="edge">
<title>Blob.glTF2.Material&#45;&gt;Blob.glTF2.SceneManager</title>
<path fill="none" stroke="black" d="M2642.98,-139.87C2610.9,-123.79 2576.04,-108.83 2542,-99 2427.92,-66.06 2106.46,-47.13 1913.36,-38.41"/>
<polygon fill="black" stroke="black" points="2641.45,-143.02 2651.95,-144.44 2644.62,-136.78 2641.45,-143.02"/>
<polygon fill="none" stroke="black" points="1913.1,-38.4 1906.93,-42.13 1901.12,-37.87 1907.29,-34.14 1913.1,-38.4"/>
</g>
<!-- Blob.glTF2.Material.normalTextureInfo -->
<g id="node11" class="node">
<title>Blob.glTF2.Material.normalTextureInfo</title>
<polygon fill="none" stroke="black" points="2515,-421 2515,-506 3037,-506 3037,-421 2515,-421"/>
<text text-anchor="middle" x="2776" y="-490.8" font-family="Times,serif" font-size="14.00">normalTextureInfo</text>
<polyline fill="none" stroke="black" points="2515,-483 3037,-483 "/>
<text text-anchor="middle" x="2776" y="-467.8" font-family="Times,serif" font-size="14.00">+scale : float</text>
<polyline fill="none" stroke="black" points="2515,-460 3037,-460 "/>
<text text-anchor="middle" x="2776" y="-444.3" font-family="Times,serif" font-size="14.00">+normalTextureInfo()</text>
<text text-anchor="middle" x="2776" y="-429.3" font-family="Times,serif" font-size="14.00">+normalTextureInfo(const nlohmann::json &amp;, std::vector&lt;Texture&gt; &amp;)</text>
</g>
<!-- Blob.glTF2.Material.normalTextureInfo&#45;&gt;Blob.glTF2.Material -->
<g id="edge10" class="edge">
<title>Blob.glTF2.Material.normalTextureInfo&#45;&gt;Blob.glTF2.Material</title>
<path fill="none" stroke="black" d="M2776,-410.55C2776,-381.17 2776,-343.66 2776,-309.83"/>
<polygon fill="black" stroke="black" points="2772.5,-410.88 2776,-420.88 2779.5,-410.88 2772.5,-410.88"/>
<polygon fill="none" stroke="black" points="2776,-309.56 2772,-303.56 2776,-297.56 2780,-303.56 2776,-309.56"/>
</g>
<!-- Blob.glTF2.Material.occlusionTextureInfo -->
<g id="node12" class="node">
<title>Blob.glTF2.Material.occlusionTextureInfo</title>
<polygon fill="none" stroke="black" points="3055,-421 3055,-506 3593,-506 3593,-421 3055,-421"/>
<text text-anchor="middle" x="3324" y="-490.8" font-family="Times,serif" font-size="14.00">occlusionTextureInfo</text>
<polyline fill="none" stroke="black" points="3055,-483 3593,-483 "/>
<text text-anchor="middle" x="3324" y="-467.8" font-family="Times,serif" font-size="14.00">+strength : float</text>
<polyline fill="none" stroke="black" points="3055,-460 3593,-460 "/>
<text text-anchor="middle" x="3324" y="-444.3" font-family="Times,serif" font-size="14.00">+occlusionTextureInfo()</text>
<text text-anchor="middle" x="3324" y="-429.3" font-family="Times,serif" font-size="14.00">+occlusionTextureInfo(const nlohmann::json &amp;, std::vector&lt;Texture&gt; &amp;)</text>
</g>
<!-- Blob.glTF2.Material.occlusionTextureInfo&#45;&gt;Blob.glTF2.Material -->
<g id="edge11" class="edge">
<title>Blob.glTF2.Material.occlusionTextureInfo&#45;&gt;Blob.glTF2.Material</title>
<path fill="none" stroke="black" d="M3195.79,-417.46C3138.35,-396.32 3070.15,-369.89 3010,-343 2982.72,-330.81 2954.13,-316.95 2926.67,-303.09"/>
<polygon fill="black" stroke="black" points="3194.69,-420.78 3205.28,-420.94 3197.1,-414.21 3194.69,-420.78"/>
<polygon fill="none" stroke="black" points="2926.5,-303 2919.34,-303.85 2915.8,-297.57 2922.96,-296.72 2926.5,-303"/>
</g>
<!-- Blob.glTF2.Material.textureInfo -->
<g id="node13" class="node">
<title>Blob.glTF2.Material.textureInfo</title>
<polygon fill="none" stroke="black" points="2252,-603 2252,-718 2722,-718 2722,-603 2252,-603"/>
<text text-anchor="middle" x="2487" y="-702.8" font-family="Times,serif" font-size="14.00">textureInfo</text>
<polyline fill="none" stroke="black" points="2252,-695 2722,-695 "/>
<text text-anchor="middle" x="2487" y="-679.8" font-family="Times,serif" font-size="14.00">+set : bool</text>
<text text-anchor="middle" x="2487" y="-664.8" font-family="Times,serif" font-size="14.00">+index : size_t</text>
<text text-anchor="middle" x="2487" y="-649.8" font-family="Times,serif" font-size="14.00">+texCoord : size_t</text>
<polyline fill="none" stroke="black" points="2252,-642 2722,-642 "/>
<text text-anchor="middle" x="2487" y="-626.3" font-family="Times,serif" font-size="14.00">+textureInfo()</text>
<text text-anchor="middle" x="2487" y="-611.3" font-family="Times,serif" font-size="14.00">+textureInfo(const nlohmann::json &amp;, std::vector&lt;Texture&gt; &amp;)</text>
</g>
<!-- Blob.glTF2.Material.textureInfo&#45;&gt;Blob.glTF2.Material.PbrMetallicRoughness -->
<g id="edge12" class="edge">
<title>Blob.glTF2.Material.textureInfo&#45;&gt;Blob.glTF2.Material.PbrMetallicRoughness</title>
<path fill="none" stroke="black" d="M2383.71,-597.31C2352.33,-577.49 2317.87,-555.42 2286.47,-535.05"/>
<polygon fill="black" stroke="black" points="2382.14,-600.46 2392.47,-602.84 2385.88,-594.54 2382.14,-600.46"/>
<polygon fill="none" stroke="black" points="2286.46,-535.04 2279.25,-535.13 2276.4,-528.5 2283.61,-528.42 2286.46,-535.04"/>
</g>
<!-- Blob.glTF2.Material.textureInfo&#45;&gt;Blob.glTF2.Material.PbrMetallicRoughness -->
<g id="edge13" class="edge">
<title>Blob.glTF2.Material.textureInfo&#45;&gt;Blob.glTF2.Material.PbrMetallicRoughness</title>
<path fill="none" stroke="black" d="M2396.39,-597.31C2365.97,-577.49 2331.62,-555.42 2299.5,-535.05"/>
<polygon fill="black" stroke="black" points="2394.57,-600.3 2404.86,-602.84 2398.39,-594.44 2394.57,-600.3"/>
<polygon fill="none" stroke="black" points="2299.3,-534.92 2292.09,-535.09 2289.16,-528.5 2296.37,-528.33 2299.3,-534.92"/>
</g>
<!-- Blob.glTF2.Material.textureInfo&#45;&gt;Blob.glTF2.Material -->
<g id="edge14" class="edge">
<title>Blob.glTF2.Material.textureInfo&#45;&gt;Blob.glTF2.Material</title>
<path fill="none" stroke="black" d="M2474.87,-592.74C2467.53,-532.3 2466.13,-443.18 2506,-379 2519.73,-356.89 2561.13,-329.29 2607.51,-303.42"/>
<polygon fill="black" stroke="black" points="2471.43,-593.46 2476.19,-602.93 2478.37,-592.56 2471.43,-593.46"/>
<polygon fill="none" stroke="black" points="2607.6,-303.38 2610.92,-296.98 2618.11,-297.59 2614.78,-303.99 2607.6,-303.38"/>
</g>
<!-- Blob.glTF2.Material.textureInfo&#45;&gt;Blob.glTF2.Material.normalTextureInfo -->
<g id="edge15" class="edge">
<title>Blob.glTF2.Material.textureInfo&#45;&gt;Blob.glTF2.Material.normalTextureInfo</title>
<path fill="none" stroke="black" d="M2579.41,-597.15C2623.51,-567.39 2675.08,-532.59 2714.34,-506.1"/>
<polygon fill="none" stroke="black" points="2577.31,-594.34 2570.98,-602.84 2581.23,-600.14 2577.31,-594.34"/>
</g>
<!-- Blob.glTF2.Material.textureInfo&#45;&gt;Blob.glTF2.Material.occlusionTextureInfo -->
<g id="edge16" class="edge">
<title>Blob.glTF2.Material.textureInfo&#45;&gt;Blob.glTF2.Material.occlusionTextureInfo</title>
<path fill="none" stroke="black" d="M2732.05,-615.84C2830.14,-597.01 2943.88,-573.46 3046,-548 3095.02,-535.78 3148.28,-520.32 3194.94,-506.04"/>
<polygon fill="none" stroke="black" points="2731.17,-612.45 2722,-617.76 2732.48,-619.32 2731.17,-612.45"/>
</g>
<!-- Blob.glTF2.Mesh.Primitive -->
<g id="node14" class="node">
<title>Blob.glTF2.Mesh.Primitive</title>
<polygon fill="none" stroke="black" points="3611.5,-379.5 3611.5,-547.5 3894.5,-547.5 3894.5,-379.5 3611.5,-379.5"/>
<text text-anchor="middle" x="3753" y="-532.3" font-family="Times,serif" font-size="14.00">Blob::Core::Mesh</text>
<polyline fill="none" stroke="black" points="3611.5,-524.5 3894.5,-524.5 "/>
<text text-anchor="middle" x="3753" y="-509.3" font-family="Times,serif" font-size="14.00">Primitive</text>
<polyline fill="none" stroke="black" points="3611.5,-501.5 3894.5,-501.5 "/>
<text text-anchor="middle" x="3753" y="-486.3" font-family="Times,serif" font-size="14.00">+indices : int</text>
<text text-anchor="middle" x="3753" y="-471.3" font-family="Times,serif" font-size="14.00">+material : int</text>
<text text-anchor="middle" x="3753" y="-456.3" font-family="Times,serif" font-size="14.00">+mode : int</text>
<text text-anchor="middle" x="3753" y="-441.3" font-family="Times,serif" font-size="14.00">+vao : GL::VertexArrayObject</text>
<text text-anchor="middle" x="3753" y="-426.3" font-family="Times,serif" font-size="14.00">+attributeDescriptor : uint8_t</text>
<text text-anchor="middle" x="3753" y="-411.3" font-family="Times,serif" font-size="14.00">+indicesArray : std::vector&lt;uint8_t&gt;</text>
<polyline fill="none" stroke="black" points="3611.5,-403.5 3894.5,-403.5 "/>
<text text-anchor="middle" x="3753" y="-387.8" font-family="Times,serif" font-size="14.00">+Primitive()</text>
</g>
<!-- Blob.glTF2.Mesh -->
<g id="node15" class="node">
<title>Blob.glTF2.Mesh</title>
<polygon fill="none" stroke="black" points="3019,-171 3019,-271 4221,-271 4221,-171 3019,-171"/>
<text text-anchor="middle" x="3620" y="-255.8" font-family="Times,serif" font-size="14.00">Mesh</text>
<polyline fill="none" stroke="black" points="3019,-248 4221,-248 "/>
<text text-anchor="middle" x="3620" y="-232.8" font-family="Times,serif" font-size="14.00">+weights : std::vector&lt;int&gt;</text>
<text text-anchor="middle" x="3620" y="-217.8" font-family="Times,serif" font-size="14.00">+name : std::string</text>
<polyline fill="none" stroke="black" points="3019,-210 4221,-210 "/>
<text text-anchor="middle" x="3620" y="-194.3" font-family="Times,serif" font-size="14.00">+Mesh()</text>
<text text-anchor="middle" x="3620" y="-179.3" font-family="Times,serif" font-size="14.00">+Mesh(const nlohmann::json &amp;, std::vector&lt;glTF2::Accessor&gt; &amp;, std::vector&lt;glTF2::Buffer&gt; &amp;, std::vector&lt;glTF2::BufferView&gt; &amp;, std::vector&lt;glTF2::Material&gt; &amp;)</text>
</g>
<!-- Blob.glTF2.Mesh.Primitive&#45;&gt;Blob.glTF2.Mesh -->
<g id="edge17" class="edge">
<title>Blob.glTF2.Mesh.Primitive&#45;&gt;Blob.glTF2.Mesh</title>
<path fill="none" stroke="black" d="M3702.08,-370.42C3685.64,-340.7 3667.87,-308.56 3653.07,-281.81"/>
<polygon fill="black" stroke="black" points="3699.14,-372.34 3707.04,-379.4 3705.27,-368.95 3699.14,-372.34"/>
<polygon fill="none" stroke="black" points="3652.95,-281.58 3646.54,-278.26 3647.14,-271.08 3653.54,-274.39 3652.95,-281.58"/>
</g>
<!-- Blob.glTF2.Mesh&#45;&gt;Blob.glTF2.SceneManager -->
<g id="edge18" class="edge">
<title>Blob.glTF2.Mesh&#45;&gt;Blob.glTF2.SceneManager</title>
<path fill="none" stroke="black" d="M3401.54,-168.81C3285.81,-143.69 3140.9,-115.38 3010,-99 2616.61,-49.77 2149.06,-36.93 1913.22,-33.62"/>
<polygon fill="black" stroke="black" points="3401.06,-172.29 3411.58,-171 3402.55,-165.45 3401.06,-172.29"/>
<polygon fill="none" stroke="black" points="1913.12,-33.62 1907.07,-37.54 1901.13,-33.46 1907.18,-29.54 1913.12,-33.62"/>
</g>
<!-- Blob.glTF2.Mesh.Primitive.Attribute -->
<g id="node16" class="node">
<title>Blob.glTF2.Mesh.Primitive.Attribute</title>
<polygon fill="none" stroke="black" points="3672.5,-584.5 3672.5,-736.5 3833.5,-736.5 3833.5,-584.5 3672.5,-584.5"/>
<text text-anchor="middle" x="3753" y="-721.3" font-family="Times,serif" font-size="14.00">Attribute</text>
<polyline fill="none" stroke="black" points="3672.5,-713.5 3833.5,-713.5 "/>
<text text-anchor="middle" x="3753" y="-697.8" font-family="Times,serif" font-size="14.00">+POSITION : int</text>
<text text-anchor="middle" x="3753" y="-682.8" font-family="Times,serif" font-size="14.00">+NORMAL : int</text>
<text text-anchor="middle" x="3753" y="-667.8" font-family="Times,serif" font-size="14.00">+TANGENT : int</text>
<text text-anchor="middle" x="3753" y="-652.8" font-family="Times,serif" font-size="14.00">+TEXCOORD_0 : int</text>
<text text-anchor="middle" x="3753" y="-637.8" font-family="Times,serif" font-size="14.00">+TEXCOORD_1 : int</text>
<text text-anchor="middle" x="3753" y="-622.8" font-family="Times,serif" font-size="14.00">+COLOR_0 : int</text>
<text text-anchor="middle" x="3753" y="-607.8" font-family="Times,serif" font-size="14.00">+JOINTS_0 : int</text>
<text text-anchor="middle" x="3753" y="-592.8" font-family="Times,serif" font-size="14.00">+WEIGHTS_0 : int</text>
</g>
<!-- Blob.glTF2.Mesh.Primitive.Attribute&#45;&gt;Blob.glTF2.Mesh.Primitive -->
<g id="edge19" class="edge">
<title>Blob.glTF2.Mesh.Primitive.Attribute&#45;&gt;Blob.glTF2.Mesh.Primitive</title>
<path fill="none" stroke="black" d="M3753,-574.15C3753,-569.48 3753,-564.78 3753,-560.08"/>
<polygon fill="black" stroke="black" points="3749.5,-574.39 3753,-584.39 3756.5,-574.39 3749.5,-574.39"/>
<polygon fill="none" stroke="black" points="3753,-559.68 3749,-553.68 3753,-547.68 3757,-553.68 3753,-559.68"/>
</g>
<!-- Blob.glTF2.Node -->
<g id="node17" class="node">
<title>Blob.glTF2.Node</title>
<polygon fill="none" stroke="black" points="4239.5,-99.5 4239.5,-342.5 4700.5,-342.5 4700.5,-99.5 4239.5,-99.5"/>
<text text-anchor="middle" x="4470" y="-327.3" font-family="Times,serif" font-size="14.00">Blob::Core::Shape</text>
<polyline fill="none" stroke="black" points="4239.5,-319.5 4700.5,-319.5 "/>
<text text-anchor="middle" x="4470" y="-304.3" font-family="Times,serif" font-size="14.00">Node</text>
<polyline fill="none" stroke="black" points="4239.5,-296.5 4700.5,-296.5 "/>
<text text-anchor="middle" x="4470" y="-281.3" font-family="Times,serif" font-size="14.00">&#45;camera : int</text>
<text text-anchor="middle" x="4470" y="-266.3" font-family="Times,serif" font-size="14.00">&#45;children : std::vector&lt;int&gt;</text>
<text text-anchor="middle" x="4470" y="-251.3" font-family="Times,serif" font-size="14.00">&#45;skin : int</text>
<text text-anchor="middle" x="4470" y="-236.3" font-family="Times,serif" font-size="14.00">&#45;matrix : std::array&lt;float, 16&gt;</text>
<text text-anchor="middle" x="4470" y="-221.3" font-family="Times,serif" font-size="14.00">&#45;mesh : int</text>
<text text-anchor="middle" x="4470" y="-206.3" font-family="Times,serif" font-size="14.00">&#45;rotation : std::array&lt;float, 4&gt;</text>
<text text-anchor="middle" x="4470" y="-191.3" font-family="Times,serif" font-size="14.00">&#45;scale : std::array&lt;float, 3&gt;</text>
<text text-anchor="middle" x="4470" y="-176.3" font-family="Times,serif" font-size="14.00">&#45;translation : std::array&lt;float, 3&gt;</text>
<text text-anchor="middle" x="4470" y="-161.3" font-family="Times,serif" font-size="14.00">&#45;weights : std::vector&lt;float&gt;</text>
<text text-anchor="middle" x="4470" y="-146.3" font-family="Times,serif" font-size="14.00">&#45;name : std::string</text>
<polyline fill="none" stroke="black" points="4239.5,-138.5 4700.5,-138.5 "/>
<text text-anchor="middle" x="4470" y="-122.8" font-family="Times,serif" font-size="14.00">+Node(const nlohmann::json &amp;, std::vector&lt;glTF2::Mesh&gt; &amp;)</text>
<text text-anchor="middle" x="4470" y="-107.8" font-family="Times,serif" font-size="14.00">+updateChild(std::vector&lt;Node&gt; &amp;)</text>
</g>
<!-- Blob.glTF2.Node&#45;&gt;Blob.glTF2.SceneManager -->
<g id="edge20" class="edge">
<title>Blob.glTF2.Node&#45;&gt;Blob.glTF2.SceneManager</title>
<path fill="none" stroke="black" d="M4229.19,-99.12C3964.47,-42.44 2409.71,-34.03 1913.25,-32.73"/>
<polygon fill="black" stroke="black" points="4228.65,-102.59 4239.18,-101.44 4230.23,-95.77 4228.65,-102.59"/>
<polygon fill="none" stroke="black" points="1913.01,-32.73 1907,-36.72 1901.01,-32.7 1907.02,-28.72 1913.01,-32.73"/>
</g>
<!-- Blob.glTF2.Scene -->
<g id="node18" class="node">
<title>Blob.glTF2.Scene</title>
<polygon fill="none" stroke="black" points="4719,-167 4719,-275 5177,-275 5177,-167 4719,-167"/>
<text text-anchor="middle" x="4948" y="-259.8" font-family="Times,serif" font-size="14.00">Blob::Core::Scene</text>
<polyline fill="none" stroke="black" points="4719,-252 5177,-252 "/>
<text text-anchor="middle" x="4948" y="-236.8" font-family="Times,serif" font-size="14.00">Scene</text>
<polyline fill="none" stroke="black" points="4719,-229 5177,-229 "/>
<text text-anchor="middle" x="4948" y="-213.8" font-family="Times,serif" font-size="14.00">+nodes : std::vector&lt;int&gt;</text>
<text text-anchor="middle" x="4948" y="-198.8" font-family="Times,serif" font-size="14.00">+name : std::string</text>
<polyline fill="none" stroke="black" points="4719,-191 5177,-191 "/>
<text text-anchor="middle" x="4948" y="-175.3" font-family="Times,serif" font-size="14.00">+Scene(const nlohmann::json &amp;, const std::vector&lt;Node&gt; &amp;)</text>
</g>
<!-- Blob.glTF2.Scene&#45;&gt;Blob.glTF2.SceneManager -->
<g id="edge21" class="edge">
<title>Blob.glTF2.Scene&#45;&gt;Blob.glTF2.SceneManager</title>
<path fill="none" stroke="black" d="M4857.13,-161.9C4814.01,-137.57 4760.7,-111.96 4709,-99 4437.58,-30.96 2479.5,-30.64 1913.71,-31.99"/>
<polygon fill="black" stroke="black" points="4855.47,-164.98 4865.89,-166.9 4858.94,-158.9 4855.47,-164.98"/>
<polygon fill="none" stroke="black" points="1913.42,-31.99 1907.43,-36 1901.42,-32.02 1907.41,-28 1913.42,-31.99"/>
</g>
<!-- Blob.glTF2.TypeInfo -->
<g id="node19" class="node">
<title>Blob.glTF2.TypeInfo</title>
<polygon fill="none" stroke="black" points="3852,-629.5 3852,-691.5 4032,-691.5 4032,-629.5 3852,-629.5"/>
<text text-anchor="middle" x="3942" y="-676.3" font-family="Times,serif" font-size="14.00">TypeInfo</text>
<polyline fill="none" stroke="black" points="3852,-668.5 4032,-668.5 "/>
<text text-anchor="middle" x="3942" y="-652.8" font-family="Times,serif" font-size="14.00">+name : const char *</text>
<text text-anchor="middle" x="3942" y="-637.8" font-family="Times,serif" font-size="14.00">+type : Accessor::Type</text>
</g>
</g>
</svg>
