<?xml version="1.0" encoding="UTF-8" standalone="no"?>
<!DOCTYPE svg PUBLIC "-//W3C//DTD SVG 1.1//EN"
 "http://www.w3.org/Graphics/SVG/1.1/DTD/svg11.dtd">
<!-- Generated by graphviz version 2.44.1 (0)
 -->
<!-- Pages: 1 -->
<svg width="2528pt" height="395pt"
 viewBox="0.00 0.00 2528.00 395.00" xmlns="http://www.w3.org/2000/svg" xmlns:xlink="http://www.w3.org/1999/xlink">
<g id="graph0" class="graph" transform="scale(1 1) rotate(0) translate(4 391)">
<polygon fill="white" stroke="transparent" points="-4,4 -4,-391 2524,-391 2524,4 -4,4"/>
<!-- Blob.Material.Color -->
<g id="node1" class="node">
<title>Blob.Material.Color</title>
<polygon fill="none" stroke="black" points="223.5,-226.5 223.5,-386.5 528.5,-386.5 528.5,-226.5 223.5,-226.5"/>
<text text-anchor="middle" x="376" y="-371.3" font-family="Times,serif" font-size="14.00">Color</text>
<polyline fill="none" stroke="black" points="223.5,-363.5 528.5,-363.5 "/>
<text text-anchor="middle" x="376" y="-348.3" font-family="Times,serif" font-size="14.00">+R : float</text>
<text text-anchor="middle" x="376" y="-333.3" font-family="Times,serif" font-size="14.00">+G : float</text>
<text text-anchor="middle" x="376" y="-318.3" font-family="Times,serif" font-size="14.00">+B : float</text>
<text text-anchor="middle" x="376" y="-303.3" font-family="Times,serif" font-size="14.00">+A : float</text>
<polyline fill="none" stroke="black" points="223.5,-295.5 528.5,-295.5 "/>
<text text-anchor="middle" x="376" y="-279.8" font-family="Times,serif" font-size="14.00">+Color()</text>
<text text-anchor="middle" x="376" y="-264.8" font-family="Times,serif" font-size="14.00">+Color(uint8_t, uint8_t, uint8_t, uint8_t)</text>
<text text-anchor="middle" x="376" y="-249.8" font-family="Times,serif" font-size="14.00">+Color(uint32_t)</text>
<text text-anchor="middle" x="376" y="-234.8" font-family="Times,serif" font-size="14.00">+Color(float, float, float, float)</text>
</g>
<!-- Blob.Material.Light -->
<g id="node2" class="node">
<title>Blob.Material.Light</title>
<polygon fill="none" stroke="black" points="0,-72 0,-119 168,-119 168,-72 0,-72"/>
<text text-anchor="middle" x="84" y="-103.8" font-family="Times,serif" font-size="14.00">Light</text>
<polyline fill="none" stroke="black" points="0,-96 168,-96 "/>
<text text-anchor="middle" x="84" y="-80.3" font-family="Times,serif" font-size="14.00">+position : glm::vec3</text>
</g>
<!-- Blob.Material.Color&#45;&gt;Blob.Material.Light -->
<g id="edge1" class="edge">
<title>Blob.Material.Color&#45;&gt;Blob.Material.Light</title>
<path fill="none" stroke="black" d="M221.08,-221.51C205.81,-211.61 190.86,-201.2 177,-190.5 152.79,-171.81 128.6,-147.13 110.96,-127.74"/>
<polygon fill="black" stroke="black" points="219.28,-224.51 229.59,-226.96 223.06,-218.62 219.28,-224.51"/>
<polygon fill="none" stroke="black" points="110.86,-127.63 103.88,-125.84 102.85,-118.7 109.83,-120.5 110.86,-127.63"/>
</g>
<!-- Blob.Material.SingleColorMaterial -->
<g id="node3" class="node">
<title>Blob.Material.SingleColorMaterial</title>
<polygon fill="none" stroke="black" points="186,-8 186,-183 952,-183 952,-8 186,-8"/>
<text text-anchor="middle" x="569" y="-167.8" font-family="Times,serif" font-size="14.00">SingleColorMaterial</text>
<polyline fill="none" stroke="black" points="186,-160 952,-160 "/>
<text text-anchor="middle" x="569" y="-144.8" font-family="Times,serif" font-size="14.00">+metallic : float</text>
<text text-anchor="middle" x="569" y="-129.8" font-family="Times,serif" font-size="14.00">+roughness : float</text>
<text text-anchor="middle" x="569" y="-114.8" font-family="Times,serif" font-size="14.00">+ao : float</text>
<text text-anchor="middle" x="569" y="-99.8" font-family="Times,serif" font-size="14.00">+options : uint32_t</text>
<polyline fill="none" stroke="black" points="186,-92 952,-92 "/>
<text text-anchor="middle" x="569" y="-76.3" font-family="Times,serif" font-size="14.00">&#45;applyMaterial(const ProjectionTransform &amp;, const ViewTransform &amp;, const glm::mat4 &amp;)</text>
<text text-anchor="middle" x="569" y="-61.3" font-family="Times,serif" font-size="14.00">+SingleColorMaterial()</text>
<text text-anchor="middle" x="569" y="-46.3" font-family="Times,serif" font-size="14.00">+SingleColorMaterial(Blob::Material::Color)</text>
<text text-anchor="middle" x="569" y="-31.3" font-family="Times,serif" font-size="14.00">+init()</text>
<text text-anchor="middle" x="569" y="-16.3" font-family="Times,serif" font-size="14.00">+destroy()</text>
</g>
<!-- Blob.Material.Color&#45;&gt;Blob.Material.SingleColorMaterial -->
<g id="edge2" class="edge">
<title>Blob.Material.Color&#45;&gt;Blob.Material.SingleColorMaterial</title>
<path fill="none" stroke="black" d="M455.57,-219.33C463.92,-210.29 472.44,-201.07 480.87,-191.93"/>
<polygon fill="black" stroke="black" points="452.9,-217.06 448.69,-226.78 458.05,-221.81 452.9,-217.06"/>
<polygon fill="none" stroke="black" points="481.13,-191.65 482.26,-184.53 489.27,-182.84 488.14,-189.96 481.13,-191.65"/>
</g>
<!-- Blob.Material.Material -->
<g id="node4" class="node">
<title>Blob.Material.Material</title>
<polygon fill="none" stroke="black" points="966.5,-264 966.5,-349 1739.5,-349 1739.5,-264 966.5,-264"/>
<text text-anchor="middle" x="1353" y="-333.8" font-family="Times,serif" font-size="14.00">Material</text>
<polyline fill="none" stroke="black" points="966.5,-326 1739.5,-326 "/>
<text text-anchor="middle" x="1353" y="-310.8" font-family="Times,serif" font-size="14.00">&#45;shaderProgramPrivate : const GL::ShaderProgram &amp;</text>
<polyline fill="none" stroke="black" points="966.5,-303 1739.5,-303 "/>
<text text-anchor="middle" x="1353" y="-287.3" font-family="Times,serif" font-size="14.00">+applyMaterial(const ProjectionTransform &amp;, const ViewTransform &amp;, const glm::mat4 &amp;)</text>
<text text-anchor="middle" x="1353" y="-272.3" font-family="Times,serif" font-size="14.00">+Material(const GL::ShaderProgram &amp;)</text>
</g>
<!-- Blob.Material.Material&#45;&gt;Blob.Material.SingleColorMaterial -->
<g id="edge3" class="edge">
<title>Blob.Material.Material&#45;&gt;Blob.Material.SingleColorMaterial</title>
<path fill="none" stroke="black" d="M1189.2,-261.83C1102.9,-238.83 994.01,-209.8 891.64,-182.51"/>
<polygon fill="none" stroke="black" points="1188.43,-265.25 1199,-264.46 1190.25,-258.49 1188.43,-265.25"/>
</g>
<!-- Blob.Material.DefaultMaterial -->
<g id="node5" class="node">
<title>Blob.Material.DefaultMaterial</title>
<polygon fill="none" stroke="black" points="1754,-49.5 1754,-141.5 2520,-141.5 2520,-49.5 1754,-49.5"/>
<text text-anchor="middle" x="2137" y="-126.3" font-family="Times,serif" font-size="14.00">DefaultMaterial</text>
<polyline fill="none" stroke="black" points="1754,-118.5 2520,-118.5 "/>
<text text-anchor="middle" x="2137" y="-102.8" font-family="Times,serif" font-size="14.00">&#45;applyMaterial(const ProjectionTransform &amp;, const ViewTransform &amp;, const glm::mat4 &amp;)</text>
<text text-anchor="middle" x="2137" y="-87.8" font-family="Times,serif" font-size="14.00">+DefaultMaterial()</text>
<text text-anchor="middle" x="2137" y="-72.8" font-family="Times,serif" font-size="14.00">+init()</text>
<text text-anchor="middle" x="2137" y="-57.8" font-family="Times,serif" font-size="14.00">+destroy()</text>
</g>
<!-- Blob.Material.Material&#45;&gt;Blob.Material.DefaultMaterial -->
<g id="edge4" class="edge">
<title>Blob.Material.Material&#45;&gt;Blob.Material.DefaultMaterial</title>
<path fill="none" stroke="black" d="M1516.8,-261.83C1649.7,-226.42 1836.1,-176.71 1969.8,-141.06"/>
<polygon fill="none" stroke="black" points="1515.75,-258.49 1507,-264.46 1517.57,-265.25 1515.75,-258.49"/>
</g>
<!-- Blob.Material.SingleTextureMaterial -->
<g id="node6" class="node">
<title>Blob.Material.SingleTextureMaterial</title>
<polygon fill="none" stroke="black" points="970,-0.5 970,-190.5 1736,-190.5 1736,-0.5 970,-0.5"/>
<text text-anchor="middle" x="1353" y="-175.3" font-family="Times,serif" font-size="14.00">SingleTextureMaterial</text>
<polyline fill="none" stroke="black" points="970,-167.5 1736,-167.5 "/>
<text text-anchor="middle" x="1353" y="-152.3" font-family="Times,serif" font-size="14.00">+texture : const Blob::GL::Texture &amp;</text>
<text text-anchor="middle" x="1353" y="-137.3" font-family="Times,serif" font-size="14.00">+metallic : float</text>
<text text-anchor="middle" x="1353" y="-122.3" font-family="Times,serif" font-size="14.00">+roughness : float</text>
<text text-anchor="middle" x="1353" y="-107.3" font-family="Times,serif" font-size="14.00">+ao : float</text>
<text text-anchor="middle" x="1353" y="-92.3" font-family="Times,serif" font-size="14.00">+options : uint32_t</text>
<text text-anchor="middle" x="1353" y="-77.3" font-family="Times,serif" font-size="14.00">+texScale : float [2]</text>
<polyline fill="none" stroke="black" points="970,-69.5 1736,-69.5 "/>
<text text-anchor="middle" x="1353" y="-53.8" font-family="Times,serif" font-size="14.00">&#45;applyMaterial(const ProjectionTransform &amp;, const ViewTransform &amp;, const glm::mat4 &amp;)</text>
<text text-anchor="middle" x="1353" y="-38.8" font-family="Times,serif" font-size="14.00">+SingleTextureMaterial(const Blob::GL::Texture &amp;)</text>
<text text-anchor="middle" x="1353" y="-23.8" font-family="Times,serif" font-size="14.00">+init()</text>
<text text-anchor="middle" x="1353" y="-8.8" font-family="Times,serif" font-size="14.00">+destroy()</text>
</g>
<!-- Blob.Material.Material&#45;&gt;Blob.Material.SingleTextureMaterial -->
<g id="edge5" class="edge">
<title>Blob.Material.Material&#45;&gt;Blob.Material.SingleTextureMaterial</title>
<path fill="none" stroke="black" d="M1353,-254.11C1353,-234.74 1353,-212.05 1353,-190.02"/>
<polygon fill="none" stroke="black" points="1349.5,-254.21 1353,-264.21 1356.5,-254.21 1349.5,-254.21"/>
</g>
<!-- Blob.Material.LightPos -->
<g id="node7" class="node">
<title>Blob.Material.LightPos</title>
<polygon fill="none" stroke="black" points="1757.5,-275.5 1757.5,-337.5 1876.5,-337.5 1876.5,-275.5 1757.5,-275.5"/>
<text text-anchor="middle" x="1817" y="-322.3" font-family="Times,serif" font-size="14.00">LightPos</text>
<polyline fill="none" stroke="black" points="1757.5,-314.5 1876.5,-314.5 "/>
<text text-anchor="middle" x="1817" y="-298.8" font-family="Times,serif" font-size="14.00">+position : int</text>
<text text-anchor="middle" x="1817" y="-283.8" font-family="Times,serif" font-size="14.00">+color : int</text>
</g>
<!-- Blob.Material.PBRMaterial -->
<g id="node8" class="node">
<title>Blob.Material.PBRMaterial</title>
<polygon fill="none" stroke="black" points="677,-288 677,-325 785,-325 785,-288 677,-288"/>
<text text-anchor="middle" x="731" y="-302.8" font-family="Times,serif" font-size="14.00">PBRMaterial</text>
</g>
<!-- Blob.Material.PBRMaterial&#45;&gt;Blob.Material.SingleColorMaterial -->
<g id="edge6" class="edge">
<title>Blob.Material.PBRMaterial&#45;&gt;Blob.Material.SingleColorMaterial</title>
<path fill="none" stroke="black" d="M711.56,-280.42C692.74,-256.14 663.13,-217.93 635.75,-182.62"/>
<polygon fill="none" stroke="black" points="708.85,-282.64 717.74,-288.4 714.38,-278.35 708.85,-282.64"/>
</g>
<!-- Blob.Material.PBRMaterial&#45;&gt;Blob.Material.SingleTextureMaterial -->
<g id="edge7" class="edge">
<title>Blob.Material.PBRMaterial&#45;&gt;Blob.Material.SingleTextureMaterial</title>
<path fill="none" stroke="black" d="M788.65,-285.13C834.48,-269.02 900.25,-246.05 958,-226.5 993.22,-214.58 1030.3,-202.19 1066.9,-190.01"/>
<polygon fill="none" stroke="black" points="787.46,-281.84 779.19,-288.46 789.78,-288.44 787.46,-281.84"/>
</g>
</g>
</svg>
