<?xml version="1.0" encoding="UTF-8" standalone="no"?>
<!DOCTYPE svg PUBLIC "-//W3C//DTD SVG 1.1//EN"
 "http://www.w3.org/Graphics/SVG/1.1/DTD/svg11.dtd">
<!-- Generated by graphviz version 2.44.1 (0)
 -->
<!-- Pages: 1 -->
<svg width="1140pt" height="101pt"
 viewBox="0.00 0.00 1139.50 101.00" xmlns="http://www.w3.org/2000/svg" xmlns:xlink="http://www.w3.org/1999/xlink">
<g id="graph0" class="graph" transform="scale(1 1) rotate(0) translate(4 97)">
<polygon fill="white" stroke="transparent" points="-4,4 -4,-97 1135.5,-97 1135.5,4 -4,4"/>
<!-- Blob.Shapes.Cube -->
<g id="node1" class="node">
<title>Blob.Shapes.Cube</title>
<polygon fill="none" stroke="black" points="0,-11.5 0,-81.5 266,-81.5 266,-11.5 0,-11.5"/>
<text text-anchor="middle" x="133" y="-66.3" font-family="Times,serif" font-size="14.00">Blob::Core::Mesh</text>
<polyline fill="none" stroke="black" points="0,-58.5 266,-58.5 "/>
<text text-anchor="middle" x="133" y="-43.3" font-family="Times,serif" font-size="14.00">Cube</text>
<polyline fill="none" stroke="black" points="0,-35.5 266,-35.5 "/>
<text text-anchor="middle" x="133" y="-19.8" font-family="Times,serif" font-size="14.00">+Cube(const Material::Material &amp;)</text>
</g>
<!-- Blob.Shapes.Plane -->
<g id="node2" class="node">
<title>Blob.Shapes.Plane</title>
<polygon fill="none" stroke="black" points="284.5,-11.5 284.5,-81.5 553.5,-81.5 553.5,-11.5 284.5,-11.5"/>
<text text-anchor="middle" x="419" y="-66.3" font-family="Times,serif" font-size="14.00">Blob::Core::Mesh</text>
<polyline fill="none" stroke="black" points="284.5,-58.5 553.5,-58.5 "/>
<text text-anchor="middle" x="419" y="-43.3" font-family="Times,serif" font-size="14.00">Plane</text>
<polyline fill="none" stroke="black" points="284.5,-35.5 553.5,-35.5 "/>
<text text-anchor="middle" x="419" y="-19.8" font-family="Times,serif" font-size="14.00">+Plane(const Material::Material &amp;)</text>
</g>
<!-- Blob.Shapes.OctagonalPrism -->
<g id="node3" class="node">
<title>Blob.Shapes.OctagonalPrism</title>
<polygon fill="none" stroke="black" points="572,-11.5 572,-81.5 916,-81.5 916,-11.5 572,-11.5"/>
<text text-anchor="middle" x="744" y="-66.3" font-family="Times,serif" font-size="14.00">Blob::Core::Mesh</text>
<polyline fill="none" stroke="black" points="572,-58.5 916,-58.5 "/>
<text text-anchor="middle" x="744" y="-43.3" font-family="Times,serif" font-size="14.00">OctagonalPrism</text>
<polyline fill="none" stroke="black" points="572,-35.5 916,-35.5 "/>
<text text-anchor="middle" x="744" y="-19.8" font-family="Times,serif" font-size="14.00">+OctagonalPrism(const Material::Material &amp;)</text>
</g>
<!-- Blob.Shapes.Data -->
<g id="node4" class="node">
<title>Blob.Shapes.Data</title>
<polygon fill="none" stroke="black" points="934.5,-0.5 934.5,-92.5 1131.5,-92.5 1131.5,-0.5 934.5,-0.5"/>
<text text-anchor="middle" x="1033" y="-77.3" font-family="Times,serif" font-size="14.00">Data</text>
<polyline fill="none" stroke="black" points="934.5,-69.5 1131.5,-69.5 "/>
<text text-anchor="middle" x="1033" y="-53.8" font-family="Times,serif" font-size="14.00">+POSITION : float [3]</text>
<text text-anchor="middle" x="1033" y="-38.8" font-family="Times,serif" font-size="14.00">+NORMAL : float [3]</text>
<text text-anchor="middle" x="1033" y="-23.8" font-family="Times,serif" font-size="14.00">+TANGENT : float [3]</text>
<text text-anchor="middle" x="1033" y="-8.8" font-family="Times,serif" font-size="14.00">+TEXCOORD_0 : float [3]</text>
</g>
</g>
</svg>
