<?xml version="1.0" encoding="UTF-8" standalone="no"?>
<!DOCTYPE svg PUBLIC "-//W3C//DTD SVG 1.1//EN"
 "http://www.w3.org/Graphics/SVG/1.1/DTD/svg11.dtd">
<!-- Generated by graphviz version 2.44.1 (0)
 -->
<!-- Pages: 1 -->
<svg width="1697pt" height="742pt"
 viewBox="0.00 0.00 1696.50 742.00" xmlns="http://www.w3.org/2000/svg" xmlns:xlink="http://www.w3.org/1999/xlink">
<g id="graph0" class="graph" transform="scale(1 1) rotate(0) translate(4 738)">
<polygon fill="white" stroke="transparent" points="-4,4 -4,-738 1692.5,-738 1692.5,4 -4,4"/>
<!-- Blob.Collision.CollisionDetector -->
<g id="node1" class="node">
<title>Blob.Collision.CollisionDetector</title>
<polygon fill="none" stroke="black" points="0,-513.5 0,-733.5 1052,-733.5 1052,-513.5 0,-513.5"/>
<text text-anchor="middle" x="526" y="-718.3" font-family="Times,serif" font-size="14.00">CollisionDetector</text>
<polyline fill="none" stroke="black" points="0,-710.5 1052,-710.5 "/>
<text text-anchor="middle" x="526" y="-695.3" font-family="Times,serif" font-size="14.00">&#45;timeStoped : bool</text>
<polyline fill="none" stroke="black" points="0,-687.5 1052,-687.5 "/>
<text text-anchor="middle" x="526" y="-671.8" font-family="Times,serif" font-size="14.00">&#45;hashCoor(int) : uint64_t</text>
<text text-anchor="middle" x="526" y="-656.8" font-family="Times,serif" font-size="14.00">&#45;unhashCoor(uint64_t) : int</text>
<text text-anchor="middle" x="526" y="-641.8" font-family="Times,serif" font-size="14.00">&#45;addToSpacialHash(int, Blob::Collision::Object *)</text>
<text text-anchor="middle" x="526" y="-626.8" font-family="Times,serif" font-size="14.00">&#45;removeFromSpacialHash(int, Blob::Collision::Object *)</text>
<text text-anchor="middle" x="526" y="-611.8" font-family="Times,serif" font-size="14.00">&#45;targetOverlap(Blob::Collision::RectDynamic &amp;, int &amp;, const std::unordered_set&lt;Object *&gt; &amp;, std::unordered_map&lt;Object *, Reaction&gt; &amp;) : bool</text>
<text text-anchor="middle" x="526" y="-596.8" font-family="Times,serif" font-size="14.00">&#45;computeLocalCollision(Blob::Collision::RectDynamic &amp;, const std::unordered_set&lt;Object *&gt; &amp;, int)</text>
<text text-anchor="middle" x="526" y="-581.8" font-family="Times,serif" font-size="14.00">&#45;getPath(int, int) : std::list&lt;int64_t&gt;</text>
<text text-anchor="middle" x="526" y="-566.8" font-family="Times,serif" font-size="14.00">+checkCollision(Blob::Collision::RectDynamic &amp;)</text>
<text text-anchor="middle" x="526" y="-551.8" font-family="Times,serif" font-size="14.00">+update()</text>
<text text-anchor="middle" x="526" y="-536.8" font-family="Times,serif" font-size="14.00">+pause()</text>
<text text-anchor="middle" x="526" y="-521.8" font-family="Times,serif" font-size="14.00">+unpause()</text>
</g>
<!-- Blob.Collision.Object -->
<g id="node2" class="node">
<title>Blob.Collision.Object</title>
<polygon fill="none" stroke="black" points="1070,-551 1070,-696 1390,-696 1390,-551 1070,-551"/>
<text text-anchor="middle" x="1230" y="-680.8" font-family="Times,serif" font-size="14.00">Object</text>
<polyline fill="none" stroke="black" points="1070,-673 1390,-673 "/>
<text text-anchor="middle" x="1230" y="-657.8" font-family="Times,serif" font-size="14.00">&#45;objectType : int</text>
<text text-anchor="middle" x="1230" y="-642.8" font-family="Times,serif" font-size="14.00">#enable : bool</text>
<polyline fill="none" stroke="black" points="1070,-635 1390,-635 "/>
<text text-anchor="middle" x="1230" y="-619.3" font-family="Times,serif" font-size="14.00">#setObjectType(int)</text>
<text text-anchor="middle" x="1230" y="-604.3" font-family="Times,serif" font-size="14.00">#Object(int)</text>
<text text-anchor="middle" x="1230" y="-589.3" font-family="Times,serif" font-size="14.00">#hit(int, Blob::Collision::Object &amp;)</text>
<text text-anchor="middle" x="1230" y="-574.3" font-family="Times,serif" font-size="14.00">#getImtemsHere(int) : std::list&lt;Object *&gt;</text>
<text text-anchor="middle" x="1230" y="-559.3" font-family="Times,serif" font-size="14.00">+getObjectType() : int</text>
</g>
<!-- Blob.Collision.DynamicObject -->
<g id="node3" class="node">
<title>Blob.Collision.DynamicObject</title>
<polygon fill="none" stroke="black" points="757.5,-332.5 757.5,-477.5 942.5,-477.5 942.5,-332.5 757.5,-332.5"/>
<text text-anchor="middle" x="850" y="-462.3" font-family="Times,serif" font-size="14.00">DynamicObject</text>
<polyline fill="none" stroke="black" points="757.5,-454.5 942.5,-454.5 "/>
<text text-anchor="middle" x="850" y="-439.3" font-family="Times,serif" font-size="14.00">&#45;reaction : Reaction</text>
<text text-anchor="middle" x="850" y="-424.3" font-family="Times,serif" font-size="14.00">#speed : int</text>
<polyline fill="none" stroke="black" points="757.5,-416.5 942.5,-416.5 "/>
<text text-anchor="middle" x="850" y="-400.8" font-family="Times,serif" font-size="14.00">#DynamicObject(int)</text>
<text text-anchor="middle" x="850" y="-385.8" font-family="Times,serif" font-size="14.00">#setReaction(Reaction)</text>
<text text-anchor="middle" x="850" y="-370.8" font-family="Times,serif" font-size="14.00">#keepMoving() : bool</text>
<text text-anchor="middle" x="850" y="-355.8" font-family="Times,serif" font-size="14.00">#preCollisionUpdate()</text>
<text text-anchor="middle" x="850" y="-340.8" font-family="Times,serif" font-size="14.00">#postCollisionUpdate()</text>
</g>
<!-- Blob.Collision.Object&#45;&gt;Blob.Collision.DynamicObject -->
<g id="edge1" class="edge">
<title>Blob.Collision.Object&#45;&gt;Blob.Collision.DynamicObject</title>
<path fill="none" stroke="black" d="M1120,-545.87C1100.8,-534.16 1080.7,-522.87 1061,-513.5 1014.6,-491.38 996.95,-500.62 951,-477.5 948.22,-476.1 945.43,-474.63 942.64,-473.1"/>
<polygon fill="none" stroke="black" points="1118.45,-549.02 1128.8,-551.27 1122.11,-543.06 1118.45,-549.02"/>
</g>
<!-- Blob.Collision.CircleStatic -->
<g id="node4" class="node">
<title>Blob.Collision.CircleStatic</title>
<polygon fill="none" stroke="black" points="960.5,-340 960.5,-470 1301.5,-470 1301.5,-340 960.5,-340"/>
<text text-anchor="middle" x="1131" y="-454.8" font-family="Times,serif" font-size="14.00">CircleStatic</text>
<polyline fill="none" stroke="black" points="960.5,-447 1301.5,-447 "/>
<text text-anchor="middle" x="1131" y="-431.8" font-family="Times,serif" font-size="14.00">&#45;elementIt : std::list&lt;CircleStatic *&gt;::iterator</text>
<text text-anchor="middle" x="1131" y="-416.8" font-family="Times,serif" font-size="14.00">#mainCircle : int</text>
<polyline fill="none" stroke="black" points="960.5,-409 1301.5,-409 "/>
<text text-anchor="middle" x="1131" y="-393.3" font-family="Times,serif" font-size="14.00">#enableCollision()</text>
<text text-anchor="middle" x="1131" y="-378.3" font-family="Times,serif" font-size="14.00">#disableCollision()</text>
<text text-anchor="middle" x="1131" y="-363.3" font-family="Times,serif" font-size="14.00">#CircleStatic(const int)</text>
<text text-anchor="middle" x="1131" y="-348.3" font-family="Times,serif" font-size="14.00">#~CircleStatic()</text>
</g>
<!-- Blob.Collision.Object&#45;&gt;Blob.Collision.CircleStatic -->
<g id="edge2" class="edge">
<title>Blob.Collision.Object&#45;&gt;Blob.Collision.CircleStatic</title>
<path fill="none" stroke="black" d="M1193.1,-541.91C1182.2,-518.03 1170.4,-492.22 1160.1,-469.57"/>
<polygon fill="none" stroke="black" points="1190.06,-543.67 1197.4,-551.31 1196.42,-540.76 1190.06,-543.67"/>
</g>
<!-- Blob.Collision.RectStatic -->
<g id="node5" class="node">
<title>Blob.Collision.RectStatic</title>
<polygon fill="none" stroke="black" points="1164.5,-174 1164.5,-289 1495.5,-289 1495.5,-174 1164.5,-174"/>
<text text-anchor="middle" x="1330" y="-273.8" font-family="Times,serif" font-size="14.00">RectStatic</text>
<polyline fill="none" stroke="black" points="1164.5,-266 1495.5,-266 "/>
<text text-anchor="middle" x="1330" y="-250.8" font-family="Times,serif" font-size="14.00">&#45;elementIt : std::list&lt;RectStatic *&gt;::iterator</text>
<polyline fill="none" stroke="black" points="1164.5,-243 1495.5,-243 "/>
<text text-anchor="middle" x="1330" y="-227.3" font-family="Times,serif" font-size="14.00">#enableCollision()</text>
<text text-anchor="middle" x="1330" y="-212.3" font-family="Times,serif" font-size="14.00">#disableCollision()</text>
<text text-anchor="middle" x="1330" y="-197.3" font-family="Times,serif" font-size="14.00">+RectStatic(int, int, const int)</text>
<text text-anchor="middle" x="1330" y="-182.3" font-family="Times,serif" font-size="14.00">+~RectStatic()</text>
</g>
<!-- Blob.Collision.Object&#45;&gt;Blob.Collision.RectStatic -->
<g id="edge3" class="edge">
<title>Blob.Collision.Object&#45;&gt;Blob.Collision.RectStatic</title>
<path fill="none" stroke="black" d="M1282,-542.46C1293,-522.02 1303.3,-499.56 1310,-477.5 1328.9,-414.78 1332.3,-339.19 1332,-288.71"/>
<polygon fill="none" stroke="black" points="1278.83,-540.96 1277,-551.4 1284.94,-544.38 1278.83,-540.96"/>
</g>
<!-- Blob.Collision.LineStatic -->
<g id="node6" class="node">
<title>Blob.Collision.LineStatic</title>
<polygon fill="none" stroke="black" points="1359.5,-0.5 1359.5,-130.5 1688.5,-130.5 1688.5,-0.5 1359.5,-0.5"/>
<text text-anchor="middle" x="1524" y="-115.3" font-family="Times,serif" font-size="14.00">LineStatic</text>
<polyline fill="none" stroke="black" points="1359.5,-107.5 1688.5,-107.5 "/>
<text text-anchor="middle" x="1524" y="-92.3" font-family="Times,serif" font-size="14.00">&#45;elementIt : std::list&lt;LineStatic *&gt;::iterator</text>
<text text-anchor="middle" x="1524" y="-77.3" font-family="Times,serif" font-size="14.00">#lines : int</text>
<polyline fill="none" stroke="black" points="1359.5,-69.5 1688.5,-69.5 "/>
<text text-anchor="middle" x="1524" y="-53.8" font-family="Times,serif" font-size="14.00">#enableCollision()</text>
<text text-anchor="middle" x="1524" y="-38.8" font-family="Times,serif" font-size="14.00">#disableCollision()</text>
<text text-anchor="middle" x="1524" y="-23.8" font-family="Times,serif" font-size="14.00">#LineStatic(const int)</text>
<text text-anchor="middle" x="1524" y="-8.8" font-family="Times,serif" font-size="14.00">#~LineStatic()</text>
</g>
<!-- Blob.Collision.Object&#45;&gt;Blob.Collision.LineStatic -->
<g id="edge4" class="edge">
<title>Blob.Collision.Object&#45;&gt;Blob.Collision.LineStatic</title>
<path fill="none" stroke="black" d="M1320.5,-544.6C1384.1,-484 1464.7,-394.03 1505,-296.5 1526.9,-243.54 1530.2,-177.98 1528.9,-130.42"/>
<polygon fill="none" stroke="black" points="1318.08,-542.07 1313.2,-551.48 1322.88,-547.17 1318.08,-542.07"/>
</g>
<!-- Blob.Collision.CircleDynamic -->
<g id="node7" class="node">
<title>Blob.Collision.CircleDynamic</title>
<polygon fill="none" stroke="black" points="565.5,-166.5 565.5,-296.5 926.5,-296.5 926.5,-166.5 565.5,-166.5"/>
<text text-anchor="middle" x="746" y="-281.3" font-family="Times,serif" font-size="14.00">CircleDynamic</text>
<polyline fill="none" stroke="black" points="565.5,-273.5 926.5,-273.5 "/>
<text text-anchor="middle" x="746" y="-258.3" font-family="Times,serif" font-size="14.00">&#45;elementIt : std::list&lt;CircleDynamic *&gt;::iterator</text>
<text text-anchor="middle" x="746" y="-243.3" font-family="Times,serif" font-size="14.00">#mainCircle : int</text>
<polyline fill="none" stroke="black" points="565.5,-235.5 926.5,-235.5 "/>
<text text-anchor="middle" x="746" y="-219.8" font-family="Times,serif" font-size="14.00">#enableCollision()</text>
<text text-anchor="middle" x="746" y="-204.8" font-family="Times,serif" font-size="14.00">#disableCollision()</text>
<text text-anchor="middle" x="746" y="-189.8" font-family="Times,serif" font-size="14.00">#CircleDynamic(const int)</text>
<text text-anchor="middle" x="746" y="-174.8" font-family="Times,serif" font-size="14.00">#~CircleDynamic()</text>
</g>
<!-- Blob.Collision.DynamicObject&#45;&gt;Blob.Collision.CircleDynamic -->
<g id="edge5" class="edge">
<title>Blob.Collision.DynamicObject&#45;&gt;Blob.Collision.CircleDynamic</title>
<path fill="none" stroke="black" d="M801.59,-324.16C795.89,-314.76 790.13,-305.27 784.58,-296.13"/>
<polygon fill="none" stroke="black" points="798.62,-326.02 806.8,-332.76 804.61,-322.39 798.62,-326.02"/>
</g>
<!-- Blob.Collision.RectDynamic -->
<g id="node8" class="node">
<title>Blob.Collision.RectDynamic</title>
<polygon fill="none" stroke="black" points="778.5,-8 778.5,-123 1129.5,-123 1129.5,-8 778.5,-8"/>
<text text-anchor="middle" x="954" y="-107.8" font-family="Times,serif" font-size="14.00">RectDynamic</text>
<polyline fill="none" stroke="black" points="778.5,-100 1129.5,-100 "/>
<text text-anchor="middle" x="954" y="-84.8" font-family="Times,serif" font-size="14.00">&#45;elementIt : std::list&lt;RectDynamic *&gt;::iterator</text>
<polyline fill="none" stroke="black" points="778.5,-77 1129.5,-77 "/>
<text text-anchor="middle" x="954" y="-61.3" font-family="Times,serif" font-size="14.00">#enableCollision()</text>
<text text-anchor="middle" x="954" y="-46.3" font-family="Times,serif" font-size="14.00">#disableCollision()</text>
<text text-anchor="middle" x="954" y="-31.3" font-family="Times,serif" font-size="14.00">+RectDynamic(int, int, const int)</text>
<text text-anchor="middle" x="954" y="-16.3" font-family="Times,serif" font-size="14.00">+~RectDynamic()</text>
</g>
<!-- Blob.Collision.DynamicObject&#45;&gt;Blob.Collision.RectDynamic -->
<g id="edge6" class="edge">
<title>Blob.Collision.DynamicObject&#45;&gt;Blob.Collision.RectDynamic</title>
<path fill="none" stroke="black" d="M920.74,-324.47C926.31,-315.45 931.23,-306.06 935,-296.5 957.13,-240.41 959.8,-170.78 958.25,-122.91"/>
<polygon fill="none" stroke="black" points="917.72,-322.69 915.21,-332.98 923.59,-326.5 917.72,-322.69"/>
</g>
</g>
</svg>
