<?xml version="1.0" encoding="UTF-8" standalone="no"?>
<!DOCTYPE svg PUBLIC "-//W3C//DTD SVG 1.1//EN"
 "http://www.w3.org/Graphics/SVG/1.1/DTD/svg11.dtd">
<!-- Generated by graphviz version 2.44.1 (0)
 -->
<!-- Pages: 1 -->
<svg width="2580pt" height="781pt"
 viewBox="0.00 0.00 2580.00 781.00" xmlns="http://www.w3.org/2000/svg" xmlns:xlink="http://www.w3.org/1999/xlink">
<g id="graph0" class="graph" transform="scale(1 1) rotate(0) translate(4 777)">
<polygon fill="white" stroke="transparent" points="-4,4 -4,-777 2576,-777 2576,4 -4,4"/>
<!-- Blob.Core.Controls -->
<g id="node1" class="node">
<title>Blob.Core.Controls</title>
<polygon fill="none" stroke="black" points="0,-601.5 0,-663.5 104,-663.5 104,-601.5 0,-601.5"/>
<text text-anchor="middle" x="52" y="-648.3" font-family="Times,serif" font-size="14.00">Controls</text>
<polyline fill="none" stroke="black" points="0,-640.5 104,-640.5 "/>
<text text-anchor="middle" x="52" y="-624.8" font-family="Times,serif" font-size="14.00">+init(void *)</text>
<text text-anchor="middle" x="52" y="-609.8" font-family="Times,serif" font-size="14.00">+update()</text>
</g>
<!-- Blob.Core.Controls.Keys -->
<g id="node2" class="node">
<title>Blob.Core.Controls.Keys</title>
<polygon fill="none" stroke="black" points="122,-609 122,-656 404,-656 404,-609 122,-609"/>
<text text-anchor="middle" x="263" y="-640.8" font-family="Times,serif" font-size="14.00">Keys</text>
<polyline fill="none" stroke="black" points="122,-633 404,-633 "/>
<text text-anchor="middle" x="263" y="-617.3" font-family="Times,serif" font-size="14.00">+getName(const bool &amp;) : std::string</text>
</g>
<!-- Blob.Core.Controls.Controller -->
<g id="node3" class="node">
<title>Blob.Core.Controls.Controller</title>
<polygon fill="none" stroke="black" points="422,-552.5 422,-712.5 674,-712.5 674,-552.5 422,-552.5"/>
<text text-anchor="middle" x="548" y="-697.3" font-family="Times,serif" font-size="14.00">Controller</text>
<polyline fill="none" stroke="black" points="422,-689.5 674,-689.5 "/>
<text text-anchor="middle" x="548" y="-674.3" font-family="Times,serif" font-size="14.00">+number : int</text>
<text text-anchor="middle" x="548" y="-659.3" font-family="Times,serif" font-size="14.00">+name : std::string</text>
<text text-anchor="middle" x="548" y="-644.3" font-family="Times,serif" font-size="14.00">+stillConnected : bool</text>
<text text-anchor="middle" x="548" y="-629.3" font-family="Times,serif" font-size="14.00">+buttonsCount : int</text>
<text text-anchor="middle" x="548" y="-614.3" font-family="Times,serif" font-size="14.00">+buttons : const unsigned char *</text>
<text text-anchor="middle" x="548" y="-599.3" font-family="Times,serif" font-size="14.00">+joystickAxesCount : int</text>
<text text-anchor="middle" x="548" y="-584.3" font-family="Times,serif" font-size="14.00">+joystickAxes : const float *</text>
<polyline fill="none" stroke="black" points="422,-576.5 674,-576.5 "/>
<text text-anchor="middle" x="548" y="-560.8" font-family="Times,serif" font-size="14.00">+controllerOut()</text>
</g>
<!-- Blob.Core.WindowCore -->
<g id="node4" class="node">
<title>Blob.Core.WindowCore</title>
<polygon fill="none" stroke="black" points="692,-492.5 692,-772.5 1048,-772.5 1048,-492.5 692,-492.5"/>
<text text-anchor="middle" x="870" y="-757.3" font-family="Times,serif" font-size="14.00">WindowCore</text>
<polyline fill="none" stroke="black" points="692,-749.5 1048,-749.5 "/>
<text text-anchor="middle" x="870" y="-734.3" font-family="Times,serif" font-size="14.00">&#45;window : void *</text>
<text text-anchor="middle" x="870" y="-719.3" font-family="Times,serif" font-size="14.00">#width : unsigned int</text>
<text text-anchor="middle" x="870" y="-704.3" font-family="Times,serif" font-size="14.00">#height : unsigned int</text>
<text text-anchor="middle" x="870" y="-689.3" font-family="Times,serif" font-size="14.00">#quit : bool</text>
<text text-anchor="middle" x="870" y="-674.3" font-family="Times,serif" font-size="14.00">#fullScreen : bool</text>
<polyline fill="none" stroke="black" points="692,-666.5 1048,-666.5 "/>
<text text-anchor="middle" x="870" y="-650.8" font-family="Times,serif" font-size="14.00">&#45;framebuffer_size_callback(void *, int, int)</text>
<text text-anchor="middle" x="870" y="-635.8" font-family="Times,serif" font-size="14.00">&#45;GLFWErrorCallback(int, const char *)</text>
<text text-anchor="middle" x="870" y="-620.8" font-family="Times,serif" font-size="14.00">#WindowCore(bool, unsigned int, unsigned int)</text>
<text text-anchor="middle" x="870" y="-605.8" font-family="Times,serif" font-size="14.00">#~WindowCore()</text>
<text text-anchor="middle" x="870" y="-590.8" font-family="Times,serif" font-size="14.00">+isOpen() : bool</text>
<text text-anchor="middle" x="870" y="-575.8" font-family="Times,serif" font-size="14.00">+getSize() : Blob::Maths::Vec2f</text>
<text text-anchor="middle" x="870" y="-560.8" font-family="Times,serif" font-size="14.00">+getFrameBufferSize() : Blob::Maths::Vec2f</text>
<text text-anchor="middle" x="870" y="-545.8" font-family="Times,serif" font-size="14.00">+setTitle(const std::string &amp;)</text>
<text text-anchor="middle" x="870" y="-530.8" font-family="Times,serif" font-size="14.00">+resize(unsigned int, unsigned int)</text>
<text text-anchor="middle" x="870" y="-515.8" font-family="Times,serif" font-size="14.00">+close()</text>
<text text-anchor="middle" x="870" y="-500.8" font-family="Times,serif" font-size="14.00">+swapBuffers()</text>
</g>
<!-- Blob.Core.Window -->
<g id="node5" class="node">
<title>Blob.Core.Window</title>
<polygon fill="none" stroke="black" points="957,-227.5 957,-455.5 1445,-455.5 1445,-227.5 957,-227.5"/>
<text text-anchor="middle" x="1201" y="-440.3" font-family="Times,serif" font-size="14.00">Blob::Maths::ProjectionTransform</text>
<polyline fill="none" stroke="black" points="957,-432.5 1445,-432.5 "/>
<text text-anchor="middle" x="1201" y="-417.3" font-family="Times,serif" font-size="14.00">Window</text>
<polyline fill="none" stroke="black" points="957,-409.5 1445,-409.5 "/>
<text text-anchor="middle" x="1201" y="-394.3" font-family="Times,serif" font-size="14.00">&#45;lastFrameTime : std::chrono::high_resolution_clock::time_point</text>
<text text-anchor="middle" x="1201" y="-379.3" font-family="Times,serif" font-size="14.00">&#45;fpsCouner : std::chrono::duration&lt;float&gt;</text>
<polyline fill="none" stroke="black" points="957,-371.5 1445,-371.5 "/>
<text text-anchor="middle" x="1201" y="-355.8" font-family="Times,serif" font-size="14.00">+Window(Blob::Core::Camera &amp;, bool, unsigned int, unsigned int)</text>
<text text-anchor="middle" x="1201" y="-340.8" font-family="Times,serif" font-size="14.00">+~Window()</text>
<text text-anchor="middle" x="1201" y="-325.8" font-family="Times,serif" font-size="14.00">+draw(const Blob::Core::Mesh &amp;, glm::mat4)</text>
<text text-anchor="middle" x="1201" y="-310.8" font-family="Times,serif" font-size="14.00">+draw(const Blob::Core::Shape &amp;, glm::mat4)</text>
<text text-anchor="middle" x="1201" y="-295.8" font-family="Times,serif" font-size="14.00">+draw(const Blob::Core::Scene &amp;)</text>
<text text-anchor="middle" x="1201" y="-280.8" font-family="Times,serif" font-size="14.00">+setCamera(Blob::Core::Camera &amp;)</text>
<text text-anchor="middle" x="1201" y="-265.8" font-family="Times,serif" font-size="14.00">+display() : float</text>
<text text-anchor="middle" x="1201" y="-250.8" font-family="Times,serif" font-size="14.00">+getWorldPosition() : std::array&lt;float, 3&gt;</text>
<text text-anchor="middle" x="1201" y="-235.8" font-family="Times,serif" font-size="14.00">+resize(unsigned int, unsigned int)</text>
</g>
<!-- Blob.Core.WindowCore&#45;&gt;Blob.Core.Window -->
<g id="edge1" class="edge">
<title>Blob.Core.WindowCore&#45;&gt;Blob.Core.Window</title>
<path fill="none" stroke="black" d="M1037.5,-485.26C1048.79,-475.4 1060.06,-465.55 1071.12,-455.9"/>
<polygon fill="none" stroke="black" points="1034.91,-482.87 1029.68,-492.08 1039.52,-488.14 1034.91,-482.87"/>
</g>
<!-- Blob.Core.ImGUI -->
<g id="node6" class="node">
<title>Blob.Core.ImGUI</title>
<polygon fill="none" stroke="black" points="1066,-530 1066,-735 1404,-735 1404,-530 1066,-530"/>
<text text-anchor="middle" x="1235" y="-719.8" font-family="Times,serif" font-size="14.00">ImGUI</text>
<polyline fill="none" stroke="black" points="1066,-712 1404,-712 "/>
<text text-anchor="middle" x="1235" y="-696.8" font-family="Times,serif" font-size="14.00">&#45;fontTexture : GL::Texture</text>
<text text-anchor="middle" x="1235" y="-681.8" font-family="Times,serif" font-size="14.00">&#45;vertexBufferObject : GL::VertexBufferObject</text>
<text text-anchor="middle" x="1235" y="-666.8" font-family="Times,serif" font-size="14.00">&#45;vertexArrayObject : GL::VertexArrayObject</text>
<text text-anchor="middle" x="1235" y="-651.8" font-family="Times,serif" font-size="14.00">&#45;projectionMatrix : float [16]</text>
<text text-anchor="middle" x="1235" y="-636.8" font-family="Times,serif" font-size="14.00">&#45;id : float [16]</text>
<text text-anchor="middle" x="1235" y="-621.8" font-family="Times,serif" font-size="14.00">&#45;shader : GL::ShaderProgram</text>
<text text-anchor="middle" x="1235" y="-606.8" font-family="Times,serif" font-size="14.00">&#45;projectionPosition : int</text>
<polyline fill="none" stroke="black" points="1066,-599 1404,-599 "/>
<text text-anchor="middle" x="1235" y="-583.3" font-family="Times,serif" font-size="14.00">&#45;buildFont()</text>
<text text-anchor="middle" x="1235" y="-568.3" font-family="Times,serif" font-size="14.00">+ImGUI()</text>
<text text-anchor="middle" x="1235" y="-553.3" font-family="Times,serif" font-size="14.00">+draw()</text>
<text text-anchor="middle" x="1235" y="-538.3" font-family="Times,serif" font-size="14.00">+setWindowSize(unsigned int, unsigned int)</text>
</g>
<!-- Blob.Core.ImGUI&#45;&gt;Blob.Core.Window -->
<g id="edge2" class="edge">
<title>Blob.Core.ImGUI&#45;&gt;Blob.Core.Window</title>
<path fill="none" stroke="black" d="M1221.82,-519.44C1219.84,-502.63 1217.79,-485.2 1215.78,-468.13"/>
<polygon fill="black" stroke="black" points="1218.37,-520.09 1223.01,-529.61 1225.32,-519.27 1218.37,-520.09"/>
<polygon fill="none" stroke="black" points="1215.73,-467.69 1211.05,-462.2 1214.33,-455.77 1219,-461.26 1215.73,-467.69"/>
</g>
<!-- Blob.Core.Camera -->
<g id="node7" class="node">
<title>Blob.Core.Camera</title>
<polygon fill="none" stroke="black" points="1485.5,-609 1485.5,-656 1706.5,-656 1706.5,-609 1485.5,-609"/>
<text text-anchor="middle" x="1596" y="-640.8" font-family="Times,serif" font-size="14.00">Blob::Maths::ViewTransform</text>
<polyline fill="none" stroke="black" points="1485.5,-633 1706.5,-633 "/>
<text text-anchor="middle" x="1596" y="-617.3" font-family="Times,serif" font-size="14.00">Camera</text>
</g>
<!-- Blob.Core.Camera&#45;&gt;Blob.Core.Window -->
<g id="edge3" class="edge">
<title>Blob.Core.Camera&#45;&gt;Blob.Core.Window</title>
<path fill="none" stroke="black" d="M1559.14,-602.76C1522.39,-574.27 1464.21,-529.56 1413,-492 1399.92,-482.41 1386.33,-472.56 1372.62,-462.71"/>
<polygon fill="black" stroke="black" points="1557.05,-605.57 1567.09,-608.94 1561.34,-600.04 1557.05,-605.57"/>
<polygon fill="none" stroke="black" points="1372.38,-462.54 1365.18,-462.29 1362.63,-455.54 1369.84,-455.79 1372.38,-462.54"/>
</g>
<!-- Blob.Core.Scene -->
<g id="node8" class="node">
<title>Blob.Core.Scene</title>
<polygon fill="none" stroke="black" points="1463.5,-299 1463.5,-384 1788.5,-384 1788.5,-299 1463.5,-299"/>
<text text-anchor="middle" x="1626" y="-368.8" font-family="Times,serif" font-size="14.00">Scene</text>
<polyline fill="none" stroke="black" points="1463.5,-361 1788.5,-361 "/>
<text text-anchor="middle" x="1626" y="-345.8" font-family="Times,serif" font-size="14.00">&#45;shapes : std::list&lt;const Shape *&gt;</text>
<polyline fill="none" stroke="black" points="1463.5,-338 1788.5,-338 "/>
<text text-anchor="middle" x="1626" y="-322.3" font-family="Times,serif" font-size="14.00">+addShape(const Blob::Core::Shape &amp;)</text>
<text text-anchor="middle" x="1626" y="-307.3" font-family="Times,serif" font-size="14.00">+removeShape(const Blob::Core::Shape &amp;)</text>
</g>
<!-- Blob.Core.Camera&#45;&gt;Blob.Core.Scene -->
<g id="edge4" class="edge">
<title>Blob.Core.Camera&#45;&gt;Blob.Core.Scene</title>
<path fill="none" stroke="black" d="M1599.41,-598.67C1604.52,-549.39 1614.24,-455.76 1620.41,-396.38"/>
<polygon fill="black" stroke="black" points="1595.91,-598.51 1598.35,-608.82 1602.87,-599.24 1595.91,-598.51"/>
<polygon fill="none" stroke="black" points="1620.43,-396.19 1617.07,-389.81 1621.67,-384.25 1625.02,-390.63 1620.43,-396.19"/>
</g>
<!-- Blob.Core.Exception -->
<g id="node9" class="node">
<title>Blob.Core.Exception</title>
<polygon fill="none" stroke="black" points="1724.5,-590 1724.5,-675 1943.5,-675 1943.5,-590 1724.5,-590"/>
<text text-anchor="middle" x="1834" y="-659.8" font-family="Times,serif" font-size="14.00">Exception</text>
<polyline fill="none" stroke="black" points="1724.5,-652 1943.5,-652 "/>
<text text-anchor="middle" x="1834" y="-636.8" font-family="Times,serif" font-size="14.00">&#45;errorMsg : const std::string</text>
<polyline fill="none" stroke="black" points="1724.5,-629 1943.5,-629 "/>
<text text-anchor="middle" x="1834" y="-613.3" font-family="Times,serif" font-size="14.00">+Exception(std::string)</text>
<text text-anchor="middle" x="1834" y="-598.3" font-family="Times,serif" font-size="14.00">+what() : const char *</text>
</g>
<!-- Blob.Core.RenderOptions -->
<g id="node10" class="node">
<title>Blob.Core.RenderOptions</title>
<polygon fill="none" stroke="black" points="1962,-571.5 1962,-693.5 2170,-693.5 2170,-571.5 1962,-571.5"/>
<text text-anchor="middle" x="2066" y="-678.3" font-family="Times,serif" font-size="14.00">RenderOptions</text>
<polyline fill="none" stroke="black" points="1962,-670.5 2170,-670.5 "/>
<text text-anchor="middle" x="2066" y="-654.8" font-family="Times,serif" font-size="14.00">+indexed : bool</text>
<text text-anchor="middle" x="2066" y="-639.8" font-family="Times,serif" font-size="14.00">+indices : void *</text>
<text text-anchor="middle" x="2066" y="-624.8" font-family="Times,serif" font-size="14.00">+numOfIndices : int32_t</text>
<text text-anchor="middle" x="2066" y="-609.8" font-family="Times,serif" font-size="14.00">+indicesType : uint32_t</text>
<text text-anchor="middle" x="2066" y="-594.8" font-family="Times,serif" font-size="14.00">+elementOffset : int32_t</text>
<text text-anchor="middle" x="2066" y="-579.8" font-family="Times,serif" font-size="14.00">+numOfElements : int32_t</text>
</g>
<!-- Blob.Core.Mesh -->
<g id="node11" class="node">
<title>Blob.Core.Mesh</title>
<polygon fill="none" stroke="black" points="1837.5,-269 1837.5,-414 2294.5,-414 2294.5,-269 1837.5,-269"/>
<text text-anchor="middle" x="2066" y="-398.8" font-family="Times,serif" font-size="14.00">Mesh</text>
<polyline fill="none" stroke="black" points="1837.5,-391 2294.5,-391 "/>
<text text-anchor="middle" x="2066" y="-375.8" font-family="Times,serif" font-size="14.00">&#45;material : const Material::Material *</text>
<text text-anchor="middle" x="2066" y="-360.8" font-family="Times,serif" font-size="14.00">&#45;vertexArrayObject : GL::VertexArrayObject &amp;</text>
<polyline fill="none" stroke="black" points="1837.5,-353 2294.5,-353 "/>
<text text-anchor="middle" x="2066" y="-337.3" font-family="Times,serif" font-size="14.00">+Mesh(GL::VertexArrayObject &amp;)</text>
<text text-anchor="middle" x="2066" y="-322.3" font-family="Times,serif" font-size="14.00">+Mesh(GL::VertexArrayObject &amp;, const Material::Material &amp;)</text>
<text text-anchor="middle" x="2066" y="-307.3" font-family="Times,serif" font-size="14.00">+setIndices(void *, int32_t, uint32_t)</text>
<text text-anchor="middle" x="2066" y="-292.3" font-family="Times,serif" font-size="14.00">+setIndices(T *, int32_t)</text>
<text text-anchor="middle" x="2066" y="-277.3" font-family="Times,serif" font-size="14.00">+setMaterial(Material::Material &amp;)</text>
</g>
<!-- Blob.Core.RenderOptions&#45;&gt;Blob.Core.Mesh -->
<g id="edge5" class="edge">
<title>Blob.Core.RenderOptions&#45;&gt;Blob.Core.Mesh</title>
<path fill="none" stroke="black" d="M2066,-561.09C2066,-520.41 2066,-468.99 2066,-426.24"/>
<polygon fill="black" stroke="black" points="2062.5,-561.27 2066,-571.27 2069.5,-561.27 2062.5,-561.27"/>
<polygon fill="none" stroke="black" points="2066,-426.14 2062,-420.14 2066,-414.14 2070,-420.14 2066,-426.14"/>
</g>
<!-- Blob.Core.Shape -->
<g id="node12" class="node">
<title>Blob.Core.Shape</title>
<polygon fill="none" stroke="black" points="1772,-0.5 1772,-190.5 2360,-190.5 2360,-0.5 1772,-0.5"/>
<text text-anchor="middle" x="2066" y="-175.3" font-family="Times,serif" font-size="14.00">Blob::Maths::ModelTransform</text>
<polyline fill="none" stroke="black" points="1772,-167.5 2360,-167.5 "/>
<text text-anchor="middle" x="2066" y="-152.3" font-family="Times,serif" font-size="14.00">Shape</text>
<polyline fill="none" stroke="black" points="1772,-144.5 2360,-144.5 "/>
<text text-anchor="middle" x="2066" y="-128.8" font-family="Times,serif" font-size="14.00">+Shape(Blob::Core::Mesh &amp;, float, float, float, float, float, float, float, float, float)</text>
<text text-anchor="middle" x="2066" y="-113.8" font-family="Times,serif" font-size="14.00">+Shape(float, float, float, float, float, float, float, float, float)</text>
<text text-anchor="middle" x="2066" y="-98.8" font-family="Times,serif" font-size="14.00">+setMesh(Blob::Core::Mesh &amp;)</text>
<text text-anchor="middle" x="2066" y="-83.8" font-family="Times,serif" font-size="14.00">+setMesh(Blob::Core::Mesh *)</text>
<text text-anchor="middle" x="2066" y="-68.8" font-family="Times,serif" font-size="14.00">+setChild(Blob::Core::Shape &amp;)</text>
<text text-anchor="middle" x="2066" y="-53.8" font-family="Times,serif" font-size="14.00">+setChild(Blob::Core::Shape *)</text>
<text text-anchor="middle" x="2066" y="-38.8" font-family="Times,serif" font-size="14.00">+removeMesh()</text>
<text text-anchor="middle" x="2066" y="-23.8" font-family="Times,serif" font-size="14.00">+removeChild(Blob::Core::Shape &amp;)</text>
<text text-anchor="middle" x="2066" y="-8.8" font-family="Times,serif" font-size="14.00">+removeChild(Blob::Core::Shape *)</text>
</g>
<!-- Blob.Core.Mesh&#45;&gt;Blob.Core.Shape -->
<g id="edge6" class="edge">
<title>Blob.Core.Mesh&#45;&gt;Blob.Core.Shape</title>
<path fill="none" stroke="black" d="M2066,-258.73C2066,-240.84 2066,-221.64 2066,-202.94"/>
<polygon fill="black" stroke="black" points="2062.5,-258.94 2066,-268.94 2069.5,-258.94 2062.5,-258.94"/>
<polygon fill="none" stroke="black" points="2066,-202.74 2062,-196.74 2066,-190.74 2070,-196.74 2066,-202.74"/>
</g>
<!-- Blob.Core.Shape&#45;&gt;Blob.Core.Shape -->
<g id="edge7" class="edge">
<title>Blob.Core.Shape&#45;&gt;Blob.Core.Shape</title>
<path fill="none" stroke="black" d="M2369.63,-105.2C2375.03,-102.41 2378,-99.17 2378,-95.5 2378,-92.25 2375.68,-89.35 2371.42,-86.79"/>
<polygon fill="black" stroke="black" points="2368.06,-102.06 2360.04,-108.98 2370.63,-108.57 2368.06,-102.06"/>
<polygon fill="none" stroke="black" points="2371.11,-86.66 2364.02,-88.03 2360.04,-82.02 2367.12,-80.65 2371.11,-86.66"/>
</g>
<!-- Blob.Core.Shape&#45;&gt;Blob.Core.Shape -->
<g id="edge8" class="edge">
<title>Blob.Core.Shape&#45;&gt;Blob.Core.Shape</title>
<path fill="none" stroke="black" d="M2369.92,-126.12C2386.29,-118.63 2396,-108.42 2396,-95.5 2396,-83.06 2386.99,-73.13 2371.71,-65.72"/>
<polygon fill="black" stroke="black" points="2368.16,-123.05 2360.17,-130 2370.75,-129.56 2368.16,-123.05"/>
<polygon fill="none" stroke="black" points="2371.27,-65.54 2364.21,-66.97 2360.17,-61 2367.24,-59.57 2371.27,-65.54"/>
</g>
<!-- Blob.Core.Buffer -->
<g id="node13" class="node">
<title>Blob.Core.Buffer</title>
<polygon fill="none" stroke="black" points="2188,-609 2188,-656 2412,-656 2412,-609 2188,-609"/>
<text text-anchor="middle" x="2300" y="-640.8" font-family="Times,serif" font-size="14.00">Blob::GL::VertexBufferObject</text>
<polyline fill="none" stroke="black" points="2188,-633 2412,-633 "/>
<text text-anchor="middle" x="2300" y="-617.3" font-family="Times,serif" font-size="14.00">Buffer</text>
</g>
<!-- Blob.Core.Texture -->
<g id="node14" class="node">
<title>Blob.Core.Texture</title>
<polygon fill="none" stroke="black" points="2430,-609 2430,-656 2572,-656 2572,-609 2430,-609"/>
<text text-anchor="middle" x="2501" y="-640.8" font-family="Times,serif" font-size="14.00">Blob::GL::Texture</text>
<polyline fill="none" stroke="black" points="2430,-633 2572,-633 "/>
<text text-anchor="middle" x="2501" y="-617.3" font-family="Times,serif" font-size="14.00">Texture</text>
</g>
</g>
</svg>
