<?xml version="1.0" encoding="UTF-8" standalone="no"?>
<!DOCTYPE svg PUBLIC "-//W3C//DTD SVG 1.1//EN"
 "http://www.w3.org/Graphics/SVG/1.1/DTD/svg11.dtd">
<!-- Generated by graphviz version 2.44.1 (0)
 -->
<!-- Pages: 1 -->
<svg width="2528pt" height="396pt"
 viewBox="0.00 0.00 2528.00 396.00" xmlns="http://www.w3.org/2000/svg" xmlns:xlink="http://www.w3.org/1999/xlink">
<g id="graph0" class="graph" transform="scale(1 1) rotate(0) translate(4 392)">
<polygon fill="white" stroke="transparent" points="-4,4 -4,-392 2524,-392 2524,4 -4,4"/>
<!-- Blob.Material.Color -->
<g id="node1" class="node">
<title>Blob.Material.Color</title>
<polygon fill="none" stroke="black" points="223.5,-227.5 223.5,-387.5 528.5,-387.5 528.5,-227.5 223.5,-227.5"/>
<text text-anchor="middle" x="376" y="-372.3" font-family="Times,serif" font-size="14.00">Color</text>
<polyline fill="none" stroke="black" points="223.5,-364.5 528.5,-364.5 "/>
<text text-anchor="middle" x="376" y="-349.3" font-family="Times,serif" font-size="14.00">+R : float</text>
<text text-anchor="middle" x="376" y="-334.3" font-family="Times,serif" font-size="14.00">+G : float</text>
<text text-anchor="middle" x="376" y="-319.3" font-family="Times,serif" font-size="14.00">+B : float</text>
<text text-anchor="middle" x="376" y="-304.3" font-family="Times,serif" font-size="14.00">+A : float</text>
<polyline fill="none" stroke="black" points="223.5,-296.5 528.5,-296.5 "/>
<text text-anchor="middle" x="376" y="-280.8" font-family="Times,serif" font-size="14.00">+Color()</text>
<text text-anchor="middle" x="376" y="-265.8" font-family="Times,serif" font-size="14.00">+Color(uint8_t, uint8_t, uint8_t, uint8_t)</text>
<text text-anchor="middle" x="376" y="-250.8" font-family="Times,serif" font-size="14.00">+Color(uint32_t)</text>
<text text-anchor="middle" x="376" y="-235.8" font-family="Times,serif" font-size="14.00">+Color(float, float, float, float)</text>
</g>
<!-- Blob.Material.Light -->
<g id="node2" class="node">
<title>Blob.Material.Light</title>
<polygon fill="none" stroke="black" points="0,-72 0,-119 168,-119 168,-72 0,-72"/>
<text text-anchor="middle" x="84" y="-103.8" font-family="Times,serif" font-size="14.00">Light</text>
<polyline fill="none" stroke="black" points="0,-96 168,-96 "/>
<text text-anchor="middle" x="84" y="-80.3" font-family="Times,serif" font-size="14.00">+position : glm::vec3</text>
</g>
<!-- Blob.Material.Color&#45;&gt;Blob.Material.Light -->
<g id="edge1" class="edge">
<title>Blob.Material.Color&#45;&gt;Blob.Material.Light</title>
<path fill="none" stroke="black" d="M220.84,-222C205.65,-212.09 190.78,-201.69 177,-191 152.93,-172.33 128.89,-147.71 111.28,-128.28"/>
<polygon fill="black" stroke="black" points="219,-224.97 229.3,-227.44 222.79,-219.09 219,-224.97"/>
<polygon fill="none" stroke="black" points="111.18,-128.16 104.2,-126.35 103.19,-119.21 110.17,-121.02 111.18,-128.16"/>
</g>
<!-- Blob.Material.SingleColorMaterial -->
<g id="node3" class="node">
<title>Blob.Material.SingleColorMaterial</title>
<polygon fill="none" stroke="black" points="186,-8 186,-183 952,-183 952,-8 186,-8"/>
<text text-anchor="middle" x="569" y="-167.8" font-family="Times,serif" font-size="14.00">SingleColorMaterial</text>
<polyline fill="none" stroke="black" points="186,-160 952,-160 "/>
<text text-anchor="middle" x="569" y="-144.8" font-family="Times,serif" font-size="14.00">+metallic : float</text>
<text text-anchor="middle" x="569" y="-129.8" font-family="Times,serif" font-size="14.00">+roughness : float</text>
<text text-anchor="middle" x="569" y="-114.8" font-family="Times,serif" font-size="14.00">+ao : float</text>
<text text-anchor="middle" x="569" y="-99.8" font-family="Times,serif" font-size="14.00">+options : uint32_t</text>
<polyline fill="none" stroke="black" points="186,-92 952,-92 "/>
<text text-anchor="middle" x="569" y="-76.3" font-family="Times,serif" font-size="14.00">&#45;applyMaterial(const Maths::ProjectionTransform &amp;, const Maths::ViewTransform &amp;, const glm::mat4 &amp;)</text>
<text text-anchor="middle" x="569" y="-61.3" font-family="Times,serif" font-size="14.00">+SingleColorMaterial()</text>
<text text-anchor="middle" x="569" y="-46.3" font-family="Times,serif" font-size="14.00">+SingleColorMaterial(Blob::Material::Color)</text>
<text text-anchor="middle" x="569" y="-31.3" font-family="Times,serif" font-size="14.00">+init()</text>
<text text-anchor="middle" x="569" y="-16.3" font-family="Times,serif" font-size="14.00">+destroy()</text>
</g>
<!-- Blob.Material.Color&#45;&gt;Blob.Material.SingleColorMaterial -->
<g id="edge2" class="edge">
<title>Blob.Material.Color&#45;&gt;Blob.Material.SingleColorMaterial</title>
<path fill="none" stroke="black" d="M455.57,-219.92C464.01,-210.74 472.62,-201.37 481.14,-192.1"/>
<polygon fill="black" stroke="black" points="452.88,-217.68 448.69,-227.41 458.03,-222.41 452.88,-217.68"/>
<polygon fill="none" stroke="black" points="481.15,-192.09 482.26,-184.96 489.27,-183.25 488.15,-190.38 481.15,-192.09"/>
</g>
<!-- Blob.Material.Material -->
<g id="node4" class="node">
<title>Blob.Material.Material</title>
<polygon fill="none" stroke="black" points="966.5,-265 966.5,-350 1739.5,-350 1739.5,-265 966.5,-265"/>
<text text-anchor="middle" x="1353" y="-334.8" font-family="Times,serif" font-size="14.00">Material</text>
<polyline fill="none" stroke="black" points="966.5,-327 1739.5,-327 "/>
<text text-anchor="middle" x="1353" y="-311.8" font-family="Times,serif" font-size="14.00">&#45;shaderProgramPrivate : const GL::ShaderProgram &amp;</text>
<polyline fill="none" stroke="black" points="966.5,-304 1739.5,-304 "/>
<text text-anchor="middle" x="1353" y="-288.3" font-family="Times,serif" font-size="14.00">+applyMaterial(const Maths::ProjectionTransform &amp;, const Maths::ViewTransform &amp;, const glm::mat4 &amp;)</text>
<text text-anchor="middle" x="1353" y="-273.3" font-family="Times,serif" font-size="14.00">+Material(const GL::ShaderProgram &amp;)</text>
</g>
<!-- Blob.Material.Material&#45;&gt;Blob.Material.SingleColorMaterial -->
<g id="edge3" class="edge">
<title>Blob.Material.Material&#45;&gt;Blob.Material.SingleColorMaterial</title>
<path fill="none" stroke="black" d="M1187.81,-262.25C1101.92,-239.25 993.88,-210.31 892.22,-183.08"/>
<polygon fill="none" stroke="black" points="1187.07,-265.68 1197.64,-264.89 1188.88,-258.92 1187.07,-265.68"/>
</g>
<!-- Blob.Material.DefaultMaterial -->
<g id="node5" class="node">
<title>Blob.Material.DefaultMaterial</title>
<polygon fill="none" stroke="black" points="1754,-49.5 1754,-141.5 2520,-141.5 2520,-49.5 1754,-49.5"/>
<text text-anchor="middle" x="2137" y="-126.3" font-family="Times,serif" font-size="14.00">DefaultMaterial</text>
<polyline fill="none" stroke="black" points="1754,-118.5 2520,-118.5 "/>
<text text-anchor="middle" x="2137" y="-102.8" font-family="Times,serif" font-size="14.00">&#45;applyMaterial(const Maths::ProjectionTransform &amp;, const Maths::ViewTransform &amp;, const glm::mat4 &amp;)</text>
<text text-anchor="middle" x="2137" y="-87.8" font-family="Times,serif" font-size="14.00">+DefaultMaterial()</text>
<text text-anchor="middle" x="2137" y="-72.8" font-family="Times,serif" font-size="14.00">+init()</text>
<text text-anchor="middle" x="2137" y="-57.8" font-family="Times,serif" font-size="14.00">+destroy()</text>
</g>
<!-- Blob.Material.Material&#45;&gt;Blob.Material.DefaultMaterial -->
<g id="edge4" class="edge">
<title>Blob.Material.Material&#45;&gt;Blob.Material.DefaultMaterial</title>
<path fill="none" stroke="black" d="M1518.2,-262.25C1650.57,-226.79 1835.54,-177.25 1968.71,-141.58"/>
<polygon fill="none" stroke="black" points="1517.12,-258.92 1508.36,-264.89 1518.93,-265.68 1517.12,-258.92"/>
</g>
<!-- Blob.Material.SingleTextureMaterial -->
<g id="node6" class="node">
<title>Blob.Material.SingleTextureMaterial</title>
<polygon fill="none" stroke="black" points="970,-0.5 970,-190.5 1736,-190.5 1736,-0.5 970,-0.5"/>
<text text-anchor="middle" x="1353" y="-175.3" font-family="Times,serif" font-size="14.00">SingleTextureMaterial</text>
<polyline fill="none" stroke="black" points="970,-167.5 1736,-167.5 "/>
<text text-anchor="middle" x="1353" y="-152.3" font-family="Times,serif" font-size="14.00">+texture : const Blob::GL::Texture &amp;</text>
<text text-anchor="middle" x="1353" y="-137.3" font-family="Times,serif" font-size="14.00">+metallic : float</text>
<text text-anchor="middle" x="1353" y="-122.3" font-family="Times,serif" font-size="14.00">+roughness : float</text>
<text text-anchor="middle" x="1353" y="-107.3" font-family="Times,serif" font-size="14.00">+ao : float</text>
<text text-anchor="middle" x="1353" y="-92.3" font-family="Times,serif" font-size="14.00">+options : uint32_t</text>
<text text-anchor="middle" x="1353" y="-77.3" font-family="Times,serif" font-size="14.00">+texScale : float [2]</text>
<polyline fill="none" stroke="black" points="970,-69.5 1736,-69.5 "/>
<text text-anchor="middle" x="1353" y="-53.8" font-family="Times,serif" font-size="14.00">&#45;applyMaterial(const Maths::ProjectionTransform &amp;, const Maths::ViewTransform &amp;, const glm::mat4 &amp;)</text>
<text text-anchor="middle" x="1353" y="-38.8" font-family="Times,serif" font-size="14.00">+SingleTextureMaterial(const Blob::GL::Texture &amp;)</text>
<text text-anchor="middle" x="1353" y="-23.8" font-family="Times,serif" font-size="14.00">+init()</text>
<text text-anchor="middle" x="1353" y="-8.8" font-family="Times,serif" font-size="14.00">+destroy()</text>
</g>
<!-- Blob.Material.Material&#45;&gt;Blob.Material.SingleTextureMaterial -->
<g id="edge5" class="edge">
<title>Blob.Material.Material&#45;&gt;Blob.Material.SingleTextureMaterial</title>
<path fill="none" stroke="black" d="M1353,-254.67C1353,-235.32 1353,-212.69 1353,-190.71"/>
<polygon fill="none" stroke="black" points="1349.5,-254.76 1353,-264.76 1356.5,-254.76 1349.5,-254.76"/>
</g>
<!-- Blob.Material.LightPos -->
<g id="node7" class="node">
<title>Blob.Material.LightPos</title>
<polygon fill="none" stroke="black" points="1757.5,-276.5 1757.5,-338.5 1876.5,-338.5 1876.5,-276.5 1757.5,-276.5"/>
<text text-anchor="middle" x="1817" y="-323.3" font-family="Times,serif" font-size="14.00">LightPos</text>
<polyline fill="none" stroke="black" points="1757.5,-315.5 1876.5,-315.5 "/>
<text text-anchor="middle" x="1817" y="-299.8" font-family="Times,serif" font-size="14.00">+position : int</text>
<text text-anchor="middle" x="1817" y="-284.8" font-family="Times,serif" font-size="14.00">+color : int</text>
</g>
<!-- Blob.Material.PBRMaterial -->
<g id="node8" class="node">
<title>Blob.Material.PBRMaterial</title>
<polygon fill="none" stroke="black" points="677,-289 677,-326 785,-326 785,-289 677,-289"/>
<text text-anchor="middle" x="731" y="-303.8" font-family="Times,serif" font-size="14.00">PBRMaterial</text>
</g>
<!-- Blob.Material.PBRMaterial&#45;&gt;Blob.Material.SingleColorMaterial -->
<g id="edge6" class="edge">
<title>Blob.Material.PBRMaterial&#45;&gt;Blob.Material.SingleColorMaterial</title>
<path fill="none" stroke="black" d="M711.28,-280.94C692.48,-256.57 663.09,-218.47 635.88,-183.2"/>
<polygon fill="none" stroke="black" points="708.59,-283.18 717.47,-288.96 714.13,-278.9 708.59,-283.18"/>
</g>
<!-- Blob.Material.PBRMaterial&#45;&gt;Blob.Material.SingleTextureMaterial -->
<g id="edge7" class="edge">
<title>Blob.Material.PBRMaterial&#45;&gt;Blob.Material.SingleTextureMaterial</title>
<path fill="none" stroke="black" d="M789.97,-285.52C835.73,-269.33 900.8,-246.46 958,-227 993.04,-215.08 1029.88,-202.7 1066.4,-190.52"/>
<polygon fill="none" stroke="black" points="788.77,-282.24 780.51,-288.88 791.1,-288.84 788.77,-282.24"/>
</g>
</g>
</svg>
