<?xml version="1.0" encoding="UTF-8" standalone="no"?>
<!DOCTYPE svg PUBLIC "-//W3C//DTD SVG 1.1//EN"
 "http://www.w3.org/Graphics/SVG/1.1/DTD/svg11.dtd">
<!-- Generated by graphviz version 2.44.1 (0)
 -->
<!-- Pages: 1 -->
<svg width="352pt" height="419pt"
 viewBox="0.00 0.00 352.00 419.00" xmlns="http://www.w3.org/2000/svg" xmlns:xlink="http://www.w3.org/1999/xlink">
<g id="graph0" class="graph" transform="scale(1 1) rotate(0) translate(4 415)">
<polygon fill="white" stroke="transparent" points="-4,4 -4,-415 348,-415 348,4 -4,4"/>
<!-- Blob.Shapes.Cube -->
<g id="node1" class="node">
<title>Blob.Shapes.Cube</title>
<polygon fill="none" stroke="black" points="39,-340.5 39,-410.5 305,-410.5 305,-340.5 39,-340.5"/>
<text text-anchor="middle" x="172" y="-395.3" font-family="Times,serif" font-size="14.00">Blob::Mesh</text>
<polyline fill="none" stroke="black" points="39,-387.5 305,-387.5 "/>
<text text-anchor="middle" x="172" y="-372.3" font-family="Times,serif" font-size="14.00">Cube</text>
<polyline fill="none" stroke="black" points="39,-364.5 305,-364.5 "/>
<text text-anchor="middle" x="172" y="-348.8" font-family="Times,serif" font-size="14.00">+Cube(const Material::Material &amp;)</text>
</g>
<!-- Blob.Shapes.Plane -->
<g id="node2" class="node">
<title>Blob.Shapes.Plane</title>
<polygon fill="none" stroke="black" points="37.5,-234.5 37.5,-304.5 306.5,-304.5 306.5,-234.5 37.5,-234.5"/>
<text text-anchor="middle" x="172" y="-289.3" font-family="Times,serif" font-size="14.00">Blob::Mesh</text>
<polyline fill="none" stroke="black" points="37.5,-281.5 306.5,-281.5 "/>
<text text-anchor="middle" x="172" y="-266.3" font-family="Times,serif" font-size="14.00">Plane</text>
<polyline fill="none" stroke="black" points="37.5,-258.5 306.5,-258.5 "/>
<text text-anchor="middle" x="172" y="-242.8" font-family="Times,serif" font-size="14.00">+Plane(const Material::Material &amp;)</text>
</g>
<!-- Blob.Shapes.Cube&#45;&gt;Blob.Shapes.Plane -->
<!-- Blob.Shapes.OctagonalPrism -->
<g id="node3" class="node">
<title>Blob.Shapes.OctagonalPrism</title>
<polygon fill="none" stroke="black" points="0,-128.5 0,-198.5 344,-198.5 344,-128.5 0,-128.5"/>
<text text-anchor="middle" x="172" y="-183.3" font-family="Times,serif" font-size="14.00">Blob::Mesh</text>
<polyline fill="none" stroke="black" points="0,-175.5 344,-175.5 "/>
<text text-anchor="middle" x="172" y="-160.3" font-family="Times,serif" font-size="14.00">OctagonalPrism</text>
<polyline fill="none" stroke="black" points="0,-152.5 344,-152.5 "/>
<text text-anchor="middle" x="172" y="-136.8" font-family="Times,serif" font-size="14.00">+OctagonalPrism(const Material::Material &amp;)</text>
</g>
<!-- Blob.Shapes.Plane&#45;&gt;Blob.Shapes.OctagonalPrism -->
<!-- Blob.Shapes.Data -->
<g id="node4" class="node">
<title>Blob.Shapes.Data</title>
<polygon fill="none" stroke="black" points="73.5,-0.5 73.5,-92.5 270.5,-92.5 270.5,-0.5 73.5,-0.5"/>
<text text-anchor="middle" x="172" y="-77.3" font-family="Times,serif" font-size="14.00">Data</text>
<polyline fill="none" stroke="black" points="73.5,-69.5 270.5,-69.5 "/>
<text text-anchor="middle" x="172" y="-53.8" font-family="Times,serif" font-size="14.00">+POSITION : float [3]</text>
<text text-anchor="middle" x="172" y="-38.8" font-family="Times,serif" font-size="14.00">+NORMAL : float [3]</text>
<text text-anchor="middle" x="172" y="-23.8" font-family="Times,serif" font-size="14.00">+TANGENT : float [3]</text>
<text text-anchor="middle" x="172" y="-8.8" font-family="Times,serif" font-size="14.00">+TEXCOORD_0 : float [3]</text>
</g>
<!-- Blob.Shapes.OctagonalPrism&#45;&gt;Blob.Shapes.Data -->
</g>
</svg>
