<?xml version="1.0" encoding="UTF-8" standalone="no"?>
<!DOCTYPE svg PUBLIC "-//W3C//DTD SVG 1.1//EN"
 "http://www.w3.org/Graphics/SVG/1.1/DTD/svg11.dtd">
<!-- Generated by graphviz version 2.44.1 (0)
 -->
<!-- Pages: 1 -->
<svg width="2069pt" height="846pt"
 viewBox="0.00 0.00 2069.00 846.00" xmlns="http://www.w3.org/2000/svg" xmlns:xlink="http://www.w3.org/1999/xlink">
<g id="graph0" class="graph" transform="scale(1 1) rotate(0) translate(4 842)">
<polygon fill="white" stroke="transparent" points="-4,4 -4,-842 2065,-842 2065,4 -4,4"/>
<!-- Blob.Maths.Vec2&lt;T&gt; -->
<g id="node1" class="node">
<title>Blob.Maths.Vec2&lt;T&gt;</title>
<polygon fill="none" stroke="black" points="149,-257.5 149,-837.5 517,-837.5 517,-257.5 149,-257.5"/>
<text text-anchor="middle" x="333" y="-822.3" font-family="Times,serif" font-size="14.00">Vec2&lt;T&gt;</text>
<polyline fill="none" stroke="black" points="149,-814.5 517,-814.5 "/>
<text text-anchor="middle" x="333" y="-799.3" font-family="Times,serif" font-size="14.00">+x : T</text>
<text text-anchor="middle" x="333" y="-784.3" font-family="Times,serif" font-size="14.00">+y : T</text>
<polyline fill="none" stroke="black" points="149,-776.5 517,-776.5 "/>
<text text-anchor="middle" x="333" y="-760.8" font-family="Times,serif" font-size="14.00">+Vec2&lt;T&gt;()</text>
<text text-anchor="middle" x="333" y="-745.8" font-family="Times,serif" font-size="14.00">+Vec2&lt;T&gt;(T, T)</text>
<text text-anchor="middle" x="333" y="-730.8" font-family="Times,serif" font-size="14.00">+Vec2&lt;T&gt;(const Vec2&lt;T&gt; &amp;, const Vec2&lt;T&gt; &amp;)</text>
<text text-anchor="middle" x="333" y="-715.8" font-family="Times,serif" font-size="14.00">+operator==(const Vec2&lt;T&gt; &amp;) : bool</text>
<text text-anchor="middle" x="333" y="-700.8" font-family="Times,serif" font-size="14.00">+operator!=(const Vec2&lt;T&gt; &amp;) : bool</text>
<text text-anchor="middle" x="333" y="-685.8" font-family="Times,serif" font-size="14.00">+operator&#45;(const Vec2&lt;T&gt; &amp;) : Vec2&lt;T&gt;</text>
<text text-anchor="middle" x="333" y="-670.8" font-family="Times,serif" font-size="14.00">+operator+(const Vec2&lt;T&gt; &amp;) : Vec2&lt;T&gt;</text>
<text text-anchor="middle" x="333" y="-655.8" font-family="Times,serif" font-size="14.00">+operator*(const Vec2&lt;T&gt; &amp;) : Vec2&lt;T&gt;</text>
<text text-anchor="middle" x="333" y="-640.8" font-family="Times,serif" font-size="14.00">+operator/(const Vec2&lt;T&gt; &amp;) : Vec2&lt;T&gt;</text>
<text text-anchor="middle" x="333" y="-625.8" font-family="Times,serif" font-size="14.00">+operator+=(const Vec2&lt;T&gt; &amp;)</text>
<text text-anchor="middle" x="333" y="-610.8" font-family="Times,serif" font-size="14.00">+operator&#45;=(const Vec2&lt;T&gt; &amp;)</text>
<text text-anchor="middle" x="333" y="-595.8" font-family="Times,serif" font-size="14.00">+operator*=(const Vec2&lt;T&gt; &amp;)</text>
<text text-anchor="middle" x="333" y="-580.8" font-family="Times,serif" font-size="14.00">+operator/=(const Vec2&lt;T&gt; &amp;)</text>
<text text-anchor="middle" x="333" y="-565.8" font-family="Times,serif" font-size="14.00">+operator=(const Vec2&lt;T&gt; &amp;) : Vec2&lt;T&gt; &amp;</text>
<text text-anchor="middle" x="333" y="-550.8" font-family="Times,serif" font-size="14.00">+operator+(T) : Vec2&lt;T&gt;</text>
<text text-anchor="middle" x="333" y="-535.8" font-family="Times,serif" font-size="14.00">+operator&#45;(T) : Vec2&lt;T&gt;</text>
<text text-anchor="middle" x="333" y="-520.8" font-family="Times,serif" font-size="14.00">+operator*(T) : Vec2&lt;T&gt;</text>
<text text-anchor="middle" x="333" y="-505.8" font-family="Times,serif" font-size="14.00">+operator/(T) : Vec2&lt;T&gt;</text>
<text text-anchor="middle" x="333" y="-490.8" font-family="Times,serif" font-size="14.00">+operator+=(T)</text>
<text text-anchor="middle" x="333" y="-475.8" font-family="Times,serif" font-size="14.00">+operator&#45;=(T)</text>
<text text-anchor="middle" x="333" y="-460.8" font-family="Times,serif" font-size="14.00">+operator*=(T)</text>
<text text-anchor="middle" x="333" y="-445.8" font-family="Times,serif" font-size="14.00">+operator/=(T)</text>
<text text-anchor="middle" x="333" y="-430.8" font-family="Times,serif" font-size="14.00">+operator=(const T) : Vec2&lt;T&gt; &amp;</text>
<text text-anchor="middle" x="333" y="-415.8" font-family="Times,serif" font-size="14.00">+length2() : T</text>
<text text-anchor="middle" x="333" y="-400.8" font-family="Times,serif" font-size="14.00">+length() : float</text>
<text text-anchor="middle" x="333" y="-385.8" font-family="Times,serif" font-size="14.00">+scalaire(Vec2&lt;T&gt;) : T</text>
<text text-anchor="middle" x="333" y="-370.8" font-family="Times,serif" font-size="14.00">+getNormal() : Vec2&lt;float&gt;</text>
<text text-anchor="middle" x="333" y="-355.8" font-family="Times,serif" font-size="14.00">+setLength(float) : Vec2&lt;T&gt;</text>
<text text-anchor="middle" x="333" y="-340.8" font-family="Times,serif" font-size="14.00">+rotate() : Vec2&lt;T&gt;</text>
<text text-anchor="middle" x="333" y="-325.8" font-family="Times,serif" font-size="14.00">+getOrientation() : float</text>
<text text-anchor="middle" x="333" y="-310.8" font-family="Times,serif" font-size="14.00">+getOrientationDeg() : float</text>
<text text-anchor="middle" x="333" y="-295.8" font-family="Times,serif" font-size="14.00">+reset()</text>
<text text-anchor="middle" x="333" y="-280.8" font-family="Times,serif" font-size="14.00">+isNull() : bool</text>
<text text-anchor="middle" x="333" y="-265.8" font-family="Times,serif" font-size="14.00">+cast() : Vec2&lt;U&gt;</text>
</g>
<!-- Blob.Maths.Form -->
<g id="node2" class="node">
<title>Blob.Maths.Form</title>
<polygon fill="none" stroke="black" points="535,-529 535,-566 589,-566 589,-529 535,-529"/>
<text text-anchor="middle" x="562" y="-543.8" font-family="Times,serif" font-size="14.00">Form</text>
</g>
<!-- Blob.Maths.Rectangle -->
<g id="node3" class="node">
<title>Blob.Maths.Rectangle</title>
<polygon fill="none" stroke="black" points="0,-30.5 0,-190.5 410,-190.5 410,-30.5 0,-30.5"/>
<text text-anchor="middle" x="205" y="-175.3" font-family="Times,serif" font-size="14.00">Rectangle</text>
<polyline fill="none" stroke="black" points="0,-167.5 410,-167.5 "/>
<text text-anchor="middle" x="205" y="-152.3" font-family="Times,serif" font-size="14.00">+position : Blob::Maths::Point2f</text>
<text text-anchor="middle" x="205" y="-137.3" font-family="Times,serif" font-size="14.00">+size : Blob::Maths::Vec2f</text>
<polyline fill="none" stroke="black" points="0,-129.5 410,-129.5 "/>
<text text-anchor="middle" x="205" y="-113.8" font-family="Times,serif" font-size="14.00">+Rectangle()</text>
<text text-anchor="middle" x="205" y="-98.8" font-family="Times,serif" font-size="14.00">+Rectangle(Blob::Maths::Point2f, Blob::Maths::Vec2f)</text>
<text text-anchor="middle" x="205" y="-83.8" font-family="Times,serif" font-size="14.00">+getPoints() : std::array&lt;Vec2f, 4&gt;</text>
<text text-anchor="middle" x="205" y="-68.8" font-family="Times,serif" font-size="14.00">+overlapBigger(const Blob::Maths::Rectangle &amp;) : bool</text>
<text text-anchor="middle" x="205" y="-53.8" font-family="Times,serif" font-size="14.00">+overlap(const Blob::Maths::Rectangle &amp;) : bool</text>
<text text-anchor="middle" x="205" y="-38.8" font-family="Times,serif" font-size="14.00">+rasterize() : std::list&lt;Vec2i&gt;</text>
</g>
<!-- Blob.Maths.Form&#45;&gt;Blob.Maths.Rectangle -->
<g id="edge1" class="edge">
<title>Blob.Maths.Form&#45;&gt;Blob.Maths.Rectangle</title>
<path fill="none" stroke="black" d="M567.36,-518.81C576.56,-462.57 588.76,-333.83 526,-257 494.26,-218.14 465.24,-240.48 419,-221 397.17,-211.8 374.51,-201.3 352.45,-190.53"/>
<polygon fill="none" stroke="black" points="563.9,-518.29 565.64,-528.74 570.8,-519.49 563.9,-518.29"/>
</g>
<!-- Blob.Maths.Circle -->
<g id="node4" class="node">
<title>Blob.Maths.Circle</title>
<polygon fill="none" stroke="black" points="428.5,-60.5 428.5,-160.5 695.5,-160.5 695.5,-60.5 428.5,-60.5"/>
<text text-anchor="middle" x="562" y="-145.3" font-family="Times,serif" font-size="14.00">Circle</text>
<polyline fill="none" stroke="black" points="428.5,-137.5 695.5,-137.5 "/>
<text text-anchor="middle" x="562" y="-122.3" font-family="Times,serif" font-size="14.00">+rayon : float</text>
<text text-anchor="middle" x="562" y="-107.3" font-family="Times,serif" font-size="14.00">+position : Blob::Maths::Point2f</text>
<polyline fill="none" stroke="black" points="428.5,-99.5 695.5,-99.5 "/>
<text text-anchor="middle" x="562" y="-83.8" font-family="Times,serif" font-size="14.00">+Circle()</text>
<text text-anchor="middle" x="562" y="-68.8" font-family="Times,serif" font-size="14.00">+Circle(Blob::Maths::Point2f, float)</text>
</g>
<!-- Blob.Maths.Form&#45;&gt;Blob.Maths.Circle -->
<g id="edge2" class="edge">
<title>Blob.Maths.Form&#45;&gt;Blob.Maths.Circle</title>
<path fill="none" stroke="black" d="M562,-518.8C562,-446.71 562,-252.47 562,-160.75"/>
<polygon fill="none" stroke="black" points="558.5,-518.91 562,-528.91 565.5,-518.91 558.5,-518.91"/>
</g>
<!-- Blob.Maths.Line -->
<g id="node5" class="node">
<title>Blob.Maths.Line</title>
<polygon fill="none" stroke="black" points="713.5,-0.5 713.5,-220.5 1184.5,-220.5 1184.5,-0.5 713.5,-0.5"/>
<text text-anchor="middle" x="949" y="-205.3" font-family="Times,serif" font-size="14.00">Line</text>
<polyline fill="none" stroke="black" points="713.5,-197.5 1184.5,-197.5 "/>
<text text-anchor="middle" x="949" y="-182.3" font-family="Times,serif" font-size="14.00">+pointA : Blob::Maths::Point2f</text>
<text text-anchor="middle" x="949" y="-167.3" font-family="Times,serif" font-size="14.00">+pointB : Blob::Maths::Point2f</text>
<polyline fill="none" stroke="black" points="713.5,-159.5 1184.5,-159.5 "/>
<text text-anchor="middle" x="949" y="-143.8" font-family="Times,serif" font-size="14.00">+Line()</text>
<text text-anchor="middle" x="949" y="-128.8" font-family="Times,serif" font-size="14.00">+Line(Blob::Maths::Point2f, Blob::Maths::Point2f)</text>
<text text-anchor="middle" x="949" y="-113.8" font-family="Times,serif" font-size="14.00">+getVector() : Blob::Maths::Vec2f</text>
<text text-anchor="middle" x="949" y="-98.8" font-family="Times,serif" font-size="14.00">+Length2() : double</text>
<text text-anchor="middle" x="949" y="-83.8" font-family="Times,serif" font-size="14.00">+Length() : double</text>
<text text-anchor="middle" x="949" y="-68.8" font-family="Times,serif" font-size="14.00">+getOrientation() : double</text>
<text text-anchor="middle" x="949" y="-53.8" font-family="Times,serif" font-size="14.00">+closestPointTo(Blob::Maths::Point2f) : Blob::Maths::Point2f</text>
<text text-anchor="middle" x="949" y="-38.8" font-family="Times,serif" font-size="14.00">+getIntersectionPoint(Blob::Maths::Line) : Blob::Maths::Point2f</text>
<text text-anchor="middle" x="949" y="-23.8" font-family="Times,serif" font-size="14.00">+getGradient() : float</text>
<text text-anchor="middle" x="949" y="-8.8" font-family="Times,serif" font-size="14.00">+getConstant() : float</text>
</g>
<!-- Blob.Maths.Form&#45;&gt;Blob.Maths.Line -->
<g id="edge3" class="edge">
<title>Blob.Maths.Form&#45;&gt;Blob.Maths.Line</title>
<path fill="none" stroke="black" d="M556.64,-518.81C547.44,-462.57 535.24,-333.83 598,-257 629.74,-218.14 658.28,-239.29 705,-221 707.81,-219.9 710.64,-218.78 713.47,-217.66"/>
<polygon fill="none" stroke="black" points="553.2,-519.49 558.36,-528.74 560.1,-518.29 553.2,-519.49"/>
</g>
<!-- Blob.Maths.ModelTransform -->
<g id="node6" class="node">
<title>Blob.Maths.ModelTransform</title>
<polygon fill="none" stroke="black" points="606.5,-430 606.5,-665 971.5,-665 971.5,-430 606.5,-430"/>
<text text-anchor="middle" x="789" y="-649.8" font-family="Times,serif" font-size="14.00">ModelTransform</text>
<polyline fill="none" stroke="black" points="606.5,-642 971.5,-642 "/>
<text text-anchor="middle" x="789" y="-626.8" font-family="Times,serif" font-size="14.00">&#45;translateMatrix : glm::mat4</text>
<text text-anchor="middle" x="789" y="-611.8" font-family="Times,serif" font-size="14.00">&#45;rotateMatrix : glm::mat4</text>
<text text-anchor="middle" x="789" y="-596.8" font-family="Times,serif" font-size="14.00">&#45;scaleMatrix : glm::mat4</text>
<polyline fill="none" stroke="black" points="606.5,-589 971.5,-589 "/>
<text text-anchor="middle" x="789" y="-573.3" font-family="Times,serif" font-size="14.00">+setModelMatrix(const std::array&lt;float, 16&gt; &amp;)</text>
<text text-anchor="middle" x="789" y="-558.3" font-family="Times,serif" font-size="14.00">+setPosition(float, float, float)</text>
<text text-anchor="middle" x="789" y="-543.3" font-family="Times,serif" font-size="14.00">+setPosition(const Maths::Vec2f &amp;, float)</text>
<text text-anchor="middle" x="789" y="-528.3" font-family="Times,serif" font-size="14.00">+move(float, float, float)</text>
<text text-anchor="middle" x="789" y="-513.3" font-family="Times,serif" font-size="14.00">+setRotation(float, float, float, float)</text>
<text text-anchor="middle" x="789" y="-498.3" font-family="Times,serif" font-size="14.00">+rotate(float, float, float, float)</text>
<text text-anchor="middle" x="789" y="-483.3" font-family="Times,serif" font-size="14.00">+setScale(float)</text>
<text text-anchor="middle" x="789" y="-468.3" font-family="Times,serif" font-size="14.00">+setScale(float, float, float)</text>
<text text-anchor="middle" x="789" y="-453.3" font-family="Times,serif" font-size="14.00">+rescale(float)</text>
<text text-anchor="middle" x="789" y="-438.3" font-family="Times,serif" font-size="14.00">+rescale(float, float, float)</text>
</g>
<!-- Blob.Maths.ProjectionTransform -->
<g id="node7" class="node">
<title>Blob.Maths.ProjectionTransform</title>
<polygon fill="none" stroke="black" points="989.5,-460 989.5,-635 1484.5,-635 1484.5,-460 989.5,-460"/>
<text text-anchor="middle" x="1237" y="-619.8" font-family="Times,serif" font-size="14.00">ProjectionTransform</text>
<polyline fill="none" stroke="black" points="989.5,-612 1484.5,-612 "/>
<text text-anchor="middle" x="1237" y="-596.8" font-family="Times,serif" font-size="14.00">&#45;cameraAngle : float</text>
<text text-anchor="middle" x="1237" y="-581.8" font-family="Times,serif" font-size="14.00">&#45;ratio : float</text>
<text text-anchor="middle" x="1237" y="-566.8" font-family="Times,serif" font-size="14.00">&#45;closeRange : float</text>
<text text-anchor="middle" x="1237" y="-551.8" font-family="Times,serif" font-size="14.00">&#45;longRange : float</text>
<polyline fill="none" stroke="black" points="989.5,-544 1484.5,-544 "/>
<text text-anchor="middle" x="1237" y="-528.3" font-family="Times,serif" font-size="14.00">+ProjectionTransform(float, unsigned int, unsigned int, float, float)</text>
<text text-anchor="middle" x="1237" y="-513.3" font-family="Times,serif" font-size="14.00">+setRange(float, float)</text>
<text text-anchor="middle" x="1237" y="-498.3" font-family="Times,serif" font-size="14.00">+setAngle(float)</text>
<text text-anchor="middle" x="1237" y="-483.3" font-family="Times,serif" font-size="14.00">+setRatio(unsigned int, unsigned int)</text>
<text text-anchor="middle" x="1237" y="-468.3" font-family="Times,serif" font-size="14.00">+setOrthoProjection(float, float, float, float, float, float)</text>
</g>
<!-- Blob.Maths.Window -->
<g id="node8" class="node">
<title>Blob.Maths.Window</title>
<polygon fill="none" stroke="black" points="1503,-529 1503,-566 1577,-566 1577,-529 1503,-529"/>
<text text-anchor="middle" x="1540" y="-543.8" font-family="Times,serif" font-size="14.00">Window</text>
</g>
<!-- Blob.Maths.ViewTransform -->
<g id="node9" class="node">
<title>Blob.Maths.ViewTransform</title>
<polygon fill="none" stroke="black" points="1595,-482.5 1595,-612.5 1825,-612.5 1825,-482.5 1595,-482.5"/>
<text text-anchor="middle" x="1710" y="-597.3" font-family="Times,serif" font-size="14.00">ViewTransform</text>
<polyline fill="none" stroke="black" points="1595,-589.5 1825,-589.5 "/>
<text text-anchor="middle" x="1710" y="-574.3" font-family="Times,serif" font-size="14.00">+cameraPosition : glm::vec3</text>
<text text-anchor="middle" x="1710" y="-559.3" font-family="Times,serif" font-size="14.00">+cameraLookAt : glm::vec3</text>
<text text-anchor="middle" x="1710" y="-544.3" font-family="Times,serif" font-size="14.00">+cameraUp : glm::vec3</text>
<polyline fill="none" stroke="black" points="1595,-536.5 1825,-536.5 "/>
<text text-anchor="middle" x="1710" y="-520.8" font-family="Times,serif" font-size="14.00">+ViewTransform()</text>
<text text-anchor="middle" x="1710" y="-505.8" font-family="Times,serif" font-size="14.00">+setPosition(float, float, float)</text>
<text text-anchor="middle" x="1710" y="-490.8" font-family="Times,serif" font-size="14.00">+setLookAt(float, float, float)</text>
</g>
<!-- Blob.Maths.Vec2&lt;float&gt; -->
<g id="node10" class="node">
<title>Blob.Maths.Vec2&lt;float&gt;</title>
<polygon fill="none" stroke="black" points="1843,-529 1843,-566 1949,-566 1949,-529 1843,-529"/>
<text text-anchor="middle" x="1896" y="-543.8" font-family="Times,serif" font-size="14.00">Vec2&lt;float&gt;</text>
</g>
<!-- Blob.Maths.Vec2&lt;int&gt; -->
<g id="node11" class="node">
<title>Blob.Maths.Vec2&lt;int&gt;</title>
<polygon fill="none" stroke="black" points="1967,-529 1967,-566 2061,-566 2061,-529 1967,-529"/>
<text text-anchor="middle" x="2014" y="-543.8" font-family="Times,serif" font-size="14.00">Vec2&lt;int&gt;</text>
</g>
</g>
</svg>
