<?xml version="1.0" encoding="UTF-8" standalone="no"?>
<!DOCTYPE svg PUBLIC "-//W3C//DTD SVG 1.1//EN"
 "http://www.w3.org/Graphics/SVG/1.1/DTD/svg11.dtd">
<!-- Generated by graphviz version 2.44.1 (0)
 -->
<!-- Pages: 1 -->
<svg width="3010pt" height="1761pt"
 viewBox="0.00 0.00 3009.50 1761.00" xmlns="http://www.w3.org/2000/svg" xmlns:xlink="http://www.w3.org/1999/xlink">
<g id="graph0" class="graph" transform="scale(1 1) rotate(0) translate(4 1757)">
<polygon fill="white" stroke="transparent" points="-4,4 -4,-1757 3005.5,-1757 3005.5,4 -4,4"/>
<!-- Blob.glTF2.Accessor -->
<g id="node1" class="node">
<title>Blob.glTF2.Accessor</title>
<polygon fill="none" stroke="black" points="12.5,-98.5 12.5,-303.5 284.5,-303.5 284.5,-98.5 12.5,-98.5"/>
<text text-anchor="middle" x="148.5" y="-288.3" font-family="Times,serif" font-size="14.00">Accessor</text>
<polyline fill="none" stroke="black" points="12.5,-280.5 284.5,-280.5 "/>
<text text-anchor="middle" x="148.5" y="-265.3" font-family="Times,serif" font-size="14.00">+bufferView : int</text>
<text text-anchor="middle" x="148.5" y="-250.3" font-family="Times,serif" font-size="14.00">+byteOffset : unsigned int</text>
<text text-anchor="middle" x="148.5" y="-235.3" font-family="Times,serif" font-size="14.00">+componentType : uint32_t</text>
<text text-anchor="middle" x="148.5" y="-220.3" font-family="Times,serif" font-size="14.00">+normalized : bool</text>
<text text-anchor="middle" x="148.5" y="-205.3" font-family="Times,serif" font-size="14.00">+count : int</text>
<text text-anchor="middle" x="148.5" y="-190.3" font-family="Times,serif" font-size="14.00">+type : Blob::glTF2::Accessor::Type</text>
<text text-anchor="middle" x="148.5" y="-175.3" font-family="Times,serif" font-size="14.00">+max : std::vector&lt;float&gt;</text>
<text text-anchor="middle" x="148.5" y="-160.3" font-family="Times,serif" font-size="14.00">+min : std::vector&lt;float&gt;</text>
<text text-anchor="middle" x="148.5" y="-145.3" font-family="Times,serif" font-size="14.00">+name : std::string</text>
<polyline fill="none" stroke="black" points="12.5,-137.5 284.5,-137.5 "/>
<text text-anchor="middle" x="148.5" y="-121.8" font-family="Times,serif" font-size="14.00">+Accessor(const nlohmann::json &amp;)</text>
<text text-anchor="middle" x="148.5" y="-106.8" font-family="Times,serif" font-size="14.00">+getSize() : uint32_t</text>
</g>
<!-- Blob.glTF2.SceneManager -->
<g id="node2" class="node">
<title>Blob.glTF2.SceneManager</title>
<polygon fill="none" stroke="black" points="359.5,-0.5 359.5,-62.5 639.5,-62.5 639.5,-0.5 359.5,-0.5"/>
<text text-anchor="middle" x="499.5" y="-47.3" font-family="Times,serif" font-size="14.00">SceneManager</text>
<polyline fill="none" stroke="black" points="359.5,-39.5 639.5,-39.5 "/>
<text text-anchor="middle" x="499.5" y="-23.8" font-family="Times,serif" font-size="14.00">+SceneManager(const std::string &amp;)</text>
<text text-anchor="middle" x="499.5" y="-8.8" font-family="Times,serif" font-size="14.00">+createVBO(std::string)</text>
</g>
<!-- Blob.glTF2.Accessor&#45;&gt;Blob.glTF2.SceneManager -->
<g id="edge1" class="edge">
<title>Blob.glTF2.Accessor&#45;&gt;Blob.glTF2.SceneManager</title>
<path fill="none" stroke="black" d="M293.84,-100.83C295.39,-100.04 296.95,-99.26 298.5,-98.5 323.89,-86.04 352.19,-75.11 379.35,-65.91"/>
<polygon fill="black" stroke="black" points="292.16,-97.76 284.91,-105.48 295.4,-103.97 292.16,-97.76"/>
<polygon fill="none" stroke="black" points="379.52,-65.85 383.96,-60.17 390.91,-62.07 386.48,-67.76 379.52,-65.85"/>
</g>
<!-- Blob.glTF2.Asset -->
<g id="node3" class="node">
<title>Blob.glTF2.Asset</title>
<polygon fill="none" stroke="black" points="196,-400 196,-447 357,-447 357,-400 196,-400"/>
<text text-anchor="middle" x="276.5" y="-431.8" font-family="Times,serif" font-size="14.00">Asset</text>
<polyline fill="none" stroke="black" points="196,-424 357,-424 "/>
<text text-anchor="middle" x="276.5" y="-408.3" font-family="Times,serif" font-size="14.00">&#45;version : std::string</text>
</g>
<!-- Blob.glTF2.Asset&#45;&gt;Blob.glTF2.SceneManager -->
<g id="edge2" class="edge">
<title>Blob.glTF2.Asset&#45;&gt;Blob.glTF2.SceneManager</title>
<path fill="none" stroke="black" d="M282.56,-390.47C296.78,-317.95 333.98,-143.96 371.5,-98.5 381.39,-86.51 394.03,-76.46 407.49,-68.1"/>
<polygon fill="black" stroke="black" points="279.1,-389.93 280.63,-400.41 285.97,-391.26 279.1,-389.93"/>
<polygon fill="none" stroke="black" points="407.54,-68.07 410.71,-61.6 417.91,-62.04 414.74,-68.51 407.54,-68.07"/>
</g>
<!-- Blob.glTF2.Buffer -->
<g id="node4" class="node">
<title>Blob.glTF2.Buffer</title>
<polygon fill="none" stroke="black" points="0,-550.5 0,-688.5 395,-688.5 395,-550.5 0,-550.5"/>
<text text-anchor="middle" x="197.5" y="-673.3" font-family="Times,serif" font-size="14.00">Blob::Core::Buffer</text>
<polyline fill="none" stroke="black" points="0,-665.5 395,-665.5 "/>
<text text-anchor="middle" x="197.5" y="-650.3" font-family="Times,serif" font-size="14.00">Buffer</text>
<polyline fill="none" stroke="black" points="0,-642.5 395,-642.5 "/>
<text text-anchor="middle" x="197.5" y="-627.3" font-family="Times,serif" font-size="14.00">+uri : std::string</text>
<text text-anchor="middle" x="197.5" y="-612.3" font-family="Times,serif" font-size="14.00">+byteLength : size_t</text>
<text text-anchor="middle" x="197.5" y="-597.3" font-family="Times,serif" font-size="14.00">+name : std::string</text>
<polyline fill="none" stroke="black" points="0,-589.5 395,-589.5 "/>
<text text-anchor="middle" x="197.5" y="-573.8" font-family="Times,serif" font-size="14.00">+Buffer(const nlohmann::json &amp;, const std::string &amp;)</text>
<text text-anchor="middle" x="197.5" y="-558.8" font-family="Times,serif" font-size="14.00">+getData(size_t, size_t) : std::vector&lt;uint8_t&gt;</text>
</g>
<!-- Blob.glTF2.Buffer&#45;&gt;Blob.glTF2.SceneManager -->
<g id="edge3" class="edge">
<title>Blob.glTF2.Buffer&#45;&gt;Blob.glTF2.SceneManager</title>
<path fill="none" stroke="black" d="M334.97,-544.06C346.76,-533.15 357.29,-520.98 365.5,-507.5 460.6,-351.35 318.24,-256.92 409.5,-98.5 415.8,-87.56 424.73,-77.91 434.54,-69.61"/>
<polygon fill="black" stroke="black" points="332.65,-541.44 327.48,-550.69 337.29,-546.68 332.65,-541.44"/>
<polygon fill="none" stroke="black" points="434.71,-69.47 436.96,-62.62 444.15,-62.06 441.9,-68.91 434.71,-69.47"/>
</g>
<!-- Blob.glTF2.BufferView -->
<g id="node5" class="node">
<title>Blob.glTF2.BufferView</title>
<polygon fill="none" stroke="black" points="121.5,-731.5 121.5,-853.5 433.5,-853.5 433.5,-731.5 121.5,-731.5"/>
<text text-anchor="middle" x="277.5" y="-838.3" font-family="Times,serif" font-size="14.00">BufferView</text>
<polyline fill="none" stroke="black" points="121.5,-830.5 433.5,-830.5 "/>
<text text-anchor="middle" x="277.5" y="-814.8" font-family="Times,serif" font-size="14.00">+buffer : size_t</text>
<text text-anchor="middle" x="277.5" y="-799.8" font-family="Times,serif" font-size="14.00">+byteOffset : size_t</text>
<text text-anchor="middle" x="277.5" y="-784.8" font-family="Times,serif" font-size="14.00">+byteLength : size_t</text>
<text text-anchor="middle" x="277.5" y="-769.8" font-family="Times,serif" font-size="14.00">+byteStride : size_t</text>
<text text-anchor="middle" x="277.5" y="-754.8" font-family="Times,serif" font-size="14.00">+name : std::string</text>
<text text-anchor="middle" x="277.5" y="-739.8" font-family="Times,serif" font-size="14.00">+target : Blob::glTF2::BufferView::Target</text>
</g>
<!-- Blob.glTF2.BufferView&#45;&gt;Blob.glTF2.SceneManager -->
<g id="edge4" class="edge">
<title>Blob.glTF2.BufferView&#45;&gt;Blob.glTF2.SceneManager</title>
<path fill="none" stroke="black" d="M382.12,-724.53C390.45,-715.67 397.82,-705.98 403.5,-695.5 466.88,-578.54 399.34,-222.5 447.5,-98.5 451.1,-89.22 456.48,-80.2 462.43,-71.95"/>
<polygon fill="black" stroke="black" points="379.49,-722.21 374.92,-731.77 384.45,-727.15 379.49,-722.21"/>
<polygon fill="none" stroke="black" points="462.54,-71.81 463.05,-64.61 469.89,-62.32 469.38,-69.51 462.54,-71.81"/>
</g>
<!-- Blob.glTF2.Image -->
<g id="node6" class="node">
<title>Blob.glTF2.Image</title>
<polygon fill="none" stroke="black" points="76,-889.5 76,-1004.5 471,-1004.5 471,-889.5 76,-889.5"/>
<text text-anchor="middle" x="273.5" y="-989.3" font-family="Times,serif" font-size="14.00">Image</text>
<polyline fill="none" stroke="black" points="76,-981.5 471,-981.5 "/>
<text text-anchor="middle" x="273.5" y="-966.3" font-family="Times,serif" font-size="14.00">+uri : std::string</text>
<text text-anchor="middle" x="273.5" y="-951.3" font-family="Times,serif" font-size="14.00">+mimeType : std::string</text>
<text text-anchor="middle" x="273.5" y="-936.3" font-family="Times,serif" font-size="14.00">+bufferView : int</text>
<text text-anchor="middle" x="273.5" y="-921.3" font-family="Times,serif" font-size="14.00">+name : std::string</text>
<polyline fill="none" stroke="black" points="76,-913.5 471,-913.5 "/>
<text text-anchor="middle" x="273.5" y="-897.8" font-family="Times,serif" font-size="14.00">+Image(const nlohmann::json &amp;, const std::string &amp;)</text>
</g>
<!-- Blob.glTF2.Image&#45;&gt;Blob.glTF2.SceneManager -->
<g id="edge5" class="edge">
<title>Blob.glTF2.Image&#45;&gt;Blob.glTF2.SceneManager</title>
<path fill="none" stroke="black" d="M415.98,-883.43C426.15,-874.62 435.24,-864.68 442.5,-853.5 499.06,-766.35 461.5,-724.4 461.5,-620.5 461.5,-620.5 461.5,-620.5 461.5,-422.5 461.5,-278.11 465.14,-241.45 485.5,-98.5 486.63,-90.57 488.16,-82.16 489.78,-74.11"/>
<polygon fill="black" stroke="black" points="413.52,-880.92 407.99,-889.96 417.95,-886.34 413.52,-880.92"/>
<polygon fill="none" stroke="black" points="489.81,-73.98 487.14,-67.28 492.3,-62.25 494.97,-68.95 489.81,-73.98"/>
</g>
<!-- Blob.glTF2.Sampler -->
<g id="node7" class="node">
<title>Blob.glTF2.Sampler</title>
<polygon fill="none" stroke="black" points="241.5,-1040.5 241.5,-1170.5 509.5,-1170.5 509.5,-1040.5 241.5,-1040.5"/>
<text text-anchor="middle" x="375.5" y="-1155.3" font-family="Times,serif" font-size="14.00">Sampler</text>
<polyline fill="none" stroke="black" points="241.5,-1147.5 509.5,-1147.5 "/>
<text text-anchor="middle" x="375.5" y="-1132.3" font-family="Times,serif" font-size="14.00">+magFilter : int</text>
<text text-anchor="middle" x="375.5" y="-1117.3" font-family="Times,serif" font-size="14.00">+minFilter : int</text>
<text text-anchor="middle" x="375.5" y="-1102.3" font-family="Times,serif" font-size="14.00">+wrapS : int</text>
<text text-anchor="middle" x="375.5" y="-1087.3" font-family="Times,serif" font-size="14.00">+wrapT : int</text>
<text text-anchor="middle" x="375.5" y="-1072.3" font-family="Times,serif" font-size="14.00">+name : std::string</text>
<polyline fill="none" stroke="black" points="241.5,-1064.5 509.5,-1064.5 "/>
<text text-anchor="middle" x="375.5" y="-1048.8" font-family="Times,serif" font-size="14.00">+Sampler(const nlohmann::json &amp;)</text>
</g>
<!-- Blob.glTF2.Sampler&#45;&gt;Blob.glTF2.SceneManager -->
<g id="edge6" class="edge">
<title>Blob.glTF2.Sampler&#45;&gt;Blob.glTF2.SceneManager</title>
<path fill="none" stroke="black" d="M461.26,-1033.1C468.36,-1024.1 474.66,-1014.5 479.5,-1004.5 520.45,-919.67 499.5,-887.7 499.5,-793.5 499.5,-793.5 499.5,-793.5 499.5,-422.5 499.5,-295.97 499.5,-146.36 499.5,-74.78"/>
<polygon fill="black" stroke="black" points="458.55,-1030.88 454.82,-1040.8 463.92,-1035.37 458.55,-1030.88"/>
<polygon fill="none" stroke="black" points="499.5,-74.35 495.5,-68.35 499.5,-62.35 503.5,-68.35 499.5,-74.35"/>
</g>
<!-- Blob.glTF2.Texture -->
<g id="node8" class="node">
<title>Blob.glTF2.Texture</title>
<polygon fill="none" stroke="black" points="227.5,-1206.5 227.5,-1329.5 847.5,-1329.5 847.5,-1206.5 227.5,-1206.5"/>
<text text-anchor="middle" x="537.5" y="-1314.3" font-family="Times,serif" font-size="14.00">Blob::Core::Texture</text>
<polyline fill="none" stroke="black" points="227.5,-1306.5 847.5,-1306.5 "/>
<text text-anchor="middle" x="537.5" y="-1291.3" font-family="Times,serif" font-size="14.00">Texture</text>
<polyline fill="none" stroke="black" points="227.5,-1283.5 847.5,-1283.5 "/>
<text text-anchor="middle" x="537.5" y="-1268.3" font-family="Times,serif" font-size="14.00">+sampler : int</text>
<text text-anchor="middle" x="537.5" y="-1253.3" font-family="Times,serif" font-size="14.00">+source : int</text>
<text text-anchor="middle" x="537.5" y="-1238.3" font-family="Times,serif" font-size="14.00">+name : std::string</text>
<polyline fill="none" stroke="black" points="227.5,-1230.5 847.5,-1230.5 "/>
<text text-anchor="middle" x="537.5" y="-1214.8" font-family="Times,serif" font-size="14.00">+Texture(const nlohmann::json &amp;, std::vector&lt;Image&gt; &amp;, std::vector&lt;Sampler&gt; &amp;)</text>
</g>
<!-- Blob.glTF2.Texture&#45;&gt;Blob.glTF2.SceneManager -->
<g id="edge7" class="edge">
<title>Blob.glTF2.Texture&#45;&gt;Blob.glTF2.SceneManager</title>
<path fill="none" stroke="black" d="M537.5,-1196.7C537.5,-1132 537.5,-1033.6 537.5,-948 537.5,-948 537.5,-948 537.5,-422.5 537.5,-278.11 533.86,-241.45 513.5,-98.5 512.37,-90.57 510.84,-82.16 509.22,-74.11"/>
<polygon fill="black" stroke="black" points="534,-1196.7 537.5,-1206.7 541,-1196.7 534,-1196.7"/>
<polygon fill="none" stroke="black" points="509.19,-73.98 504.03,-68.95 506.7,-62.25 511.86,-67.28 509.19,-73.98"/>
</g>
<!-- Blob.glTF2.Material.PbrMetallicRoughness -->
<g id="node9" class="node">
<title>Blob.glTF2.Material.PbrMetallicRoughness</title>
<polygon fill="none" stroke="black" points="566,-554.5 566,-684.5 1117,-684.5 1117,-554.5 566,-554.5"/>
<text text-anchor="middle" x="841.5" y="-669.3" font-family="Times,serif" font-size="14.00">PbrMetallicRoughness</text>
<polyline fill="none" stroke="black" points="566,-661.5 1117,-661.5 "/>
<text text-anchor="middle" x="841.5" y="-646.3" font-family="Times,serif" font-size="14.00">+set : bool</text>
<text text-anchor="middle" x="841.5" y="-631.3" font-family="Times,serif" font-size="14.00">+baseColorFactor : std::array&lt;float, 4&gt;</text>
<text text-anchor="middle" x="841.5" y="-616.3" font-family="Times,serif" font-size="14.00">+metallicFactor : float</text>
<text text-anchor="middle" x="841.5" y="-601.3" font-family="Times,serif" font-size="14.00">+roughnessFactor : float</text>
<polyline fill="none" stroke="black" points="566,-593.5 1117,-593.5 "/>
<text text-anchor="middle" x="841.5" y="-577.8" font-family="Times,serif" font-size="14.00">+PbrMetallicRoughness()</text>
<text text-anchor="middle" x="841.5" y="-562.8" font-family="Times,serif" font-size="14.00">+PbrMetallicRoughness(const nlohmann::json &amp;, std::vector&lt;Texture&gt; &amp;)</text>
</g>
<!-- Blob.glTF2.Material -->
<g id="node10" class="node">
<title>Blob.glTF2.Material</title>
<polygon fill="none" stroke="black" points="617.5,-124.5 617.5,-277.5 1067.5,-277.5 1067.5,-124.5 617.5,-124.5"/>
<text text-anchor="middle" x="842.5" y="-262.3" font-family="Times,serif" font-size="14.00">Blob::Material::SingleColorMaterial</text>
<polyline fill="none" stroke="black" points="617.5,-254.5 1067.5,-254.5 "/>
<text text-anchor="middle" x="842.5" y="-239.3" font-family="Times,serif" font-size="14.00">Material</text>
<polyline fill="none" stroke="black" points="617.5,-231.5 1067.5,-231.5 "/>
<text text-anchor="middle" x="842.5" y="-216.3" font-family="Times,serif" font-size="14.00">+name : std::string</text>
<text text-anchor="middle" x="842.5" y="-201.3" font-family="Times,serif" font-size="14.00">+emissiveFactor : std::array&lt;float, 3&gt;</text>
<text text-anchor="middle" x="842.5" y="-186.3" font-family="Times,serif" font-size="14.00">+alphaMode : std::string</text>
<text text-anchor="middle" x="842.5" y="-171.3" font-family="Times,serif" font-size="14.00">+alphaCutoff : float</text>
<text text-anchor="middle" x="842.5" y="-156.3" font-family="Times,serif" font-size="14.00">+doubleSided : bool</text>
<polyline fill="none" stroke="black" points="617.5,-148.5 1067.5,-148.5 "/>
<text text-anchor="middle" x="842.5" y="-132.8" font-family="Times,serif" font-size="14.00">+Material(const nlohmann::json &amp;, std::vector&lt;Texture&gt; &amp;)</text>
</g>
<!-- Blob.glTF2.Material.PbrMetallicRoughness&#45;&gt;Blob.glTF2.Material -->
<g id="edge8" class="edge">
<title>Blob.glTF2.Material.PbrMetallicRoughness&#45;&gt;Blob.glTF2.Material</title>
<path fill="none" stroke="black" d="M841.68,-544.44C841.85,-473.12 842.11,-365.22 842.29,-289.65"/>
<polygon fill="black" stroke="black" points="838.18,-544.78 841.65,-554.79 845.18,-544.8 838.18,-544.78"/>
<polygon fill="none" stroke="black" points="842.29,-289.34 838.31,-283.33 842.32,-277.34 846.31,-283.35 842.29,-289.34"/>
</g>
<!-- Blob.glTF2.Material&#45;&gt;Blob.glTF2.SceneManager -->
<g id="edge9" class="edge">
<title>Blob.glTF2.Material&#45;&gt;Blob.glTF2.SceneManager</title>
<path fill="none" stroke="black" d="M679.7,-120.5C641.45,-101.82 602.63,-82.86 570.86,-67.35"/>
<polygon fill="black" stroke="black" points="678.29,-123.71 688.81,-124.95 681.36,-117.42 678.29,-123.71"/>
<polygon fill="none" stroke="black" points="570.71,-67.28 563.57,-68.24 559.93,-62.01 567.08,-61.05 570.71,-67.28"/>
</g>
<!-- Blob.glTF2.Material.normalTextureInfo -->
<g id="node11" class="node">
<title>Blob.glTF2.Material.normalTextureInfo</title>
<polygon fill="none" stroke="black" points="907.5,-381 907.5,-466 1429.5,-466 1429.5,-381 907.5,-381"/>
<text text-anchor="middle" x="1168.5" y="-450.8" font-family="Times,serif" font-size="14.00">normalTextureInfo</text>
<polyline fill="none" stroke="black" points="907.5,-443 1429.5,-443 "/>
<text text-anchor="middle" x="1168.5" y="-427.8" font-family="Times,serif" font-size="14.00">+scale : float</text>
<polyline fill="none" stroke="black" points="907.5,-420 1429.5,-420 "/>
<text text-anchor="middle" x="1168.5" y="-404.3" font-family="Times,serif" font-size="14.00">+normalTextureInfo()</text>
<text text-anchor="middle" x="1168.5" y="-389.3" font-family="Times,serif" font-size="14.00">+normalTextureInfo(const nlohmann::json &amp;, std::vector&lt;Texture&gt; &amp;)</text>
</g>
<!-- Blob.glTF2.Material.normalTextureInfo&#45;&gt;Blob.glTF2.Material -->
<g id="edge10" class="edge">
<title>Blob.glTF2.Material.normalTextureInfo&#45;&gt;Blob.glTF2.Material</title>
<path fill="none" stroke="black" d="M1099.3,-375.68C1059.9,-349.02 1009.4,-314.87 963.6,-283.91"/>
<polygon fill="black" stroke="black" points="1097.35,-378.59 1107.6,-381.28 1101.27,-372.79 1097.35,-378.59"/>
<polygon fill="none" stroke="black" points="963.54,-283.87 956.33,-283.82 953.6,-277.15 960.81,-277.2 963.54,-283.87"/>
</g>
<!-- Blob.glTF2.Material.occlusionTextureInfo -->
<g id="node12" class="node">
<title>Blob.glTF2.Material.occlusionTextureInfo</title>
<polygon fill="none" stroke="black" points="1447.5,-381 1447.5,-466 1985.5,-466 1985.5,-381 1447.5,-381"/>
<text text-anchor="middle" x="1716.5" y="-450.8" font-family="Times,serif" font-size="14.00">occlusionTextureInfo</text>
<polyline fill="none" stroke="black" points="1447.5,-443 1985.5,-443 "/>
<text text-anchor="middle" x="1716.5" y="-427.8" font-family="Times,serif" font-size="14.00">+strength : float</text>
<polyline fill="none" stroke="black" points="1447.5,-420 1985.5,-420 "/>
<text text-anchor="middle" x="1716.5" y="-404.3" font-family="Times,serif" font-size="14.00">+occlusionTextureInfo()</text>
<text text-anchor="middle" x="1716.5" y="-389.3" font-family="Times,serif" font-size="14.00">+occlusionTextureInfo(const nlohmann::json &amp;, std::vector&lt;Texture&gt; &amp;)</text>
</g>
<!-- Blob.glTF2.Material.occlusionTextureInfo&#45;&gt;Blob.glTF2.Material -->
<g id="edge11" class="edge">
<title>Blob.glTF2.Material.occlusionTextureInfo&#45;&gt;Blob.glTF2.Material</title>
<path fill="none" stroke="black" d="M1587.5,-378.41C1541,-364.01 1487.9,-349.23 1438.5,-339.5 1279.9,-308.23 1233,-344.16 1076.5,-303.5 1054,-297.67 1031,-289.97 1008.5,-281.41"/>
<polygon fill="black" stroke="black" points="1586.71,-381.83 1597.3,-381.47 1588.8,-375.15 1586.71,-381.83"/>
<polygon fill="none" stroke="black" points="1008.34,-281.35 1001.3,-282.91 997.15,-277.01 1004.19,-275.45 1008.34,-281.35"/>
</g>
<!-- Blob.glTF2.Material.textureInfo -->
<g id="node13" class="node">
<title>Blob.glTF2.Material.textureInfo</title>
<polygon fill="none" stroke="black" points="910.5,-735 910.5,-850 1380.5,-850 1380.5,-735 910.5,-735"/>
<text text-anchor="middle" x="1145.5" y="-834.8" font-family="Times,serif" font-size="14.00">textureInfo</text>
<polyline fill="none" stroke="black" points="910.5,-827 1380.5,-827 "/>
<text text-anchor="middle" x="1145.5" y="-811.8" font-family="Times,serif" font-size="14.00">+set : bool</text>
<text text-anchor="middle" x="1145.5" y="-796.8" font-family="Times,serif" font-size="14.00">+index : size_t</text>
<text text-anchor="middle" x="1145.5" y="-781.8" font-family="Times,serif" font-size="14.00">+texCoord : size_t</text>
<polyline fill="none" stroke="black" points="910.5,-774 1380.5,-774 "/>
<text text-anchor="middle" x="1145.5" y="-758.3" font-family="Times,serif" font-size="14.00">+textureInfo()</text>
<text text-anchor="middle" x="1145.5" y="-743.3" font-family="Times,serif" font-size="14.00">+textureInfo(const nlohmann::json &amp;, std::vector&lt;Texture&gt; &amp;)</text>
</g>
<!-- Blob.glTF2.Material.textureInfo&#45;&gt;Blob.glTF2.Material.PbrMetallicRoughness -->
<g id="edge12" class="edge">
<title>Blob.glTF2.Material.textureInfo&#45;&gt;Blob.glTF2.Material.PbrMetallicRoughness</title>
<path fill="none" stroke="black" d="M1030.1,-730.23C1006.7,-717.21 982.02,-703.38 958.55,-690.08"/>
<polygon fill="black" stroke="black" points="1028.76,-733.49 1039.2,-735.27 1032.15,-727.36 1028.76,-733.49"/>
<polygon fill="none" stroke="black" points="958.3,-689.94 951.1,-690.45 947.86,-684.01 955.05,-683.49 958.3,-689.94"/>
</g>
<!-- Blob.glTF2.Material.textureInfo&#45;&gt;Blob.glTF2.Material.PbrMetallicRoughness -->
<g id="edge13" class="edge">
<title>Blob.glTF2.Material.textureInfo&#45;&gt;Blob.glTF2.Material.PbrMetallicRoughness</title>
<path fill="none" stroke="black" d="M1043.1,-730.23C1020.1,-717.15 995.44,-703.26 971.52,-689.9"/>
<polygon fill="black" stroke="black" points="1041.48,-733.34 1051.9,-735.27 1044.96,-727.26 1041.48,-733.34"/>
<polygon fill="none" stroke="black" points="971.44,-689.86 964.25,-690.43 960.96,-684.01 968.15,-683.44 971.44,-689.86"/>
</g>
<!-- Blob.glTF2.Material.textureInfo&#45;&gt;Blob.glTF2.Material -->
<g id="edge14" class="edge">
<title>Blob.glTF2.Material.textureInfo&#45;&gt;Blob.glTF2.Material</title>
<path fill="none" stroke="black" d="M1149,-725.37C1151,-660.94 1149.2,-569.07 1125.5,-543.5 1056.1,-468.55 971.59,-578.86 898.5,-507.5 882.88,-492.25 864.61,-374.02 853.29,-289.21"/>
<polygon fill="black" stroke="black" points="1145.5,-725.36 1148.7,-735.46 1152.5,-725.57 1145.5,-725.36"/>
<polygon fill="none" stroke="black" points="853.28,-289.12 848.53,-283.69 851.71,-277.22 856.46,-282.65 853.28,-289.12"/>
</g>
<!-- Blob.glTF2.Material.textureInfo&#45;&gt;Blob.glTF2.Material.normalTextureInfo -->
<g id="edge15" class="edge">
<title>Blob.glTF2.Material.textureInfo&#45;&gt;Blob.glTF2.Material.normalTextureInfo</title>
<path fill="none" stroke="black" d="M1156.2,-725.07C1157.5,-715.18 1158.6,-705.09 1159.5,-695.5 1166.7,-614.38 1168.3,-519.14 1168.6,-465.91"/>
<polygon fill="none" stroke="black" points="1152.69,-724.9 1154.8,-735.28 1159.63,-725.85 1152.69,-724.9"/>
</g>
<!-- Blob.glTF2.Material.textureInfo&#45;&gt;Blob.glTF2.Material.occlusionTextureInfo -->
<g id="edge16" class="edge">
<title>Blob.glTF2.Material.textureInfo&#45;&gt;Blob.glTF2.Material.occlusionTextureInfo</title>
<path fill="none" stroke="black" d="M1241.5,-729.82C1358.4,-654.68 1552.6,-529.85 1652.6,-465.56"/>
<polygon fill="none" stroke="black" points="1239.36,-727.04 1232.8,-735.36 1243.11,-732.94 1239.36,-727.04"/>
</g>
<!-- Blob.glTF2.Mesh.Primitive -->
<g id="node14" class="node">
<title>Blob.glTF2.Mesh.Primitive</title>
<polygon fill="none" stroke="black" points="2004,-339.5 2004,-507.5 2287,-507.5 2287,-339.5 2004,-339.5"/>
<text text-anchor="middle" x="2145.5" y="-492.3" font-family="Times,serif" font-size="14.00">Blob::Core::Mesh</text>
<polyline fill="none" stroke="black" points="2004,-484.5 2287,-484.5 "/>
<text text-anchor="middle" x="2145.5" y="-469.3" font-family="Times,serif" font-size="14.00">Primitive</text>
<polyline fill="none" stroke="black" points="2004,-461.5 2287,-461.5 "/>
<text text-anchor="middle" x="2145.5" y="-446.3" font-family="Times,serif" font-size="14.00">+indices : int</text>
<text text-anchor="middle" x="2145.5" y="-431.3" font-family="Times,serif" font-size="14.00">+material : int</text>
<text text-anchor="middle" x="2145.5" y="-416.3" font-family="Times,serif" font-size="14.00">+mode : int</text>
<text text-anchor="middle" x="2145.5" y="-401.3" font-family="Times,serif" font-size="14.00">+vao : GL::VertexArrayObject</text>
<text text-anchor="middle" x="2145.5" y="-386.3" font-family="Times,serif" font-size="14.00">+attributeDescriptor : uint8_t</text>
<text text-anchor="middle" x="2145.5" y="-371.3" font-family="Times,serif" font-size="14.00">+indicesArray : std::vector&lt;uint8_t&gt;</text>
<polyline fill="none" stroke="black" points="2004,-363.5 2287,-363.5 "/>
<text text-anchor="middle" x="2145.5" y="-347.8" font-family="Times,serif" font-size="14.00">+Primitive()</text>
</g>
<!-- Blob.glTF2.Mesh -->
<g id="node15" class="node">
<title>Blob.glTF2.Mesh</title>
<polygon fill="none" stroke="black" points="1085.5,-151 1085.5,-251 2287.5,-251 2287.5,-151 1085.5,-151"/>
<text text-anchor="middle" x="1686.5" y="-235.8" font-family="Times,serif" font-size="14.00">Mesh</text>
<polyline fill="none" stroke="black" points="1085.5,-228 2287.5,-228 "/>
<text text-anchor="middle" x="1686.5" y="-212.8" font-family="Times,serif" font-size="14.00">+weights : std::vector&lt;int&gt;</text>
<text text-anchor="middle" x="1686.5" y="-197.8" font-family="Times,serif" font-size="14.00">+name : std::string</text>
<polyline fill="none" stroke="black" points="1085.5,-190 2287.5,-190 "/>
<text text-anchor="middle" x="1686.5" y="-174.3" font-family="Times,serif" font-size="14.00">+Mesh()</text>
<text text-anchor="middle" x="1686.5" y="-159.3" font-family="Times,serif" font-size="14.00">+Mesh(const nlohmann::json &amp;, std::vector&lt;glTF2::Accessor&gt; &amp;, std::vector&lt;glTF2::Buffer&gt; &amp;, std::vector&lt;glTF2::BufferView&gt; &amp;, std::vector&lt;glTF2::Material&gt; &amp;)</text>
</g>
<!-- Blob.glTF2.Mesh.Primitive&#45;&gt;Blob.glTF2.Mesh -->
<g id="edge17" class="edge">
<title>Blob.glTF2.Mesh.Primitive&#45;&gt;Blob.glTF2.Mesh</title>
<path fill="none" stroke="black" d="M1994.8,-339.64C1994.7,-339.6 1994.6,-339.55 1994.5,-339.5 1935.4,-310.12 1868.6,-279.95 1812.4,-255.39"/>
<polygon fill="black" stroke="black" points="1993.3,-342.8 2003.8,-344.18 1996.45,-336.55 1993.3,-342.8"/>
<polygon fill="none" stroke="black" points="1812.3,-255.35 1805.2,-256.61 1801.3,-250.55 1808.4,-249.28 1812.3,-255.35"/>
</g>
<!-- Blob.glTF2.Mesh&#45;&gt;Blob.glTF2.SceneManager -->
<g id="edge18" class="edge">
<title>Blob.glTF2.Mesh&#45;&gt;Blob.glTF2.SceneManager</title>
<path fill="none" stroke="black" d="M1403.4,-149.81C1300.6,-132.4 1183.5,-113.51 1076.5,-98.5 932.81,-78.34 768.34,-59.99 651.85,-47.78"/>
<polygon fill="black" stroke="black" points="1402.86,-153.27 1413.3,-151.49 1404.03,-146.37 1402.86,-153.27"/>
<polygon fill="none" stroke="black" points="651.61,-47.76 645.22,-51.11 639.67,-46.51 646.05,-43.16 651.61,-47.76"/>
</g>
<!-- Blob.glTF2.Mesh.Primitive.Attribute -->
<g id="node16" class="node">
<title>Blob.glTF2.Mesh.Primitive.Attribute</title>
<polygon fill="none" stroke="black" points="2065,-543.5 2065,-695.5 2226,-695.5 2226,-543.5 2065,-543.5"/>
<text text-anchor="middle" x="2145.5" y="-680.3" font-family="Times,serif" font-size="14.00">Attribute</text>
<polyline fill="none" stroke="black" points="2065,-672.5 2226,-672.5 "/>
<text text-anchor="middle" x="2145.5" y="-656.8" font-family="Times,serif" font-size="14.00">+POSITION : int</text>
<text text-anchor="middle" x="2145.5" y="-641.8" font-family="Times,serif" font-size="14.00">+NORMAL : int</text>
<text text-anchor="middle" x="2145.5" y="-626.8" font-family="Times,serif" font-size="14.00">+TANGENT : int</text>
<text text-anchor="middle" x="2145.5" y="-611.8" font-family="Times,serif" font-size="14.00">+TEXCOORD_0 : int</text>
<text text-anchor="middle" x="2145.5" y="-596.8" font-family="Times,serif" font-size="14.00">+TEXCOORD_1 : int</text>
<text text-anchor="middle" x="2145.5" y="-581.8" font-family="Times,serif" font-size="14.00">+COLOR_0 : int</text>
<text text-anchor="middle" x="2145.5" y="-566.8" font-family="Times,serif" font-size="14.00">+JOINTS_0 : int</text>
<text text-anchor="middle" x="2145.5" y="-551.8" font-family="Times,serif" font-size="14.00">+WEIGHTS_0 : int</text>
</g>
<!-- Blob.glTF2.Mesh.Primitive.Attribute&#45;&gt;Blob.glTF2.Mesh.Primitive -->
<g id="edge19" class="edge">
<title>Blob.glTF2.Mesh.Primitive.Attribute&#45;&gt;Blob.glTF2.Mesh.Primitive</title>
<path fill="none" stroke="black" d="M2145.5,-533.59C2145.5,-528.95 2145.5,-524.26 2145.5,-519.59"/>
<polygon fill="black" stroke="black" points="2142,-533.77 2145.5,-543.77 2149,-533.77 2142,-533.77"/>
<polygon fill="none" stroke="black" points="2145.5,-519.26 2141.5,-513.26 2145.5,-507.26 2149.5,-513.26 2145.5,-519.26"/>
</g>
<!-- Blob.glTF2.Node -->
<g id="node17" class="node">
<title>Blob.glTF2.Node</title>
<polygon fill="none" stroke="black" points="2085,-1365.5 2085,-1608.5 2546,-1608.5 2546,-1365.5 2085,-1365.5"/>
<text text-anchor="middle" x="2315.5" y="-1593.3" font-family="Times,serif" font-size="14.00">Blob::Core::Shape</text>
<polyline fill="none" stroke="black" points="2085,-1585.5 2546,-1585.5 "/>
<text text-anchor="middle" x="2315.5" y="-1570.3" font-family="Times,serif" font-size="14.00">Node</text>
<polyline fill="none" stroke="black" points="2085,-1562.5 2546,-1562.5 "/>
<text text-anchor="middle" x="2315.5" y="-1547.3" font-family="Times,serif" font-size="14.00">&#45;camera : int</text>
<text text-anchor="middle" x="2315.5" y="-1532.3" font-family="Times,serif" font-size="14.00">&#45;children : std::vector&lt;int&gt;</text>
<text text-anchor="middle" x="2315.5" y="-1517.3" font-family="Times,serif" font-size="14.00">&#45;skin : int</text>
<text text-anchor="middle" x="2315.5" y="-1502.3" font-family="Times,serif" font-size="14.00">&#45;matrix : std::array&lt;float, 16&gt;</text>
<text text-anchor="middle" x="2315.5" y="-1487.3" font-family="Times,serif" font-size="14.00">&#45;mesh : int</text>
<text text-anchor="middle" x="2315.5" y="-1472.3" font-family="Times,serif" font-size="14.00">&#45;rotation : std::array&lt;float, 4&gt;</text>
<text text-anchor="middle" x="2315.5" y="-1457.3" font-family="Times,serif" font-size="14.00">&#45;scale : std::array&lt;float, 3&gt;</text>
<text text-anchor="middle" x="2315.5" y="-1442.3" font-family="Times,serif" font-size="14.00">&#45;translation : std::array&lt;float, 3&gt;</text>
<text text-anchor="middle" x="2315.5" y="-1427.3" font-family="Times,serif" font-size="14.00">&#45;weights : std::vector&lt;float&gt;</text>
<text text-anchor="middle" x="2315.5" y="-1412.3" font-family="Times,serif" font-size="14.00">&#45;name : std::string</text>
<polyline fill="none" stroke="black" points="2085,-1404.5 2546,-1404.5 "/>
<text text-anchor="middle" x="2315.5" y="-1388.8" font-family="Times,serif" font-size="14.00">+Node(const nlohmann::json &amp;, std::vector&lt;glTF2::Mesh&gt; &amp;)</text>
<text text-anchor="middle" x="2315.5" y="-1373.8" font-family="Times,serif" font-size="14.00">+updateChild(std::vector&lt;Node&gt; &amp;)</text>
</g>
<!-- Blob.glTF2.Node&#45;&gt;Blob.glTF2.SceneManager -->
<g id="edge20" class="edge">
<title>Blob.glTF2.Node&#45;&gt;Blob.glTF2.SceneManager</title>
<path fill="none" stroke="black" d="M2315.5,-1355.7C2315.5,-1282.5 2315.5,-1189.4 2315.5,-1106.5 2315.5,-1106.5 2315.5,-1106.5 2315.5,-422.5 2315.5,-278.25 2399.6,-199.38 2296.5,-98.5 2238.1,-41.41 1075.3,-33.55 651.94,-32.59"/>
<polygon fill="black" stroke="black" points="2312,-1355.9 2315.5,-1365.9 2319,-1355.9 2312,-1355.9"/>
<polygon fill="none" stroke="black" points="651.63,-32.59 645.62,-36.57 639.63,-32.56 645.64,-28.57 651.63,-32.59"/>
</g>
<!-- Blob.glTF2.Scene -->
<g id="node18" class="node">
<title>Blob.glTF2.Scene</title>
<polygon fill="none" stroke="black" points="2345.5,-1644.5 2345.5,-1752.5 2803.5,-1752.5 2803.5,-1644.5 2345.5,-1644.5"/>
<text text-anchor="middle" x="2574.5" y="-1737.3" font-family="Times,serif" font-size="14.00">Blob::Core::Scene</text>
<polyline fill="none" stroke="black" points="2345.5,-1729.5 2803.5,-1729.5 "/>
<text text-anchor="middle" x="2574.5" y="-1714.3" font-family="Times,serif" font-size="14.00">Scene</text>
<polyline fill="none" stroke="black" points="2345.5,-1706.5 2803.5,-1706.5 "/>
<text text-anchor="middle" x="2574.5" y="-1691.3" font-family="Times,serif" font-size="14.00">+nodes : std::vector&lt;int&gt;</text>
<text text-anchor="middle" x="2574.5" y="-1676.3" font-family="Times,serif" font-size="14.00">+name : std::string</text>
<polyline fill="none" stroke="black" points="2345.5,-1668.5 2803.5,-1668.5 "/>
<text text-anchor="middle" x="2574.5" y="-1652.8" font-family="Times,serif" font-size="14.00">+Scene(const nlohmann::json &amp;, const std::vector&lt;Node&gt; &amp;)</text>
</g>
<!-- Blob.glTF2.Scene&#45;&gt;Blob.glTF2.SceneManager -->
<g id="edge21" class="edge">
<title>Blob.glTF2.Scene&#45;&gt;Blob.glTF2.SceneManager</title>
<path fill="none" stroke="black" d="M2574.5,-1634.6C2574.5,-1551.1 2574.5,-1399 2574.5,-1269 2574.5,-1269 2574.5,-1269 2574.5,-422.5 2574.5,-243.82 2494.4,-182.05 2336.5,-98.5 2262.6,-59.41 1078.9,-40.09 651.7,-34.37"/>
<polygon fill="black" stroke="black" points="2571,-1634.7 2574.5,-1644.7 2578,-1634.7 2571,-1634.7"/>
<polygon fill="none" stroke="black" points="651.59,-34.37 645.54,-38.29 639.59,-34.21 645.64,-30.29 651.59,-34.37"/>
</g>
<!-- Blob.glTF2.TypeInfo -->
<g id="node19" class="node">
<title>Blob.glTF2.TypeInfo</title>
<polygon fill="none" stroke="black" points="2821.5,-1667.5 2821.5,-1729.5 3001.5,-1729.5 3001.5,-1667.5 2821.5,-1667.5"/>
<text text-anchor="middle" x="2911.5" y="-1714.3" font-family="Times,serif" font-size="14.00">TypeInfo</text>
<polyline fill="none" stroke="black" points="2821.5,-1706.5 3001.5,-1706.5 "/>
<text text-anchor="middle" x="2911.5" y="-1690.8" font-family="Times,serif" font-size="14.00">+name : const char *</text>
<text text-anchor="middle" x="2911.5" y="-1675.8" font-family="Times,serif" font-size="14.00">+type : Accessor::Type</text>
</g>
</g>
</svg>
