<?xml version="1.0" encoding="UTF-8" standalone="no"?>
<!DOCTYPE svg PUBLIC "-//W3C//DTD SVG 1.1//EN"
 "http://www.w3.org/Graphics/SVG/1.1/DTD/svg11.dtd">
<!-- Generated by graphviz version 2.44.1 (0)
 -->
<!-- Pages: 1 -->
<svg width="1928pt" height="578pt"
 viewBox="0.00 0.00 1927.50 578.00" xmlns="http://www.w3.org/2000/svg" xmlns:xlink="http://www.w3.org/1999/xlink">
<g id="graph0" class="graph" transform="scale(1 1) rotate(0) translate(4 574)">
<polygon fill="white" stroke="transparent" points="-4,4 -4,-574 1923.5,-574 1923.5,4 -4,4"/>
<!-- Blob.Collision.CollisionDetector -->
<g id="node1" class="node">
<title>Blob.Collision.CollisionDetector</title>
<polygon fill="none" stroke="black" points="0,-349.5 0,-569.5 1052,-569.5 1052,-349.5 0,-349.5"/>
<text text-anchor="middle" x="526" y="-554.3" font-family="Times,serif" font-size="14.00">CollisionDetector</text>
<polyline fill="none" stroke="black" points="0,-546.5 1052,-546.5 "/>
<text text-anchor="middle" x="526" y="-531.3" font-family="Times,serif" font-size="14.00">&#45;timeStoped : bool</text>
<polyline fill="none" stroke="black" points="0,-523.5 1052,-523.5 "/>
<text text-anchor="middle" x="526" y="-507.8" font-family="Times,serif" font-size="14.00">&#45;hashCoor(int) : uint64_t</text>
<text text-anchor="middle" x="526" y="-492.8" font-family="Times,serif" font-size="14.00">&#45;unhashCoor(uint64_t) : int</text>
<text text-anchor="middle" x="526" y="-477.8" font-family="Times,serif" font-size="14.00">&#45;addToSpacialHash(int, Blob::Collision::Object *)</text>
<text text-anchor="middle" x="526" y="-462.8" font-family="Times,serif" font-size="14.00">&#45;removeFromSpacialHash(int, Blob::Collision::Object *)</text>
<text text-anchor="middle" x="526" y="-447.8" font-family="Times,serif" font-size="14.00">&#45;targetOverlap(Blob::Collision::RectDynamic &amp;, int &amp;, const std::unordered_set&lt;Object *&gt; &amp;, std::unordered_map&lt;Object *, Reaction&gt; &amp;) : bool</text>
<text text-anchor="middle" x="526" y="-432.8" font-family="Times,serif" font-size="14.00">&#45;computeLocalCollision(Blob::Collision::RectDynamic &amp;, const std::unordered_set&lt;Object *&gt; &amp;, int)</text>
<text text-anchor="middle" x="526" y="-417.8" font-family="Times,serif" font-size="14.00">&#45;getPath(int, int) : std::list&lt;int64_t&gt;</text>
<text text-anchor="middle" x="526" y="-402.8" font-family="Times,serif" font-size="14.00">+checkCollision(Blob::Collision::RectDynamic &amp;)</text>
<text text-anchor="middle" x="526" y="-387.8" font-family="Times,serif" font-size="14.00">+update()</text>
<text text-anchor="middle" x="526" y="-372.8" font-family="Times,serif" font-size="14.00">+pause()</text>
<text text-anchor="middle" x="526" y="-357.8" font-family="Times,serif" font-size="14.00">+unpause()</text>
</g>
<!-- Blob.Collision.Object -->
<g id="node2" class="node">
<title>Blob.Collision.Object</title>
<polygon fill="none" stroke="black" points="1070,-387 1070,-532 1390,-532 1390,-387 1070,-387"/>
<text text-anchor="middle" x="1230" y="-516.8" font-family="Times,serif" font-size="14.00">Object</text>
<polyline fill="none" stroke="black" points="1070,-509 1390,-509 "/>
<text text-anchor="middle" x="1230" y="-493.8" font-family="Times,serif" font-size="14.00">&#45;objectType : int</text>
<text text-anchor="middle" x="1230" y="-478.8" font-family="Times,serif" font-size="14.00">#enable : bool</text>
<polyline fill="none" stroke="black" points="1070,-471 1390,-471 "/>
<text text-anchor="middle" x="1230" y="-455.3" font-family="Times,serif" font-size="14.00">#setObjectType(int)</text>
<text text-anchor="middle" x="1230" y="-440.3" font-family="Times,serif" font-size="14.00">#Object(int)</text>
<text text-anchor="middle" x="1230" y="-425.3" font-family="Times,serif" font-size="14.00">#hit(int, Blob::Collision::Object &amp;)</text>
<text text-anchor="middle" x="1230" y="-410.3" font-family="Times,serif" font-size="14.00">#getImtemsHere(int) : std::list&lt;Object *&gt;</text>
<text text-anchor="middle" x="1230" y="-395.3" font-family="Times,serif" font-size="14.00">+getObjectType() : int</text>
</g>
<!-- Blob.Collision.DynamicObject -->
<g id="node3" class="node">
<title>Blob.Collision.DynamicObject</title>
<polygon fill="none" stroke="black" points="679.5,-167.5 679.5,-312.5 864.5,-312.5 864.5,-167.5 679.5,-167.5"/>
<text text-anchor="middle" x="772" y="-297.3" font-family="Times,serif" font-size="14.00">DynamicObject</text>
<polyline fill="none" stroke="black" points="679.5,-289.5 864.5,-289.5 "/>
<text text-anchor="middle" x="772" y="-274.3" font-family="Times,serif" font-size="14.00">&#45;reaction : Reaction</text>
<text text-anchor="middle" x="772" y="-259.3" font-family="Times,serif" font-size="14.00">#speed : int</text>
<polyline fill="none" stroke="black" points="679.5,-251.5 864.5,-251.5 "/>
<text text-anchor="middle" x="772" y="-235.8" font-family="Times,serif" font-size="14.00">#DynamicObject(int)</text>
<text text-anchor="middle" x="772" y="-220.8" font-family="Times,serif" font-size="14.00">#setReaction(Reaction)</text>
<text text-anchor="middle" x="772" y="-205.8" font-family="Times,serif" font-size="14.00">#keepMoving() : bool</text>
<text text-anchor="middle" x="772" y="-190.8" font-family="Times,serif" font-size="14.00">#preCollisionUpdate()</text>
<text text-anchor="middle" x="772" y="-175.8" font-family="Times,serif" font-size="14.00">#postCollisionUpdate()</text>
</g>
<!-- Blob.Collision.Object&#45;&gt;Blob.Collision.DynamicObject -->
<g id="edge1" class="edge">
<title>Blob.Collision.Object&#45;&gt;Blob.Collision.DynamicObject</title>
<path fill="none" stroke="black" d="M1124.74,-381.59C1104.33,-369.24 1082.57,-357.68 1061,-349 982.48,-317.41 951.88,-346.15 874,-313 870.91,-311.68 867.82,-310.26 864.74,-308.76"/>
<polygon fill="none" stroke="black" points="1123.05,-384.66 1133.4,-386.93 1126.72,-378.7 1123.05,-384.66"/>
</g>
<!-- Blob.Collision.CircleStatic -->
<g id="node4" class="node">
<title>Blob.Collision.CircleStatic</title>
<polygon fill="none" stroke="black" points="882.5,-175 882.5,-305 1223.5,-305 1223.5,-175 882.5,-175"/>
<text text-anchor="middle" x="1053" y="-289.8" font-family="Times,serif" font-size="14.00">CircleStatic</text>
<polyline fill="none" stroke="black" points="882.5,-282 1223.5,-282 "/>
<text text-anchor="middle" x="1053" y="-266.8" font-family="Times,serif" font-size="14.00">&#45;elementIt : std::list&lt;CircleStatic *&gt;::iterator</text>
<text text-anchor="middle" x="1053" y="-251.8" font-family="Times,serif" font-size="14.00">#mainCircle : int</text>
<polyline fill="none" stroke="black" points="882.5,-244 1223.5,-244 "/>
<text text-anchor="middle" x="1053" y="-228.3" font-family="Times,serif" font-size="14.00">#enableCollision()</text>
<text text-anchor="middle" x="1053" y="-213.3" font-family="Times,serif" font-size="14.00">#disableCollision()</text>
<text text-anchor="middle" x="1053" y="-198.3" font-family="Times,serif" font-size="14.00">#CircleStatic(const int)</text>
<text text-anchor="middle" x="1053" y="-183.3" font-family="Times,serif" font-size="14.00">#~CircleStatic()</text>
</g>
<!-- Blob.Collision.Object&#45;&gt;Blob.Collision.CircleStatic -->
<g id="edge2" class="edge">
<title>Blob.Collision.Object&#45;&gt;Blob.Collision.CircleStatic</title>
<path fill="none" stroke="black" d="M1165.44,-379.17C1145.65,-354.85 1124.13,-328.41 1105.27,-305.23"/>
<polygon fill="none" stroke="black" points="1162.77,-381.43 1171.8,-386.98 1168.2,-377.02 1162.77,-381.43"/>
</g>
<!-- Blob.Collision.RectStatic -->
<g id="node5" class="node">
<title>Blob.Collision.RectStatic</title>
<polygon fill="none" stroke="black" points="1241.5,-182.5 1241.5,-297.5 1572.5,-297.5 1572.5,-182.5 1241.5,-182.5"/>
<text text-anchor="middle" x="1407" y="-282.3" font-family="Times,serif" font-size="14.00">RectStatic</text>
<polyline fill="none" stroke="black" points="1241.5,-274.5 1572.5,-274.5 "/>
<text text-anchor="middle" x="1407" y="-259.3" font-family="Times,serif" font-size="14.00">&#45;elementIt : std::list&lt;RectStatic *&gt;::iterator</text>
<polyline fill="none" stroke="black" points="1241.5,-251.5 1572.5,-251.5 "/>
<text text-anchor="middle" x="1407" y="-235.8" font-family="Times,serif" font-size="14.00">#enableCollision()</text>
<text text-anchor="middle" x="1407" y="-220.8" font-family="Times,serif" font-size="14.00">#disableCollision()</text>
<text text-anchor="middle" x="1407" y="-205.8" font-family="Times,serif" font-size="14.00">+RectStatic(int, int, const int)</text>
<text text-anchor="middle" x="1407" y="-190.8" font-family="Times,serif" font-size="14.00">+~RectStatic()</text>
</g>
<!-- Blob.Collision.Object&#45;&gt;Blob.Collision.RectStatic -->
<g id="edge3" class="edge">
<title>Blob.Collision.Object&#45;&gt;Blob.Collision.RectStatic</title>
<path fill="none" stroke="black" d="M1294.63,-379.08C1316.56,-352.13 1340.61,-322.58 1360.82,-297.75"/>
<polygon fill="none" stroke="black" points="1291.8,-377.02 1288.2,-386.98 1297.23,-381.43 1291.8,-377.02"/>
</g>
<!-- Blob.Collision.LineStatic -->
<g id="node6" class="node">
<title>Blob.Collision.LineStatic</title>
<polygon fill="none" stroke="black" points="1590.5,-175 1590.5,-305 1919.5,-305 1919.5,-175 1590.5,-175"/>
<text text-anchor="middle" x="1755" y="-289.8" font-family="Times,serif" font-size="14.00">LineStatic</text>
<polyline fill="none" stroke="black" points="1590.5,-282 1919.5,-282 "/>
<text text-anchor="middle" x="1755" y="-266.8" font-family="Times,serif" font-size="14.00">&#45;elementIt : std::list&lt;LineStatic *&gt;::iterator</text>
<text text-anchor="middle" x="1755" y="-251.8" font-family="Times,serif" font-size="14.00">#lines : int</text>
<polyline fill="none" stroke="black" points="1590.5,-244 1919.5,-244 "/>
<text text-anchor="middle" x="1755" y="-228.3" font-family="Times,serif" font-size="14.00">#enableCollision()</text>
<text text-anchor="middle" x="1755" y="-213.3" font-family="Times,serif" font-size="14.00">#disableCollision()</text>
<text text-anchor="middle" x="1755" y="-198.3" font-family="Times,serif" font-size="14.00">#LineStatic(const int)</text>
<text text-anchor="middle" x="1755" y="-183.3" font-family="Times,serif" font-size="14.00">#~LineStatic()</text>
</g>
<!-- Blob.Collision.Object&#45;&gt;Blob.Collision.LineStatic -->
<g id="edge4" class="edge">
<title>Blob.Collision.Object&#45;&gt;Blob.Collision.LineStatic</title>
<path fill="none" stroke="black" d="M1399.95,-388.35C1457.74,-364.47 1522.69,-337.6 1582,-313 1588.31,-310.38 1594.75,-307.71 1601.25,-305.01"/>
<polygon fill="none" stroke="black" points="1398.28,-385.25 1390.37,-392.31 1400.95,-391.72 1398.28,-385.25"/>
</g>
<!-- Blob.Collision.CircleDynamic -->
<g id="node7" class="node">
<title>Blob.Collision.CircleDynamic</title>
<polygon fill="none" stroke="black" points="404.5,-0.5 404.5,-130.5 765.5,-130.5 765.5,-0.5 404.5,-0.5"/>
<text text-anchor="middle" x="585" y="-115.3" font-family="Times,serif" font-size="14.00">CircleDynamic</text>
<polyline fill="none" stroke="black" points="404.5,-107.5 765.5,-107.5 "/>
<text text-anchor="middle" x="585" y="-92.3" font-family="Times,serif" font-size="14.00">&#45;elementIt : std::list&lt;CircleDynamic *&gt;::iterator</text>
<text text-anchor="middle" x="585" y="-77.3" font-family="Times,serif" font-size="14.00">#mainCircle : int</text>
<polyline fill="none" stroke="black" points="404.5,-69.5 765.5,-69.5 "/>
<text text-anchor="middle" x="585" y="-53.8" font-family="Times,serif" font-size="14.00">#enableCollision()</text>
<text text-anchor="middle" x="585" y="-38.8" font-family="Times,serif" font-size="14.00">#disableCollision()</text>
<text text-anchor="middle" x="585" y="-23.8" font-family="Times,serif" font-size="14.00">#CircleDynamic(const int)</text>
<text text-anchor="middle" x="585" y="-8.8" font-family="Times,serif" font-size="14.00">#~CircleDynamic()</text>
</g>
<!-- Blob.Collision.DynamicObject&#45;&gt;Blob.Collision.CircleDynamic -->
<g id="edge5" class="edge">
<title>Blob.Collision.DynamicObject&#45;&gt;Blob.Collision.CircleDynamic</title>
<path fill="none" stroke="black" d="M686.89,-160.49C676.11,-150.54 665.18,-140.46 654.67,-130.77"/>
<polygon fill="none" stroke="black" points="684.6,-163.14 694.32,-167.34 689.34,-157.99 684.6,-163.14"/>
</g>
<!-- Blob.Collision.RectDynamic -->
<g id="node8" class="node">
<title>Blob.Collision.RectDynamic</title>
<polygon fill="none" stroke="black" points="783.5,-8 783.5,-123 1134.5,-123 1134.5,-8 783.5,-8"/>
<text text-anchor="middle" x="959" y="-107.8" font-family="Times,serif" font-size="14.00">RectDynamic</text>
<polyline fill="none" stroke="black" points="783.5,-100 1134.5,-100 "/>
<text text-anchor="middle" x="959" y="-84.8" font-family="Times,serif" font-size="14.00">&#45;elementIt : std::list&lt;RectDynamic *&gt;::iterator</text>
<polyline fill="none" stroke="black" points="783.5,-77 1134.5,-77 "/>
<text text-anchor="middle" x="959" y="-61.3" font-family="Times,serif" font-size="14.00">#enableCollision()</text>
<text text-anchor="middle" x="959" y="-46.3" font-family="Times,serif" font-size="14.00">#disableCollision()</text>
<text text-anchor="middle" x="959" y="-31.3" font-family="Times,serif" font-size="14.00">+RectDynamic(int, int, const int)</text>
<text text-anchor="middle" x="959" y="-16.3" font-family="Times,serif" font-size="14.00">+~RectDynamic()</text>
</g>
<!-- Blob.Collision.DynamicObject&#45;&gt;Blob.Collision.RectDynamic -->
<g id="edge6" class="edge">
<title>Blob.Collision.DynamicObject&#45;&gt;Blob.Collision.RectDynamic</title>
<path fill="none" stroke="black" d="M857.2,-160.41C870.79,-147.87 884.61,-135.12 897.51,-123.22"/>
<polygon fill="none" stroke="black" points="854.66,-157.99 849.68,-167.34 859.4,-163.14 854.66,-157.99"/>
</g>
</g>
</svg>
