<?xml version="1.0" encoding="UTF-8" standalone="no"?>
<!DOCTYPE svg PUBLIC "-//W3C//DTD SVG 1.1//EN"
 "http://www.w3.org/Graphics/SVG/1.1/DTD/svg11.dtd">
<!-- Generated by graphviz version 2.44.1 (0)
 -->
<!-- Pages: 1 -->
<svg width="1767pt" height="1081pt"
 viewBox="0.00 0.00 1767.00 1081.00" xmlns="http://www.w3.org/2000/svg" xmlns:xlink="http://www.w3.org/1999/xlink">
<g id="graph0" class="graph" transform="scale(1 1) rotate(0) translate(4 1077)">
<polygon fill="white" stroke="transparent" points="-4,4 -4,-1077 1763,-1077 1763,4 -4,4"/>
<!-- Blob.Core.Controls -->
<g id="node1" class="node">
<title>Blob.Core.Controls</title>
<polygon fill="none" stroke="black" points="89,-939 89,-1001 193,-1001 193,-939 89,-939"/>
<text text-anchor="middle" x="141" y="-985.8" font-family="Times,serif" font-size="14.00">Controls</text>
<polyline fill="none" stroke="black" points="89,-978 193,-978 "/>
<text text-anchor="middle" x="141" y="-962.3" font-family="Times,serif" font-size="14.00">+init(void *)</text>
<text text-anchor="middle" x="141" y="-947.3" font-family="Times,serif" font-size="14.00">+update()</text>
</g>
<!-- Blob.Core.Controls.Keys -->
<g id="node2" class="node">
<title>Blob.Core.Controls.Keys</title>
<polygon fill="none" stroke="black" points="0,-668 0,-715 282,-715 282,-668 0,-668"/>
<text text-anchor="middle" x="141" y="-699.8" font-family="Times,serif" font-size="14.00">Keys</text>
<polyline fill="none" stroke="black" points="0,-692 282,-692 "/>
<text text-anchor="middle" x="141" y="-676.3" font-family="Times,serif" font-size="14.00">+getName(const bool &amp;) : std::string</text>
</g>
<!-- Blob.Core.Controls&#45;&gt;Blob.Core.Controls.Keys -->
<!-- Blob.Core.Controls.Controller -->
<g id="node3" class="node">
<title>Blob.Core.Controls.Controller</title>
<polygon fill="none" stroke="black" points="15,-321.5 15,-481.5 267,-481.5 267,-321.5 15,-321.5"/>
<text text-anchor="middle" x="141" y="-466.3" font-family="Times,serif" font-size="14.00">Controller</text>
<polyline fill="none" stroke="black" points="15,-458.5 267,-458.5 "/>
<text text-anchor="middle" x="141" y="-443.3" font-family="Times,serif" font-size="14.00">+number : int</text>
<text text-anchor="middle" x="141" y="-428.3" font-family="Times,serif" font-size="14.00">+name : std::string</text>
<text text-anchor="middle" x="141" y="-413.3" font-family="Times,serif" font-size="14.00">+stillConnected : bool</text>
<text text-anchor="middle" x="141" y="-398.3" font-family="Times,serif" font-size="14.00">+buttonsCount : int</text>
<text text-anchor="middle" x="141" y="-383.3" font-family="Times,serif" font-size="14.00">+buttons : const unsigned char *</text>
<text text-anchor="middle" x="141" y="-368.3" font-family="Times,serif" font-size="14.00">+joystickAxesCount : int</text>
<text text-anchor="middle" x="141" y="-353.3" font-family="Times,serif" font-size="14.00">+joystickAxes : const float *</text>
<polyline fill="none" stroke="black" points="15,-345.5 267,-345.5 "/>
<text text-anchor="middle" x="141" y="-329.8" font-family="Times,serif" font-size="14.00">+controllerOut()</text>
</g>
<!-- Blob.Core.Controls.Keys&#45;&gt;Blob.Core.Controls.Controller -->
<!-- Blob.Core.Exception -->
<g id="node4" class="node">
<title>Blob.Core.Exception</title>
<polygon fill="none" stroke="black" points="31.5,-166.5 31.5,-251.5 250.5,-251.5 250.5,-166.5 31.5,-166.5"/>
<text text-anchor="middle" x="141" y="-236.3" font-family="Times,serif" font-size="14.00">Exception</text>
<polyline fill="none" stroke="black" points="31.5,-228.5 250.5,-228.5 "/>
<text text-anchor="middle" x="141" y="-213.3" font-family="Times,serif" font-size="14.00">&#45;errorMsg : const std::string</text>
<polyline fill="none" stroke="black" points="31.5,-205.5 250.5,-205.5 "/>
<text text-anchor="middle" x="141" y="-189.8" font-family="Times,serif" font-size="14.00">+Exception(std::string)</text>
<text text-anchor="middle" x="141" y="-174.8" font-family="Times,serif" font-size="14.00">+what() : const char *</text>
</g>
<!-- Blob.Core.Controls.Controller&#45;&gt;Blob.Core.Exception -->
<!-- Blob.Core.Buffer -->
<g id="node5" class="node">
<title>Blob.Core.Buffer</title>
<polygon fill="none" stroke="black" points="29,-83.5 29,-130.5 253,-130.5 253,-83.5 29,-83.5"/>
<text text-anchor="middle" x="141" y="-115.3" font-family="Times,serif" font-size="14.00">Blob::GL::VertexBufferObject</text>
<polyline fill="none" stroke="black" points="29,-107.5 253,-107.5 "/>
<text text-anchor="middle" x="141" y="-91.8" font-family="Times,serif" font-size="14.00">Buffer</text>
</g>
<!-- Blob.Core.Exception&#45;&gt;Blob.Core.Buffer -->
<!-- Blob.Core.Texture -->
<g id="node6" class="node">
<title>Blob.Core.Texture</title>
<polygon fill="none" stroke="black" points="70,-0.5 70,-47.5 212,-47.5 212,-0.5 70,-0.5"/>
<text text-anchor="middle" x="141" y="-32.3" font-family="Times,serif" font-size="14.00">Blob::GL::Texture</text>
<polyline fill="none" stroke="black" points="70,-24.5 212,-24.5 "/>
<text text-anchor="middle" x="141" y="-8.8" font-family="Times,serif" font-size="14.00">Texture</text>
</g>
<!-- Blob.Core.Buffer&#45;&gt;Blob.Core.Texture -->
<!-- Blob.Core.WindowCore -->
<g id="node7" class="node">
<title>Blob.Core.WindowCore</title>
<polygon fill="none" stroke="black" points="326,-551.5 326,-831.5 682,-831.5 682,-551.5 326,-551.5"/>
<text text-anchor="middle" x="504" y="-816.3" font-family="Times,serif" font-size="14.00">WindowCore</text>
<polyline fill="none" stroke="black" points="326,-808.5 682,-808.5 "/>
<text text-anchor="middle" x="504" y="-793.3" font-family="Times,serif" font-size="14.00">&#45;window : void *</text>
<text text-anchor="middle" x="504" y="-778.3" font-family="Times,serif" font-size="14.00">#width : unsigned int</text>
<text text-anchor="middle" x="504" y="-763.3" font-family="Times,serif" font-size="14.00">#height : unsigned int</text>
<text text-anchor="middle" x="504" y="-748.3" font-family="Times,serif" font-size="14.00">#quit : bool</text>
<text text-anchor="middle" x="504" y="-733.3" font-family="Times,serif" font-size="14.00">#fullScreen : bool</text>
<polyline fill="none" stroke="black" points="326,-725.5 682,-725.5 "/>
<text text-anchor="middle" x="504" y="-709.8" font-family="Times,serif" font-size="14.00">&#45;framebuffer_size_callback(void *, int, int)</text>
<text text-anchor="middle" x="504" y="-694.8" font-family="Times,serif" font-size="14.00">&#45;GLFWErrorCallback(int, const char *)</text>
<text text-anchor="middle" x="504" y="-679.8" font-family="Times,serif" font-size="14.00">#WindowCore(bool, unsigned int, unsigned int)</text>
<text text-anchor="middle" x="504" y="-664.8" font-family="Times,serif" font-size="14.00">#~WindowCore()</text>
<text text-anchor="middle" x="504" y="-649.8" font-family="Times,serif" font-size="14.00">+isOpen() : bool</text>
<text text-anchor="middle" x="504" y="-634.8" font-family="Times,serif" font-size="14.00">+getSize() : Blob::Maths::Vec2f</text>
<text text-anchor="middle" x="504" y="-619.8" font-family="Times,serif" font-size="14.00">+getFrameBufferSize() : Blob::Maths::Vec2f</text>
<text text-anchor="middle" x="504" y="-604.8" font-family="Times,serif" font-size="14.00">+setTitle(const std::string &amp;)</text>
<text text-anchor="middle" x="504" y="-589.8" font-family="Times,serif" font-size="14.00">+resize(unsigned int, unsigned int)</text>
<text text-anchor="middle" x="504" y="-574.8" font-family="Times,serif" font-size="14.00">+close()</text>
<text text-anchor="middle" x="504" y="-559.8" font-family="Times,serif" font-size="14.00">+swapBuffers()</text>
</g>
<!-- Blob.Core.Window -->
<g id="node8" class="node">
<title>Blob.Core.Window</title>
<polygon fill="none" stroke="black" points="285,-287.5 285,-515.5 773,-515.5 773,-287.5 285,-287.5"/>
<text text-anchor="middle" x="529" y="-500.3" font-family="Times,serif" font-size="14.00">Blob::Maths::ProjectionTransform</text>
<polyline fill="none" stroke="black" points="285,-492.5 773,-492.5 "/>
<text text-anchor="middle" x="529" y="-477.3" font-family="Times,serif" font-size="14.00">Window</text>
<polyline fill="none" stroke="black" points="285,-469.5 773,-469.5 "/>
<text text-anchor="middle" x="529" y="-454.3" font-family="Times,serif" font-size="14.00">&#45;lastFrameTime : std::chrono::high_resolution_clock::time_point</text>
<text text-anchor="middle" x="529" y="-439.3" font-family="Times,serif" font-size="14.00">&#45;fpsCouner : std::chrono::duration&lt;float&gt;</text>
<polyline fill="none" stroke="black" points="285,-431.5 773,-431.5 "/>
<text text-anchor="middle" x="529" y="-415.8" font-family="Times,serif" font-size="14.00">+Window(Blob::Core::Camera &amp;, bool, unsigned int, unsigned int)</text>
<text text-anchor="middle" x="529" y="-400.8" font-family="Times,serif" font-size="14.00">+~Window()</text>
<text text-anchor="middle" x="529" y="-385.8" font-family="Times,serif" font-size="14.00">+draw(const Blob::Core::Mesh &amp;, glm::mat4)</text>
<text text-anchor="middle" x="529" y="-370.8" font-family="Times,serif" font-size="14.00">+draw(const Blob::Core::Shape &amp;, glm::mat4)</text>
<text text-anchor="middle" x="529" y="-355.8" font-family="Times,serif" font-size="14.00">+draw(const Blob::Core::Scene &amp;)</text>
<text text-anchor="middle" x="529" y="-340.8" font-family="Times,serif" font-size="14.00">+setCamera(Blob::Core::Camera &amp;)</text>
<text text-anchor="middle" x="529" y="-325.8" font-family="Times,serif" font-size="14.00">+display() : float</text>
<text text-anchor="middle" x="529" y="-310.8" font-family="Times,serif" font-size="14.00">+getWorldPosition() : std::array&lt;float, 3&gt;</text>
<text text-anchor="middle" x="529" y="-295.8" font-family="Times,serif" font-size="14.00">+resize(unsigned int, unsigned int)</text>
</g>
<!-- Blob.Core.WindowCore&#45;&gt;Blob.Core.Window -->
<g id="edge6" class="edge">
<title>Blob.Core.WindowCore&#45;&gt;Blob.Core.Window</title>
<path fill="none" stroke="black" d="M516.91,-541.81C517.69,-532.81 518.47,-523.83 519.23,-515.01"/>
<polygon fill="none" stroke="black" points="513.41,-541.71 516.02,-551.98 520.38,-542.32 513.41,-541.71"/>
</g>
<!-- Blob.Core.ImGUI -->
<g id="node9" class="node">
<title>Blob.Core.ImGUI</title>
<polygon fill="none" stroke="black" points="541,-867.5 541,-1072.5 879,-1072.5 879,-867.5 541,-867.5"/>
<text text-anchor="middle" x="710" y="-1057.3" font-family="Times,serif" font-size="14.00">ImGUI</text>
<polyline fill="none" stroke="black" points="541,-1049.5 879,-1049.5 "/>
<text text-anchor="middle" x="710" y="-1034.3" font-family="Times,serif" font-size="14.00">&#45;fontTexture : GL::Texture</text>
<text text-anchor="middle" x="710" y="-1019.3" font-family="Times,serif" font-size="14.00">&#45;vertexBufferObject : GL::VertexBufferObject</text>
<text text-anchor="middle" x="710" y="-1004.3" font-family="Times,serif" font-size="14.00">&#45;vertexArrayObject : GL::VertexArrayObject</text>
<text text-anchor="middle" x="710" y="-989.3" font-family="Times,serif" font-size="14.00">&#45;projectionMatrix : float [16]</text>
<text text-anchor="middle" x="710" y="-974.3" font-family="Times,serif" font-size="14.00">&#45;id : float [16]</text>
<text text-anchor="middle" x="710" y="-959.3" font-family="Times,serif" font-size="14.00">&#45;shader : GL::ShaderProgram</text>
<text text-anchor="middle" x="710" y="-944.3" font-family="Times,serif" font-size="14.00">&#45;projectionPosition : int</text>
<polyline fill="none" stroke="black" points="541,-936.5 879,-936.5 "/>
<text text-anchor="middle" x="710" y="-920.8" font-family="Times,serif" font-size="14.00">&#45;buildFont()</text>
<text text-anchor="middle" x="710" y="-905.8" font-family="Times,serif" font-size="14.00">+ImGUI()</text>
<text text-anchor="middle" x="710" y="-890.8" font-family="Times,serif" font-size="14.00">+draw()</text>
<text text-anchor="middle" x="710" y="-875.8" font-family="Times,serif" font-size="14.00">+setWindowSize(unsigned int, unsigned int)</text>
</g>
<!-- Blob.Core.ImGUI&#45;&gt;Blob.Core.Window -->
<g id="edge7" class="edge">
<title>Blob.Core.ImGUI&#45;&gt;Blob.Core.Window</title>
<path fill="none" stroke="black" d="M727.25,-857.55C735.65,-770.16 735.83,-647.65 691,-551.5 686.81,-542.51 681.8,-533.82 676.19,-525.45"/>
<polygon fill="black" stroke="black" points="723.74,-857.46 726.22,-867.76 730.71,-858.16 723.74,-857.46"/>
<polygon fill="none" stroke="black" points="676,-525.19 669.27,-522.61 669.06,-515.4 675.79,-517.98 676,-525.19"/>
</g>
<!-- Blob.Core.Camera -->
<g id="node10" class="node">
<title>Blob.Core.Camera</title>
<polygon fill="none" stroke="black" points="791.5,-668 791.5,-715 1012.5,-715 1012.5,-668 791.5,-668"/>
<text text-anchor="middle" x="902" y="-699.8" font-family="Times,serif" font-size="14.00">Blob::Maths::ViewTransform</text>
<polyline fill="none" stroke="black" points="791.5,-692 1012.5,-692 "/>
<text text-anchor="middle" x="902" y="-676.3" font-family="Times,serif" font-size="14.00">Camera</text>
</g>
<!-- Blob.Core.Camera&#45;&gt;Blob.Core.Window -->
<g id="edge8" class="edge">
<title>Blob.Core.Camera&#45;&gt;Blob.Core.Window</title>
<path fill="none" stroke="black" d="M865.48,-661.8C829.56,-633.62 773.12,-589.45 724,-551.5 711.77,-542.06 699.1,-532.3 686.35,-522.51"/>
<polygon fill="black" stroke="black" points="863.68,-664.84 873.71,-668.26 868,-659.33 863.68,-664.84"/>
<polygon fill="none" stroke="black" points="686.11,-522.32 678.91,-521.84 676.59,-515.01 683.78,-515.49 686.11,-522.32"/>
</g>
<!-- Blob.Core.Scene -->
<g id="node11" class="node">
<title>Blob.Core.Scene</title>
<polygon fill="none" stroke="black" points="791.5,-359 791.5,-444 1116.5,-444 1116.5,-359 791.5,-359"/>
<text text-anchor="middle" x="954" y="-428.8" font-family="Times,serif" font-size="14.00">Scene</text>
<polyline fill="none" stroke="black" points="791.5,-421 1116.5,-421 "/>
<text text-anchor="middle" x="954" y="-405.8" font-family="Times,serif" font-size="14.00">&#45;shapes : std::list&lt;const Shape *&gt;</text>
<polyline fill="none" stroke="black" points="791.5,-398 1116.5,-398 "/>
<text text-anchor="middle" x="954" y="-382.3" font-family="Times,serif" font-size="14.00">+addShape(const Blob::Core::Shape &amp;)</text>
<text text-anchor="middle" x="954" y="-367.3" font-family="Times,serif" font-size="14.00">+removeShape(const Blob::Core::Shape &amp;)</text>
</g>
<!-- Blob.Core.Camera&#45;&gt;Blob.Core.Scene -->
<g id="edge9" class="edge">
<title>Blob.Core.Camera&#45;&gt;Blob.Core.Scene</title>
<path fill="none" stroke="black" d="M907.82,-658.27C916.69,-609.14 933.69,-514.98 944.41,-455.63"/>
<polygon fill="black" stroke="black" points="904.33,-657.92 905.99,-668.38 911.22,-659.16 904.33,-657.92"/>
<polygon fill="none" stroke="black" points="944.46,-455.33 941.59,-448.72 946.59,-443.52 949.46,-450.13 944.46,-455.33"/>
</g>
<!-- Blob.Core.RenderOptions -->
<g id="node12" class="node">
<title>Blob.Core.RenderOptions</title>
<polygon fill="none" stroke="black" points="1325,-909 1325,-1031 1533,-1031 1533,-909 1325,-909"/>
<text text-anchor="middle" x="1429" y="-1015.8" font-family="Times,serif" font-size="14.00">RenderOptions</text>
<polyline fill="none" stroke="black" points="1325,-1008 1533,-1008 "/>
<text text-anchor="middle" x="1429" y="-992.3" font-family="Times,serif" font-size="14.00">+indexed : bool</text>
<text text-anchor="middle" x="1429" y="-977.3" font-family="Times,serif" font-size="14.00">+indices : void *</text>
<text text-anchor="middle" x="1429" y="-962.3" font-family="Times,serif" font-size="14.00">+numOfIndices : int32_t</text>
<text text-anchor="middle" x="1429" y="-947.3" font-family="Times,serif" font-size="14.00">+indicesType : uint32_t</text>
<text text-anchor="middle" x="1429" y="-932.3" font-family="Times,serif" font-size="14.00">+elementOffset : int32_t</text>
<text text-anchor="middle" x="1429" y="-917.3" font-family="Times,serif" font-size="14.00">+numOfElements : int32_t</text>
</g>
<!-- Blob.Core.Mesh -->
<g id="node13" class="node">
<title>Blob.Core.Mesh</title>
<polygon fill="none" stroke="black" points="1200.5,-619 1200.5,-764 1657.5,-764 1657.5,-619 1200.5,-619"/>
<text text-anchor="middle" x="1429" y="-748.8" font-family="Times,serif" font-size="14.00">Mesh</text>
<polyline fill="none" stroke="black" points="1200.5,-741 1657.5,-741 "/>
<text text-anchor="middle" x="1429" y="-725.8" font-family="Times,serif" font-size="14.00">&#45;material : const Material::Material *</text>
<text text-anchor="middle" x="1429" y="-710.8" font-family="Times,serif" font-size="14.00">&#45;vertexArrayObject : GL::VertexArrayObject &amp;</text>
<polyline fill="none" stroke="black" points="1200.5,-703 1657.5,-703 "/>
<text text-anchor="middle" x="1429" y="-687.3" font-family="Times,serif" font-size="14.00">+Mesh(GL::VertexArrayObject &amp;)</text>
<text text-anchor="middle" x="1429" y="-672.3" font-family="Times,serif" font-size="14.00">+Mesh(GL::VertexArrayObject &amp;, const Material::Material &amp;)</text>
<text text-anchor="middle" x="1429" y="-657.3" font-family="Times,serif" font-size="14.00">+setIndices(void *, int32_t, uint32_t)</text>
<text text-anchor="middle" x="1429" y="-642.3" font-family="Times,serif" font-size="14.00">+setIndices(T *, int32_t)</text>
<text text-anchor="middle" x="1429" y="-627.3" font-family="Times,serif" font-size="14.00">+setMaterial(Material::Material &amp;)</text>
</g>
<!-- Blob.Core.RenderOptions&#45;&gt;Blob.Core.Mesh -->
<g id="edge10" class="edge">
<title>Blob.Core.RenderOptions&#45;&gt;Blob.Core.Mesh</title>
<path fill="none" stroke="black" d="M1429,-899.32C1429,-861.71 1429,-815.05 1429,-775.56"/>
<polygon fill="black" stroke="black" points="1425.5,-899.34 1429,-909.34 1432.5,-899.34 1425.5,-899.34"/>
<polygon fill="none" stroke="black" points="1429,-775.56 1425,-769.56 1429,-763.56 1433,-769.56 1429,-775.56"/>
</g>
<!-- Blob.Core.Shape -->
<g id="node14" class="node">
<title>Blob.Core.Shape</title>
<polygon fill="none" stroke="black" points="1135,-306.5 1135,-496.5 1723,-496.5 1723,-306.5 1135,-306.5"/>
<text text-anchor="middle" x="1429" y="-481.3" font-family="Times,serif" font-size="14.00">Blob::Maths::ModelTransform</text>
<polyline fill="none" stroke="black" points="1135,-473.5 1723,-473.5 "/>
<text text-anchor="middle" x="1429" y="-458.3" font-family="Times,serif" font-size="14.00">Shape</text>
<polyline fill="none" stroke="black" points="1135,-450.5 1723,-450.5 "/>
<text text-anchor="middle" x="1429" y="-434.8" font-family="Times,serif" font-size="14.00">+Shape(Blob::Core::Mesh &amp;, float, float, float, float, float, float, float, float, float)</text>
<text text-anchor="middle" x="1429" y="-419.8" font-family="Times,serif" font-size="14.00">+Shape(float, float, float, float, float, float, float, float, float)</text>
<text text-anchor="middle" x="1429" y="-404.8" font-family="Times,serif" font-size="14.00">+setMesh(Blob::Core::Mesh &amp;)</text>
<text text-anchor="middle" x="1429" y="-389.8" font-family="Times,serif" font-size="14.00">+setMesh(Blob::Core::Mesh *)</text>
<text text-anchor="middle" x="1429" y="-374.8" font-family="Times,serif" font-size="14.00">+setChild(Blob::Core::Shape &amp;)</text>
<text text-anchor="middle" x="1429" y="-359.8" font-family="Times,serif" font-size="14.00">+setChild(Blob::Core::Shape *)</text>
<text text-anchor="middle" x="1429" y="-344.8" font-family="Times,serif" font-size="14.00">+removeMesh()</text>
<text text-anchor="middle" x="1429" y="-329.8" font-family="Times,serif" font-size="14.00">+removeChild(Blob::Core::Shape &amp;)</text>
<text text-anchor="middle" x="1429" y="-314.8" font-family="Times,serif" font-size="14.00">+removeChild(Blob::Core::Shape *)</text>
</g>
<!-- Blob.Core.Mesh&#45;&gt;Blob.Core.Shape -->
<g id="edge11" class="edge">
<title>Blob.Core.Mesh&#45;&gt;Blob.Core.Shape</title>
<path fill="none" stroke="black" d="M1429,-609.1C1429,-577.8 1429,-541.61 1429,-508.35"/>
<polygon fill="black" stroke="black" points="1425.5,-609.31 1429,-619.31 1432.5,-609.31 1425.5,-609.31"/>
<polygon fill="none" stroke="black" points="1429,-508.24 1425,-502.24 1429,-496.24 1433,-502.24 1429,-508.24"/>
</g>
<!-- Blob.Core.Shape&#45;&gt;Blob.Core.Shape -->
<g id="edge12" class="edge">
<title>Blob.Core.Shape&#45;&gt;Blob.Core.Shape</title>
<path fill="none" stroke="black" d="M1732.6,-409.07C1738,-406.89 1741,-404.37 1741,-401.5 1741,-399.03 1738.8,-396.82 1734.8,-394.86"/>
<polygon fill="black" stroke="black" points="1731.53,-405.74 1723,-412.02 1733.59,-412.43 1731.53,-405.74"/>
<polygon fill="none" stroke="black" points="1734.4,-394.73 1727.45,-396.65 1723,-390.98 1729.95,-389.05 1734.4,-394.73"/>
</g>
<!-- Blob.Core.Shape&#45;&gt;Blob.Core.Shape -->
<g id="edge13" class="edge">
<title>Blob.Core.Shape&#45;&gt;Blob.Core.Shape</title>
<path fill="none" stroke="black" d="M1732.9,-425.4C1749.3,-419.55 1759,-411.59 1759,-401.5 1759,-391.79 1750,-384.04 1734.7,-378.26"/>
<polygon fill="black" stroke="black" points="1731.7,-422.11 1723.2,-428.43 1733.79,-428.79 1731.7,-422.11"/>
<polygon fill="none" stroke="black" points="1734.63,-378.24 1727.69,-380.21 1723.2,-374.57 1730.14,-372.59 1734.63,-378.24"/>
</g>
</g>
</svg>
