<?xml version="1.0" encoding="UTF-8" standalone="no"?>
<!DOCTYPE svg PUBLIC "-//W3C//DTD SVG 1.1//EN"
 "http://www.w3.org/Graphics/SVG/1.1/DTD/svg11.dtd">
<!-- Generated by graphviz version 2.44.1 (0)
 -->
<!-- Pages: 1 -->
<svg width="641pt" height="1150pt"
 viewBox="0.00 0.00 641.00 1149.50" xmlns="http://www.w3.org/2000/svg" xmlns:xlink="http://www.w3.org/1999/xlink">
<g id="graph0" class="graph" transform="scale(1 1) rotate(0) translate(4 1145.5)">
<polygon fill="white" stroke="transparent" points="-4,4 -4,-1145.5 637,-1145.5 637,4 -4,4"/>
<!-- Blob::Maths -->
<g id="node1" class="node">
<title>Blob::Maths</title>
<polygon fill="none" stroke="black" points="178,-832 12,-832 12,-836 0,-836 0,-524 178,-524 178,-832"/>
<polyline fill="none" stroke="black" points="0,-832 12,-832 "/>
<text text-anchor="start" x="45.5" y="-814.8" font-family="Times,serif" font-size="14.00">Blob::Maths</text>
<polygon fill="none" stroke="black" points="12,-784 12,-805 166,-805 166,-784 12,-784"/>
<text text-anchor="start" x="55.5" y="-790.8" font-family="Times,serif" font-size="14.00">Vec2&lt;T&gt;</text>
<polygon fill="none" stroke="black" points="12,-761 12,-782 166,-782 166,-761 12,-761"/>
<text text-anchor="start" x="53" y="-767.8" font-family="Times,serif" font-size="14.00">Rectangle</text>
<polygon fill="none" stroke="black" points="12,-738 12,-759 166,-759 166,-738 12,-738"/>
<text text-anchor="start" x="70" y="-744.8" font-family="Times,serif" font-size="14.00">Form</text>
<polygon fill="none" stroke="black" points="12,-715 12,-736 166,-736 166,-715 12,-715"/>
<text text-anchor="start" x="67.5" y="-721.8" font-family="Times,serif" font-size="14.00">Circle</text>
<polygon fill="none" stroke="black" points="12,-692 12,-713 166,-713 166,-692 12,-692"/>
<text text-anchor="start" x="73.5" y="-698.8" font-family="Times,serif" font-size="14.00">Line</text>
<polygon fill="none" stroke="black" points="12,-654 12,-690 166,-690 166,-654 12,-654"/>
<text text-anchor="start" x="52.5" y="-675.8" font-family="Times,serif" font-size="14.00">glm::mat4</text>
<text text-anchor="start" x="29.5" y="-660.8" font-family="Times,serif" font-size="14.00">ModelTransform</text>
<polygon fill="none" stroke="black" points="12,-616 12,-652 166,-652 166,-616 12,-616"/>
<text text-anchor="start" x="52.5" y="-637.8" font-family="Times,serif" font-size="14.00">glm::mat4</text>
<text text-anchor="start" x="15" y="-622.8" font-family="Times,serif" font-size="14.00">ProjectionTransform</text>
<polygon fill="none" stroke="black" points="12,-578 12,-614 166,-614 166,-578 12,-578"/>
<text text-anchor="start" x="52.5" y="-599.8" font-family="Times,serif" font-size="14.00">glm::mat4</text>
<text text-anchor="start" x="34.5" y="-584.8" font-family="Times,serif" font-size="14.00">ViewTransform</text>
<polygon fill="none" stroke="black" points="12,-555 12,-576 166,-576 166,-555 12,-555"/>
<text text-anchor="start" x="44" y="-561.8" font-family="Times,serif" font-size="14.00">Vec2&lt;float&gt;</text>
<polygon fill="none" stroke="black" points="12,-532 12,-553 166,-553 166,-532 12,-532"/>
<text text-anchor="start" x="50" y="-538.8" font-family="Times,serif" font-size="14.00">Vec2&lt;int&gt;</text>
</g>
<!-- Blob::Core -->
<g id="node2" class="node">
<title>Blob::Core</title>
<polygon fill="none" stroke="black" points="378.5,-734 252.5,-734 252.5,-738 240.5,-738 240.5,-364 378.5,-364 378.5,-734"/>
<polyline fill="none" stroke="black" points="240.5,-734 252.5,-734 "/>
<text text-anchor="start" x="271.5" y="-716.8" font-family="Times,serif" font-size="14.00">Blob::Core</text>
<polygon fill="none" stroke="black" points="252.5,-686 252.5,-707 366.5,-707 366.5,-686 252.5,-686"/>
<text text-anchor="start" x="279" y="-692.8" font-family="Times,serif" font-size="14.00">Controls</text>
<polygon fill="none" stroke="black" points="252.5,-663 252.5,-684 366.5,-684 366.5,-663 252.5,-663"/>
<text text-anchor="start" x="292.5" y="-669.8" font-family="Times,serif" font-size="14.00">Keys</text>
<polygon fill="none" stroke="black" points="252.5,-640 252.5,-661 366.5,-661 366.5,-640 252.5,-640"/>
<text text-anchor="start" x="273" y="-646.8" font-family="Times,serif" font-size="14.00">Controller</text>
<polygon fill="none" stroke="black" points="252.5,-617 252.5,-638 366.5,-638 366.5,-617 252.5,-617"/>
<text text-anchor="start" x="280.5" y="-623.8" font-family="Times,serif" font-size="14.00">Window</text>
<polygon fill="none" stroke="black" points="252.5,-579 252.5,-615 366.5,-615 366.5,-579 252.5,-579"/>
<text text-anchor="start" x="259" y="-600.8" font-family="Times,serif" font-size="14.00">std::exception</text>
<text text-anchor="start" x="273.5" y="-585.8" font-family="Times,serif" font-size="14.00">Exception</text>
<polygon fill="none" stroke="black" points="252.5,-556 252.5,-577 366.5,-577 366.5,-556 252.5,-556"/>
<text text-anchor="start" x="255.5" y="-562.8" font-family="Times,serif" font-size="14.00">RenderOptions</text>
<polygon fill="none" stroke="black" points="252.5,-533 252.5,-554 366.5,-554 366.5,-533 252.5,-533"/>
<text text-anchor="start" x="289.5" y="-539.8" font-family="Times,serif" font-size="14.00">Mesh</text>
<polygon fill="none" stroke="black" points="252.5,-510 252.5,-531 366.5,-531 366.5,-510 252.5,-510"/>
<text text-anchor="start" x="281.5" y="-516.8" font-family="Times,serif" font-size="14.00">Camera</text>
<polygon fill="none" stroke="black" points="252.5,-487 252.5,-508 366.5,-508 366.5,-487 252.5,-487"/>
<text text-anchor="start" x="285.5" y="-493.8" font-family="Times,serif" font-size="14.00">ImGUI</text>
<polygon fill="none" stroke="black" points="252.5,-464 252.5,-485 366.5,-485 366.5,-464 252.5,-464"/>
<text text-anchor="start" x="287" y="-470.8" font-family="Times,serif" font-size="14.00">Shape</text>
<polygon fill="none" stroke="black" points="252.5,-441 252.5,-462 366.5,-462 366.5,-441 252.5,-441"/>
<text text-anchor="start" x="288" y="-447.8" font-family="Times,serif" font-size="14.00">Scene</text>
<polygon fill="none" stroke="black" points="252.5,-418 252.5,-439 366.5,-439 366.5,-418 252.5,-418"/>
<text text-anchor="start" x="264" y="-424.8" font-family="Times,serif" font-size="14.00">WindowCore</text>
<polygon fill="none" stroke="black" points="252.5,-395 252.5,-416 366.5,-416 366.5,-395 252.5,-395"/>
<text text-anchor="start" x="287" y="-401.8" font-family="Times,serif" font-size="14.00">Buffer</text>
<polygon fill="none" stroke="black" points="252.5,-372 252.5,-393 366.5,-393 366.5,-372 252.5,-372"/>
<text text-anchor="start" x="282" y="-378.8" font-family="Times,serif" font-size="14.00">Texture</text>
</g>
<!-- Blob::Maths&#45;&gt;Blob::Core -->
<g id="edge1" class="edge">
<title>Blob::Maths&#45;&gt;Blob::Core</title>
<path fill="none" stroke="black" d="M187.04,-620.71C205.05,-610.07 223.51,-599.18 240.43,-589.19"/>
<polygon fill="none" stroke="black" points="185.07,-617.8 178.24,-625.9 188.63,-623.83 185.07,-617.8"/>
</g>
<!-- Blob::Shapes -->
<g id="node3" class="node">
<title>Blob::Shapes</title>
<polygon fill="none" stroke="black" points="609.5,-613.5 476.5,-613.5 476.5,-617.5 464.5,-617.5 464.5,-488.5 609.5,-488.5 609.5,-613.5"/>
<polyline fill="none" stroke="black" points="464.5,-613.5 476.5,-613.5 "/>
<text text-anchor="start" x="490.5" y="-595.8" font-family="Times,serif" font-size="14.00">Blob::Shapes</text>
<polygon fill="none" stroke="black" points="477,-565 477,-586 598,-586 598,-565 477,-565"/>
<text text-anchor="start" x="519" y="-571.8" font-family="Times,serif" font-size="14.00">Cube</text>
<polygon fill="none" stroke="black" points="477,-542 477,-563 598,-563 598,-542 477,-542"/>
<text text-anchor="start" x="517.5" y="-548.8" font-family="Times,serif" font-size="14.00">Plane</text>
<polygon fill="none" stroke="black" points="477,-519 477,-540 598,-540 598,-519 477,-519"/>
<text text-anchor="start" x="480" y="-525.8" font-family="Times,serif" font-size="14.00">OctagonalPrism</text>
<polygon fill="none" stroke="black" points="477,-496 477,-517 598,-517 598,-496 477,-496"/>
<text text-anchor="start" x="520.5" y="-502.8" font-family="Times,serif" font-size="14.00">Data</text>
</g>
<!-- Blob::Core&#45;&gt;Blob::Shapes -->
<g id="edge2" class="edge">
<title>Blob::Core&#45;&gt;Blob::Shapes</title>
<path fill="none" stroke="black" d="M388.78,-549.69C413.36,-549.91 440.35,-550.15 464.44,-550.37"/>
<polygon fill="none" stroke="black" points="388.8,-546.19 378.77,-549.61 388.74,-553.19 388.8,-546.19"/>
</g>
<!-- Blob::glTF2 -->
<g id="node4" class="node">
<title>Blob::glTF2</title>
<polygon fill="none" stroke="black" points="633,-470 453,-470 453,-474 441,-474 441,0 633,0 633,-470"/>
<polyline fill="none" stroke="black" points="441,-470 453,-470 "/>
<text text-anchor="start" x="495.5" y="-452.8" font-family="Times,serif" font-size="14.00">Blob::glTF2</text>
<polygon fill="none" stroke="black" points="453,-422 453,-443 621,-443 621,-422 453,-422"/>
<text text-anchor="start" x="505" y="-428.8" font-family="Times,serif" font-size="14.00">Accessor</text>
<polygon fill="none" stroke="black" points="453,-399 453,-420 621,-420 621,-399 453,-399"/>
<text text-anchor="start" x="517" y="-405.8" font-family="Times,serif" font-size="14.00">Asset</text>
<polygon fill="none" stroke="black" points="453,-376 453,-397 621,-397 621,-376 453,-376"/>
<text text-anchor="start" x="514.5" y="-382.8" font-family="Times,serif" font-size="14.00">Buffer</text>
<polygon fill="none" stroke="black" points="453,-353 453,-374 621,-374 621,-353 453,-353"/>
<text text-anchor="start" x="497.5" y="-359.8" font-family="Times,serif" font-size="14.00">BufferView</text>
<polygon fill="none" stroke="black" points="453,-330 453,-351 621,-351 621,-330 453,-330"/>
<text text-anchor="start" x="514.5" y="-336.8" font-family="Times,serif" font-size="14.00">Image</text>
<polygon fill="none" stroke="black" points="453,-307 453,-328 621,-328 621,-307 453,-307"/>
<text text-anchor="start" x="506.5" y="-313.8" font-family="Times,serif" font-size="14.00">Sampler</text>
<polygon fill="none" stroke="black" points="453,-284 453,-305 621,-305 621,-284 453,-284"/>
<text text-anchor="start" x="509.5" y="-290.8" font-family="Times,serif" font-size="14.00">Texture</text>
<polygon fill="none" stroke="black" points="453,-261 453,-282 621,-282 621,-261 453,-261"/>
<text text-anchor="start" x="506.5" y="-267.8" font-family="Times,serif" font-size="14.00">Material</text>
<polygon fill="none" stroke="black" points="453,-238 453,-259 621,-259 621,-238 453,-238"/>
<text text-anchor="start" x="496.5" y="-244.8" font-family="Times,serif" font-size="14.00">textureInfo</text>
<polygon fill="none" stroke="black" points="453,-215 453,-236 621,-236 621,-215 453,-215"/>
<text text-anchor="start" x="456" y="-221.8" font-family="Times,serif" font-size="14.00">PbrMetallicRoughness</text>
<polygon fill="none" stroke="black" points="453,-192 453,-213 621,-213 621,-192 453,-192"/>
<text text-anchor="start" x="470.5" y="-198.8" font-family="Times,serif" font-size="14.00">normalTextureInfo</text>
<polygon fill="none" stroke="black" points="453,-169 453,-190 621,-190 621,-169 453,-169"/>
<text text-anchor="start" x="462.5" y="-175.8" font-family="Times,serif" font-size="14.00">occlusionTextureInfo</text>
<polygon fill="none" stroke="black" points="453,-146 453,-167 621,-167 621,-146 453,-146"/>
<text text-anchor="start" x="517" y="-152.8" font-family="Times,serif" font-size="14.00">Mesh</text>
<polygon fill="none" stroke="black" points="453,-123 453,-144 621,-144 621,-123 453,-123"/>
<text text-anchor="start" x="503.5" y="-129.8" font-family="Times,serif" font-size="14.00">Primitive</text>
<polygon fill="none" stroke="black" points="453,-100 453,-121 621,-121 621,-100 453,-100"/>
<text text-anchor="start" x="504" y="-106.8" font-family="Times,serif" font-size="14.00">Attribute</text>
<polygon fill="none" stroke="black" points="453,-77 453,-98 621,-98 621,-77 453,-77"/>
<text text-anchor="start" x="518" y="-83.8" font-family="Times,serif" font-size="14.00">Node</text>
<polygon fill="none" stroke="black" points="453,-54 453,-75 621,-75 621,-54 453,-54"/>
<text text-anchor="start" x="515.5" y="-60.8" font-family="Times,serif" font-size="14.00">Scene</text>
<polygon fill="none" stroke="black" points="453,-31 453,-52 621,-52 621,-31 453,-31"/>
<text text-anchor="start" x="483.5" y="-37.8" font-family="Times,serif" font-size="14.00">SceneManager</text>
<polygon fill="none" stroke="black" points="453,-8 453,-29 621,-29 621,-8 453,-8"/>
<text text-anchor="start" x="505.5" y="-14.8" font-family="Times,serif" font-size="14.00">TypeInfo</text>
</g>
<!-- Blob::Core&#45;&gt;Blob::glTF2 -->
<g id="edge3" class="edge">
<title>Blob::Core&#45;&gt;Blob::glTF2</title>
<path fill="none" stroke="black" d="M384.8,-445.55C402.74,-420.55 422.17,-393.51 440.92,-367.39"/>
<polygon fill="none" stroke="black" points="381.76,-443.77 378.77,-453.94 387.45,-447.86 381.76,-443.77"/>
</g>
<!-- Blob::GL -->
<g id="node5" class="node">
<title>Blob::GL</title>
<polygon fill="none" stroke="black" points="173,-505.5 17,-505.5 17,-509.5 5,-509.5 5,-334.5 173,-334.5 173,-505.5"/>
<polyline fill="none" stroke="black" points="5,-505.5 17,-505.5 "/>
<text text-anchor="start" x="58" y="-487.8" font-family="Times,serif" font-size="14.00">Blob::GL</text>
<polygon fill="none" stroke="black" points="17,-457 17,-478 161,-478 161,-457 17,-457"/>
<text text-anchor="start" x="72" y="-463.8" font-family="Times,serif" font-size="14.00">Core</text>
<polygon fill="none" stroke="black" points="17,-434 17,-455 161,-455 161,-434 17,-434"/>
<text text-anchor="start" x="32" y="-440.8" font-family="Times,serif" font-size="14.00">ShaderProgram</text>
<polygon fill="none" stroke="black" points="17,-411 17,-432 161,-432 161,-411 17,-411"/>
<text text-anchor="start" x="61.5" y="-417.8" font-family="Times,serif" font-size="14.00">Texture</text>
<polygon fill="none" stroke="black" points="17,-388 17,-409 161,-409 161,-388 17,-388"/>
<text text-anchor="start" x="20" y="-394.8" font-family="Times,serif" font-size="14.00">VertexBufferObject</text>
<polygon fill="none" stroke="black" points="17,-365 17,-386 161,-386 161,-365 17,-365"/>
<text text-anchor="start" x="22.5" y="-371.8" font-family="Times,serif" font-size="14.00">VertexArrayObject</text>
<polygon fill="none" stroke="black" points="17,-342 17,-363 161,-363 161,-342 17,-342"/>
<text text-anchor="start" x="20" y="-348.8" font-family="Times,serif" font-size="14.00">FrameBufferObject</text>
</g>
<!-- Blob::GL&#45;&gt;Blob::Core -->
<g id="edge4" class="edge">
<title>Blob::GL&#45;&gt;Blob::Core</title>
<path fill="none" stroke="black" d="M181.88,-474.24C201.49,-485.82 221.87,-497.86 240.4,-508.8"/>
<polygon fill="none" stroke="black" points="183.62,-471.21 173.23,-469.14 180.06,-477.24 183.62,-471.21"/>
</g>
<!-- Blob::Material -->
<g id="node6" class="node">
<title>Blob::Material</title>
<polygon fill="none" stroke="black" points="405,-343.5 226,-343.5 226,-347.5 214,-347.5 214,-126.5 405,-126.5 405,-343.5"/>
<polyline fill="none" stroke="black" points="214,-343.5 226,-343.5 "/>
<text text-anchor="start" x="258.5" y="-325.8" font-family="Times,serif" font-size="14.00">Blob::Material</text>
<polygon fill="none" stroke="black" points="226.5,-295 226.5,-316 393.5,-316 393.5,-295 226.5,-295"/>
<text text-anchor="start" x="290.5" y="-301.8" font-family="Times,serif" font-size="14.00">Color</text>
<polygon fill="none" stroke="black" points="226.5,-272 226.5,-293 393.5,-293 393.5,-272 226.5,-272"/>
<text text-anchor="start" x="279.5" y="-278.8" font-family="Times,serif" font-size="14.00">Material</text>
<polygon fill="none" stroke="black" points="226.5,-249 226.5,-270 393.5,-270 393.5,-249 226.5,-249"/>
<text text-anchor="start" x="253" y="-255.8" font-family="Times,serif" font-size="14.00">DefaultMaterial</text>
<polygon fill="none" stroke="black" points="226.5,-226 226.5,-247 393.5,-247 393.5,-226 226.5,-226"/>
<text text-anchor="start" x="278.5" y="-232.8" font-family="Times,serif" font-size="14.00">LightPos</text>
<polygon fill="none" stroke="black" points="226.5,-203 226.5,-224 393.5,-224 393.5,-203 226.5,-203"/>
<text text-anchor="start" x="291" y="-209.8" font-family="Times,serif" font-size="14.00">Light</text>
<polygon fill="none" stroke="black" points="226.5,-180 226.5,-201 393.5,-201 393.5,-180 226.5,-180"/>
<text text-anchor="start" x="264" y="-186.8" font-family="Times,serif" font-size="14.00">PBRMaterial</text>
<polygon fill="none" stroke="black" points="226.5,-157 226.5,-178 393.5,-178 393.5,-157 226.5,-157"/>
<text text-anchor="start" x="237.5" y="-163.8" font-family="Times,serif" font-size="14.00">SingleColorMaterial</text>
<polygon fill="none" stroke="black" points="226.5,-134 226.5,-155 393.5,-155 393.5,-134 226.5,-134"/>
<text text-anchor="start" x="229.5" y="-140.8" font-family="Times,serif" font-size="14.00">SingleTextureMaterial</text>
</g>
<!-- Blob::Material&#45;&gt;Blob::glTF2 -->
<g id="edge5" class="edge">
<title>Blob::Material&#45;&gt;Blob::glTF2</title>
<path fill="none" stroke="black" d="M415.17,-235C423.74,-235 432.37,-235 440.87,-235"/>
<polygon fill="none" stroke="black" points="415.15,-231.5 405.15,-235 415.15,-238.5 415.15,-231.5"/>
</g>
<!-- Blob::Reader -->
<g id="node7" class="node">
<title>Blob::Reader</title>
<polygon fill="none" stroke="black" points="145.5,-906 44.5,-906 44.5,-910 32.5,-910 32.5,-850 145.5,-850 145.5,-906"/>
<polyline fill="none" stroke="black" points="32.5,-906 44.5,-906 "/>
<text text-anchor="start" x="43" y="-888.8" font-family="Times,serif" font-size="14.00">Blob::Reader</text>
<polygon fill="none" stroke="black" points="45,-858 45,-879 134,-879 134,-858 45,-858"/>
<text text-anchor="start" x="50" y="-864.8" font-family="Times,serif" font-size="14.00">FileReader</text>
</g>
<!-- Blob::Collision -->
<g id="node8" class="node">
<title>Blob::Collision</title>
<polygon fill="none" stroke="black" points="166,-1141.5 24,-1141.5 24,-1145.5 12,-1145.5 12,-924.5 166,-924.5 166,-1141.5"/>
<polyline fill="none" stroke="black" points="12,-1141.5 24,-1141.5 "/>
<text text-anchor="start" x="37.5" y="-1123.8" font-family="Times,serif" font-size="14.00">Blob::Collision</text>
<polygon fill="none" stroke="black" points="24,-1093 24,-1114 154,-1114 154,-1093 24,-1093"/>
<text text-anchor="start" x="27" y="-1099.8" font-family="Times,serif" font-size="14.00">CollisionDetector</text>
<polygon fill="none" stroke="black" points="24,-1070 24,-1091 154,-1091 154,-1070 24,-1070"/>
<text text-anchor="start" x="65.5" y="-1076.8" font-family="Times,serif" font-size="14.00">Object</text>
<polygon fill="none" stroke="black" points="24,-1047 24,-1068 154,-1068 154,-1047 24,-1047"/>
<text text-anchor="start" x="34.5" y="-1053.8" font-family="Times,serif" font-size="14.00">DynamicObject</text>
<polygon fill="none" stroke="black" points="24,-1024 24,-1045 154,-1045 154,-1024 24,-1024"/>
<text text-anchor="start" x="46.5" y="-1030.8" font-family="Times,serif" font-size="14.00">CircleStatic</text>
<polygon fill="none" stroke="black" points="24,-1001 24,-1022 154,-1022 154,-1001 24,-1001"/>
<text text-anchor="start" x="36.5" y="-1007.8" font-family="Times,serif" font-size="14.00">CircleDynamic</text>
<polygon fill="none" stroke="black" points="24,-978 24,-999 154,-999 154,-978 24,-978"/>
<text text-anchor="start" x="51.5" y="-984.8" font-family="Times,serif" font-size="14.00">RectStatic</text>
<polygon fill="none" stroke="black" points="24,-955 24,-976 154,-976 154,-955 24,-955"/>
<text text-anchor="start" x="41.5" y="-961.8" font-family="Times,serif" font-size="14.00">RectDynamic</text>
<polygon fill="none" stroke="black" points="24,-932 24,-953 154,-953 154,-932 24,-932"/>
<text text-anchor="start" x="52.5" y="-938.8" font-family="Times,serif" font-size="14.00">LineStatic</text>
</g>
</g>
</svg>
