<?xml version="1.0" encoding="UTF-8" standalone="no"?>
<!DOCTYPE svg PUBLIC "-//W3C//DTD SVG 1.1//EN"
 "http://www.w3.org/Graphics/SVG/1.1/DTD/svg11.dtd">
<!-- Generated by graphviz version 2.44.1 (0)
 -->
<!-- Pages: 1 -->
<svg width="641pt" height="859pt"
 viewBox="0.00 0.00 641.00 859.00" xmlns="http://www.w3.org/2000/svg" xmlns:xlink="http://www.w3.org/1999/xlink">
<g id="graph0" class="graph" transform="scale(1 1) rotate(0) translate(4 855)">
<polygon fill="white" stroke="transparent" points="-4,4 -4,-855 637,-855 637,4 -4,4"/>
<!-- Blob::Maths -->
<g id="node1" class="node">
<title>Blob::Maths</title>
<polygon fill="none" stroke="black" points="178,-535 12,-535 12,-539 0,-539 0,-227 178,-227 178,-535"/>
<polyline fill="none" stroke="black" points="0,-535 12,-535 "/>
<text text-anchor="start" x="45.5" y="-517.8" font-family="Times,serif" font-size="14.00">Blob::Maths</text>
<polygon fill="none" stroke="black" points="12,-487 12,-508 166,-508 166,-487 12,-487"/>
<text text-anchor="start" x="55.5" y="-493.8" font-family="Times,serif" font-size="14.00">Vec2&lt;T&gt;</text>
<polygon fill="none" stroke="black" points="12,-464 12,-485 166,-485 166,-464 12,-464"/>
<text text-anchor="start" x="53" y="-470.8" font-family="Times,serif" font-size="14.00">Rectangle</text>
<polygon fill="none" stroke="black" points="12,-441 12,-462 166,-462 166,-441 12,-441"/>
<text text-anchor="start" x="67.5" y="-447.8" font-family="Times,serif" font-size="14.00">Circle</text>
<polygon fill="none" stroke="black" points="12,-418 12,-439 166,-439 166,-418 12,-418"/>
<text text-anchor="start" x="73.5" y="-424.8" font-family="Times,serif" font-size="14.00">Line</text>
<polygon fill="none" stroke="black" points="12,-395 12,-416 166,-416 166,-395 12,-395"/>
<text text-anchor="start" x="70" y="-401.8" font-family="Times,serif" font-size="14.00">Form</text>
<polygon fill="none" stroke="black" points="12,-357 12,-393 166,-393 166,-357 12,-357"/>
<text text-anchor="start" x="52.5" y="-378.8" font-family="Times,serif" font-size="14.00">glm::mat4</text>
<text text-anchor="start" x="29.5" y="-363.8" font-family="Times,serif" font-size="14.00">ModelTransform</text>
<polygon fill="none" stroke="black" points="12,-319 12,-355 166,-355 166,-319 12,-319"/>
<text text-anchor="start" x="52.5" y="-340.8" font-family="Times,serif" font-size="14.00">glm::mat4</text>
<text text-anchor="start" x="15" y="-325.8" font-family="Times,serif" font-size="14.00">ProjectionTransform</text>
<polygon fill="none" stroke="black" points="12,-281 12,-317 166,-317 166,-281 12,-281"/>
<text text-anchor="start" x="52.5" y="-302.8" font-family="Times,serif" font-size="14.00">glm::mat4</text>
<text text-anchor="start" x="34.5" y="-287.8" font-family="Times,serif" font-size="14.00">ViewTransform</text>
<polygon fill="none" stroke="black" points="12,-258 12,-279 166,-279 166,-258 12,-258"/>
<text text-anchor="start" x="44" y="-264.8" font-family="Times,serif" font-size="14.00">Vec2&lt;float&gt;</text>
<polygon fill="none" stroke="black" points="12,-235 12,-256 166,-256 166,-235 12,-235"/>
<text text-anchor="start" x="50" y="-241.8" font-family="Times,serif" font-size="14.00">Vec2&lt;int&gt;</text>
</g>
<!-- Blob -->
<g id="node2" class="node">
<title>Blob</title>
<polygon fill="none" stroke="black" points="378.5,-851 252.5,-851 252.5,-855 240.5,-855 240.5,-481 378.5,-481 378.5,-851"/>
<polyline fill="none" stroke="black" points="240.5,-851 252.5,-851 "/>
<text text-anchor="start" x="271.5" y="-833.8" font-family="Times,serif" font-size="14.00">Blob</text>
<polygon fill="none" stroke="black" points="252.5,-803 252.5,-824 366.5,-824 366.5,-803 252.5,-803"/>
<text text-anchor="start" x="279" y="-809.8" font-family="Times,serif" font-size="14.00">Controls</text>
<polygon fill="none" stroke="black" points="252.5,-780 252.5,-801 366.5,-801 366.5,-780 252.5,-780"/>
<text text-anchor="start" x="292.5" y="-786.8" font-family="Times,serif" font-size="14.00">Keys</text>
<polygon fill="none" stroke="black" points="252.5,-757 252.5,-778 366.5,-778 366.5,-757 252.5,-757"/>
<text text-anchor="start" x="273" y="-763.8" font-family="Times,serif" font-size="14.00">Controller</text>
<polygon fill="none" stroke="black" points="252.5,-734 252.5,-755 366.5,-755 366.5,-734 252.5,-734"/>
<text text-anchor="start" x="280.5" y="-740.8" font-family="Times,serif" font-size="14.00">Window</text>
<polygon fill="none" stroke="black" points="252.5,-696 252.5,-732 366.5,-732 366.5,-696 252.5,-696"/>
<text text-anchor="start" x="259" y="-717.8" font-family="Times,serif" font-size="14.00">std::exception</text>
<text text-anchor="start" x="273.5" y="-702.8" font-family="Times,serif" font-size="14.00">Exception</text>
<polygon fill="none" stroke="black" points="252.5,-673 252.5,-694 366.5,-694 366.5,-673 252.5,-673"/>
<text text-anchor="start" x="255.5" y="-679.8" font-family="Times,serif" font-size="14.00">RenderOptions</text>
<polygon fill="none" stroke="black" points="252.5,-650 252.5,-671 366.5,-671 366.5,-650 252.5,-650"/>
<text text-anchor="start" x="289.5" y="-656.8" font-family="Times,serif" font-size="14.00">Mesh</text>
<polygon fill="none" stroke="black" points="252.5,-627 252.5,-648 366.5,-648 366.5,-627 252.5,-627"/>
<text text-anchor="start" x="281.5" y="-633.8" font-family="Times,serif" font-size="14.00">Camera</text>
<polygon fill="none" stroke="black" points="252.5,-604 252.5,-625 366.5,-625 366.5,-604 252.5,-604"/>
<text text-anchor="start" x="285.5" y="-610.8" font-family="Times,serif" font-size="14.00">ImGUI</text>
<polygon fill="none" stroke="black" points="252.5,-581 252.5,-602 366.5,-602 366.5,-581 252.5,-581"/>
<text text-anchor="start" x="287" y="-587.8" font-family="Times,serif" font-size="14.00">Shape</text>
<polygon fill="none" stroke="black" points="252.5,-558 252.5,-579 366.5,-579 366.5,-558 252.5,-558"/>
<text text-anchor="start" x="288" y="-564.8" font-family="Times,serif" font-size="14.00">Scene</text>
<polygon fill="none" stroke="black" points="252.5,-535 252.5,-556 366.5,-556 366.5,-535 252.5,-535"/>
<text text-anchor="start" x="264" y="-541.8" font-family="Times,serif" font-size="14.00">WindowCore</text>
<polygon fill="none" stroke="black" points="252.5,-512 252.5,-533 366.5,-533 366.5,-512 252.5,-512"/>
<text text-anchor="start" x="287" y="-518.8" font-family="Times,serif" font-size="14.00">Buffer</text>
<polygon fill="none" stroke="black" points="252.5,-489 252.5,-510 366.5,-510 366.5,-489 252.5,-489"/>
<text text-anchor="start" x="282" y="-495.8" font-family="Times,serif" font-size="14.00">Texture</text>
</g>
<!-- Blob::Maths&#45;&gt;Blob -->
<g id="edge1" class="edge">
<title>Blob::Maths&#45;&gt;Blob</title>
<path fill="none" stroke="black" d="M184.34,-504.05C203.2,-528.66 222.67,-554.04 240.43,-577.21"/>
<polygon fill="none" stroke="black" points="187.1,-501.91 178.24,-496.1 181.55,-506.16 187.1,-501.91"/>
</g>
<!-- Blob -->
<g id="node3" class="node">
<title>Blob</title>
<polygon fill="none" stroke="black" points="386.5,-462.5 244.5,-462.5 244.5,-466.5 232.5,-466.5 232.5,-245.5 386.5,-245.5 386.5,-462.5"/>
<polyline fill="none" stroke="black" points="232.5,-462.5 244.5,-462.5 "/>
<text text-anchor="start" x="258" y="-444.8" font-family="Times,serif" font-size="14.00">Blob</text>
<polygon fill="none" stroke="black" points="244.5,-414 244.5,-435 374.5,-435 374.5,-414 244.5,-414"/>
<text text-anchor="start" x="247.5" y="-420.8" font-family="Times,serif" font-size="14.00">CollisionDetector</text>
<polygon fill="none" stroke="black" points="244.5,-391 244.5,-412 374.5,-412 374.5,-391 244.5,-391"/>
<text text-anchor="start" x="286" y="-397.8" font-family="Times,serif" font-size="14.00">Object</text>
<polygon fill="none" stroke="black" points="244.5,-368 244.5,-389 374.5,-389 374.5,-368 244.5,-368"/>
<text text-anchor="start" x="255" y="-374.8" font-family="Times,serif" font-size="14.00">DynamicObject</text>
<polygon fill="none" stroke="black" points="244.5,-345 244.5,-366 374.5,-366 374.5,-345 244.5,-345"/>
<text text-anchor="start" x="267" y="-351.8" font-family="Times,serif" font-size="14.00">CircleStatic</text>
<polygon fill="none" stroke="black" points="244.5,-322 244.5,-343 374.5,-343 374.5,-322 244.5,-322"/>
<text text-anchor="start" x="257" y="-328.8" font-family="Times,serif" font-size="14.00">CircleDynamic</text>
<polygon fill="none" stroke="black" points="244.5,-299 244.5,-320 374.5,-320 374.5,-299 244.5,-299"/>
<text text-anchor="start" x="272" y="-305.8" font-family="Times,serif" font-size="14.00">RectStatic</text>
<polygon fill="none" stroke="black" points="244.5,-276 244.5,-297 374.5,-297 374.5,-276 244.5,-276"/>
<text text-anchor="start" x="262" y="-282.8" font-family="Times,serif" font-size="14.00">RectDynamic</text>
<polygon fill="none" stroke="black" points="244.5,-253 244.5,-274 374.5,-274 374.5,-253 244.5,-253"/>
<text text-anchor="start" x="273" y="-259.8" font-family="Times,serif" font-size="14.00">LineStatic</text>
</g>
<!-- Blob::Maths&#45;&gt;Blob -->
<g id="edge2" class="edge">
<title>Blob::Maths&#45;&gt;Blob</title>
<path fill="none" stroke="black" d="M188.37,-368.84C203.08,-367.03 218.06,-365.18 232.22,-363.43"/>
<polygon fill="none" stroke="black" points="187.74,-365.4 178.24,-370.1 188.6,-372.34 187.74,-365.4"/>
</g>
<!-- Blob::Shapes -->
<g id="node4" class="node">
<title>Blob::Shapes</title>
<polygon fill="none" stroke="black" points="609.5,-728.5 476.5,-728.5 476.5,-732.5 464.5,-732.5 464.5,-603.5 609.5,-603.5 609.5,-728.5"/>
<polyline fill="none" stroke="black" points="464.5,-728.5 476.5,-728.5 "/>
<text text-anchor="start" x="490.5" y="-710.8" font-family="Times,serif" font-size="14.00">Blob::Shapes</text>
<polygon fill="none" stroke="black" points="477,-680 477,-701 598,-701 598,-680 477,-680"/>
<text text-anchor="start" x="519" y="-686.8" font-family="Times,serif" font-size="14.00">Cube</text>
<polygon fill="none" stroke="black" points="477,-657 477,-678 598,-678 598,-657 477,-657"/>
<text text-anchor="start" x="517.5" y="-663.8" font-family="Times,serif" font-size="14.00">Plane</text>
<polygon fill="none" stroke="black" points="477,-634 477,-655 598,-655 598,-634 477,-634"/>
<text text-anchor="start" x="480" y="-640.8" font-family="Times,serif" font-size="14.00">OctagonalPrism</text>
<polygon fill="none" stroke="black" points="477,-611 477,-632 598,-632 598,-611 477,-611"/>
<text text-anchor="start" x="520.5" y="-617.8" font-family="Times,serif" font-size="14.00">Data</text>
</g>
<!-- Blob&#45;&gt;Blob::Shapes -->
<g id="edge3" class="edge">
<title>Blob&#45;&gt;Blob::Shapes</title>
<path fill="none" stroke="black" d="M388.78,-666C413.36,-666 440.35,-666 464.44,-666"/>
<polygon fill="none" stroke="black" points="388.77,-662.5 378.77,-666 388.77,-669.5 388.77,-662.5"/>
</g>
<!-- Blob::glTF2 -->
<g id="node5" class="node">
<title>Blob::glTF2</title>
<polygon fill="none" stroke="black" points="633,-470 453,-470 453,-474 441,-474 441,0 633,0 633,-470"/>
<polyline fill="none" stroke="black" points="441,-470 453,-470 "/>
<text text-anchor="start" x="495.5" y="-452.8" font-family="Times,serif" font-size="14.00">Blob::glTF2</text>
<polygon fill="none" stroke="black" points="453,-422 453,-443 621,-443 621,-422 453,-422"/>
<text text-anchor="start" x="505" y="-428.8" font-family="Times,serif" font-size="14.00">Accessor</text>
<polygon fill="none" stroke="black" points="453,-399 453,-420 621,-420 621,-399 453,-399"/>
<text text-anchor="start" x="517" y="-405.8" font-family="Times,serif" font-size="14.00">Asset</text>
<polygon fill="none" stroke="black" points="453,-376 453,-397 621,-397 621,-376 453,-376"/>
<text text-anchor="start" x="514.5" y="-382.8" font-family="Times,serif" font-size="14.00">Buffer</text>
<polygon fill="none" stroke="black" points="453,-353 453,-374 621,-374 621,-353 453,-353"/>
<text text-anchor="start" x="497.5" y="-359.8" font-family="Times,serif" font-size="14.00">BufferView</text>
<polygon fill="none" stroke="black" points="453,-330 453,-351 621,-351 621,-330 453,-330"/>
<text text-anchor="start" x="514.5" y="-336.8" font-family="Times,serif" font-size="14.00">Image</text>
<polygon fill="none" stroke="black" points="453,-307 453,-328 621,-328 621,-307 453,-307"/>
<text text-anchor="start" x="506.5" y="-313.8" font-family="Times,serif" font-size="14.00">Sampler</text>
<polygon fill="none" stroke="black" points="453,-284 453,-305 621,-305 621,-284 453,-284"/>
<text text-anchor="start" x="509.5" y="-290.8" font-family="Times,serif" font-size="14.00">Texture</text>
<polygon fill="none" stroke="black" points="453,-261 453,-282 621,-282 621,-261 453,-261"/>
<text text-anchor="start" x="506.5" y="-267.8" font-family="Times,serif" font-size="14.00">Material</text>
<polygon fill="none" stroke="black" points="453,-238 453,-259 621,-259 621,-238 453,-238"/>
<text text-anchor="start" x="496.5" y="-244.8" font-family="Times,serif" font-size="14.00">textureInfo</text>
<polygon fill="none" stroke="black" points="453,-215 453,-236 621,-236 621,-215 453,-215"/>
<text text-anchor="start" x="456" y="-221.8" font-family="Times,serif" font-size="14.00">PbrMetallicRoughness</text>
<polygon fill="none" stroke="black" points="453,-192 453,-213 621,-213 621,-192 453,-192"/>
<text text-anchor="start" x="470.5" y="-198.8" font-family="Times,serif" font-size="14.00">normalTextureInfo</text>
<polygon fill="none" stroke="black" points="453,-169 453,-190 621,-190 621,-169 453,-169"/>
<text text-anchor="start" x="462.5" y="-175.8" font-family="Times,serif" font-size="14.00">occlusionTextureInfo</text>
<polygon fill="none" stroke="black" points="453,-146 453,-167 621,-167 621,-146 453,-146"/>
<text text-anchor="start" x="517" y="-152.8" font-family="Times,serif" font-size="14.00">Mesh</text>
<polygon fill="none" stroke="black" points="453,-123 453,-144 621,-144 621,-123 453,-123"/>
<text text-anchor="start" x="503.5" y="-129.8" font-family="Times,serif" font-size="14.00">Primitive</text>
<polygon fill="none" stroke="black" points="453,-100 453,-121 621,-121 621,-100 453,-100"/>
<text text-anchor="start" x="504" y="-106.8" font-family="Times,serif" font-size="14.00">Attribute</text>
<polygon fill="none" stroke="black" points="453,-77 453,-98 621,-98 621,-77 453,-77"/>
<text text-anchor="start" x="518" y="-83.8" font-family="Times,serif" font-size="14.00">Node</text>
<polygon fill="none" stroke="black" points="453,-54 453,-75 621,-75 621,-54 453,-54"/>
<text text-anchor="start" x="515.5" y="-60.8" font-family="Times,serif" font-size="14.00">Scene</text>
<polygon fill="none" stroke="black" points="453,-31 453,-52 621,-52 621,-31 453,-31"/>
<text text-anchor="start" x="483.5" y="-37.8" font-family="Times,serif" font-size="14.00">SceneManager</text>
<polygon fill="none" stroke="black" points="453,-8 453,-29 621,-29 621,-8 453,-8"/>
<text text-anchor="start" x="505.5" y="-14.8" font-family="Times,serif" font-size="14.00">TypeInfo</text>
</g>
<!-- Blob&#45;&gt;Blob::glTF2 -->
<g id="edge4" class="edge">
<title>Blob&#45;&gt;Blob::glTF2</title>
<path fill="none" stroke="black" d="M383.48,-526.52C401.75,-491.59 421.63,-453.6 440.81,-416.94"/>
<polygon fill="none" stroke="black" points="380.15,-525.33 378.62,-535.81 386.35,-528.57 380.15,-525.33"/>
</g>
<!-- Blob::GL -->
<g id="node6" class="node">
<title>Blob::GL</title>
<polygon fill="none" stroke="black" points="173,-751.5 17,-751.5 17,-755.5 5,-755.5 5,-580.5 173,-580.5 173,-751.5"/>
<polyline fill="none" stroke="black" points="5,-751.5 17,-751.5 "/>
<text text-anchor="start" x="58" y="-733.8" font-family="Times,serif" font-size="14.00">Blob::GL</text>
<polygon fill="none" stroke="black" points="17,-703 17,-724 161,-724 161,-703 17,-703"/>
<text text-anchor="start" x="72" y="-709.8" font-family="Times,serif" font-size="14.00">Core</text>
<polygon fill="none" stroke="black" points="17,-680 17,-701 161,-701 161,-680 17,-680"/>
<text text-anchor="start" x="32" y="-686.8" font-family="Times,serif" font-size="14.00">ShaderProgram</text>
<polygon fill="none" stroke="black" points="17,-657 17,-678 161,-678 161,-657 17,-657"/>
<text text-anchor="start" x="61.5" y="-663.8" font-family="Times,serif" font-size="14.00">Texture</text>
<polygon fill="none" stroke="black" points="17,-634 17,-655 161,-655 161,-634 17,-634"/>
<text text-anchor="start" x="20" y="-640.8" font-family="Times,serif" font-size="14.00">VertexBufferObject</text>
<polygon fill="none" stroke="black" points="17,-611 17,-632 161,-632 161,-611 17,-611"/>
<text text-anchor="start" x="22.5" y="-617.8" font-family="Times,serif" font-size="14.00">VertexArrayObject</text>
<polygon fill="none" stroke="black" points="17,-588 17,-609 161,-609 161,-588 17,-588"/>
<text text-anchor="start" x="20" y="-594.8" font-family="Times,serif" font-size="14.00">FrameBufferObject</text>
</g>
<!-- Blob::GL&#45;&gt;Blob -->
<g id="edge5" class="edge">
<title>Blob::GL&#45;&gt;Blob</title>
<path fill="none" stroke="black" d="M183.46,-666C202.59,-666 222.37,-666 240.4,-666"/>
<polygon fill="none" stroke="black" points="183.23,-662.5 173.23,-666 183.23,-669.5 183.23,-662.5"/>
</g>
<!-- Blob::Material -->
<g id="node7" class="node">
<title>Blob::Material</title>
<polygon fill="none" stroke="black" points="405,-227.5 226,-227.5 226,-231.5 214,-231.5 214,-10.5 405,-10.5 405,-227.5"/>
<polyline fill="none" stroke="black" points="214,-227.5 226,-227.5 "/>
<text text-anchor="start" x="258.5" y="-209.8" font-family="Times,serif" font-size="14.00">Blob::Material</text>
<polygon fill="none" stroke="black" points="226.5,-179 226.5,-200 393.5,-200 393.5,-179 226.5,-179"/>
<text text-anchor="start" x="290.5" y="-185.8" font-family="Times,serif" font-size="14.00">Color</text>
<polygon fill="none" stroke="black" points="226.5,-156 226.5,-177 393.5,-177 393.5,-156 226.5,-156"/>
<text text-anchor="start" x="279.5" y="-162.8" font-family="Times,serif" font-size="14.00">Material</text>
<polygon fill="none" stroke="black" points="226.5,-133 226.5,-154 393.5,-154 393.5,-133 226.5,-133"/>
<text text-anchor="start" x="253" y="-139.8" font-family="Times,serif" font-size="14.00">DefaultMaterial</text>
<polygon fill="none" stroke="black" points="226.5,-110 226.5,-131 393.5,-131 393.5,-110 226.5,-110"/>
<text text-anchor="start" x="278.5" y="-116.8" font-family="Times,serif" font-size="14.00">LightPos</text>
<polygon fill="none" stroke="black" points="226.5,-87 226.5,-108 393.5,-108 393.5,-87 226.5,-87"/>
<text text-anchor="start" x="291" y="-93.8" font-family="Times,serif" font-size="14.00">Light</text>
<polygon fill="none" stroke="black" points="226.5,-64 226.5,-85 393.5,-85 393.5,-64 226.5,-64"/>
<text text-anchor="start" x="264" y="-70.8" font-family="Times,serif" font-size="14.00">PBRMaterial</text>
<polygon fill="none" stroke="black" points="226.5,-41 226.5,-62 393.5,-62 393.5,-41 226.5,-41"/>
<text text-anchor="start" x="237.5" y="-47.8" font-family="Times,serif" font-size="14.00">SingleColorMaterial</text>
<polygon fill="none" stroke="black" points="226.5,-18 226.5,-39 393.5,-39 393.5,-18 226.5,-18"/>
<text text-anchor="start" x="229.5" y="-24.8" font-family="Times,serif" font-size="14.00">SingleTextureMaterial</text>
</g>
<!-- Blob::Material&#45;&gt;Blob::glTF2 -->
<g id="edge6" class="edge">
<title>Blob::Material&#45;&gt;Blob::glTF2</title>
<path fill="none" stroke="black" d="M414.05,-172.27C422.99,-176.87 432,-181.5 440.87,-186.06"/>
<polygon fill="none" stroke="black" points="415.65,-169.15 405.15,-167.69 412.44,-175.38 415.65,-169.15"/>
</g>
<!-- Blob::Reader -->
<g id="node8" class="node">
<title>Blob::Reader</title>
<polygon fill="none" stroke="black" points="145.5,-826 44.5,-826 44.5,-830 32.5,-830 32.5,-770 145.5,-770 145.5,-826"/>
<polyline fill="none" stroke="black" points="32.5,-826 44.5,-826 "/>
<text text-anchor="start" x="43" y="-808.8" font-family="Times,serif" font-size="14.00">Blob::Reader</text>
<polygon fill="none" stroke="black" points="45,-778 45,-799 134,-799 134,-778 45,-778"/>
<text text-anchor="start" x="50" y="-784.8" font-family="Times,serif" font-size="14.00">FileReader</text>
</g>
</g>
</svg>
